<mxfile host="app.diagrams.net" modified="2023-06-26T09:45:27.114Z" agent="Mozilla/5.0 (Windows NT 10.0; Win64; x64) AppleWebKit/537.36 (KHTML, like Gecko) Chrome/110.0.0.0 Safari/537.36" etag="tN203fVLOGcA4h1ZzvKz" version="21.2.4" type="device">
  <diagram id="C5RBs43oDa-KdzZeNtuy" name="Page-1">
    <mxGraphModel dx="1912" dy="3270" grid="1" gridSize="10" guides="1" tooltips="1" connect="1" arrows="1" fold="1" page="1" pageScale="1" pageWidth="827" pageHeight="1169" math="0" shadow="0">
      <root>
        <mxCell id="WIyWlLk6GJQsqaUBKTNV-0" />
        <mxCell id="WIyWlLk6GJQsqaUBKTNV-1" parent="WIyWlLk6GJQsqaUBKTNV-0" />
        <mxCell id="4lEQ4ThhcwdyaVCsO8Y2-52" value="" style="rounded=1;whiteSpace=wrap;html=1;fontSize=22;" parent="WIyWlLk6GJQsqaUBKTNV-1" vertex="1">
          <mxGeometry x="4396" y="-2090" width="410" height="300" as="geometry" />
        </mxCell>
        <mxCell id="aSgMHRb1zKFTXldxdmWt-246" value="" style="rounded=1;whiteSpace=wrap;html=1;fontSize=22;" parent="WIyWlLk6GJQsqaUBKTNV-1" vertex="1">
          <mxGeometry x="3800" y="-274.99" width="1150" height="970" as="geometry" />
        </mxCell>
        <mxCell id="aSgMHRb1zKFTXldxdmWt-101" style="edgeStyle=elbowEdgeStyle;rounded=0;orthogonalLoop=1;jettySize=auto;html=1;exitX=0;exitY=0.5;exitDx=0;exitDy=0;entryX=1;entryY=0.5;entryDx=0;entryDy=0;dashed=1;startArrow=none;startFill=0;endArrow=none;endFill=0;" parent="WIyWlLk6GJQsqaUBKTNV-1" source="aSgMHRb1zKFTXldxdmWt-92" target="aSgMHRb1zKFTXldxdmWt-97" edge="1">
          <mxGeometry relative="1" as="geometry">
            <Array as="points" />
          </mxGeometry>
        </mxCell>
        <mxCell id="aSgMHRb1zKFTXldxdmWt-14" value="" style="edgeStyle=orthogonalEdgeStyle;rounded=0;orthogonalLoop=1;jettySize=auto;html=1;endArrow=none;endFill=0;" parent="WIyWlLk6GJQsqaUBKTNV-1" source="aSgMHRb1zKFTXldxdmWt-15" target="aSgMHRb1zKFTXldxdmWt-20" edge="1">
          <mxGeometry relative="1" as="geometry" />
        </mxCell>
        <mxCell id="aSgMHRb1zKFTXldxdmWt-15" value="DIVISION" style="swimlane;fontStyle=2;align=center;verticalAlign=top;childLayout=stackLayout;horizontal=1;startSize=26;horizontalStack=0;resizeParent=1;resizeLast=0;collapsible=1;marginBottom=0;rounded=0;shadow=0;strokeWidth=1;fillColor=#dae8fc;strokeColor=#6c8ebf;" parent="WIyWlLk6GJQsqaUBKTNV-1" vertex="1">
          <mxGeometry x="2720" y="-970" width="190" height="106" as="geometry">
            <mxRectangle x="230" y="140" width="160" height="26" as="alternateBounds" />
          </mxGeometry>
        </mxCell>
        <mxCell id="aSgMHRb1zKFTXldxdmWt-16" value="ID" style="text;align=left;verticalAlign=top;spacingLeft=4;spacingRight=4;overflow=hidden;rotatable=0;points=[[0,0.5],[1,0.5]];portConstraint=eastwest;" parent="aSgMHRb1zKFTXldxdmWt-15" vertex="1">
          <mxGeometry y="26" width="190" height="26" as="geometry" />
        </mxCell>
        <mxCell id="aSgMHRb1zKFTXldxdmWt-17" value="NOMBRE" style="text;align=left;verticalAlign=top;spacingLeft=4;spacingRight=4;overflow=hidden;rotatable=0;points=[[0,0.5],[1,0.5]];portConstraint=eastwest;rounded=0;shadow=0;html=0;" parent="aSgMHRb1zKFTXldxdmWt-15" vertex="1">
          <mxGeometry y="52" width="190" height="26" as="geometry" />
        </mxCell>
        <mxCell id="aSgMHRb1zKFTXldxdmWt-18" value="DESCRIPCION" style="text;align=left;verticalAlign=top;spacingLeft=4;spacingRight=4;overflow=hidden;rotatable=0;points=[[0,0.5],[1,0.5]];portConstraint=eastwest;rounded=0;shadow=0;html=0;" parent="aSgMHRb1zKFTXldxdmWt-15" vertex="1">
          <mxGeometry y="78" width="190" height="26" as="geometry" />
        </mxCell>
        <mxCell id="aSgMHRb1zKFTXldxdmWt-19" value="" style="edgeStyle=orthogonalEdgeStyle;rounded=0;orthogonalLoop=1;jettySize=auto;html=1;endArrow=none;endFill=0;" parent="WIyWlLk6GJQsqaUBKTNV-1" source="aSgMHRb1zKFTXldxdmWt-20" target="aSgMHRb1zKFTXldxdmWt-26" edge="1">
          <mxGeometry relative="1" as="geometry" />
        </mxCell>
        <mxCell id="aSgMHRb1zKFTXldxdmWt-20" value="SUB-DIVISION" style="swimlane;fontStyle=2;align=center;verticalAlign=top;childLayout=stackLayout;horizontal=1;startSize=26;horizontalStack=0;resizeParent=1;resizeLast=0;collapsible=1;marginBottom=0;rounded=0;shadow=0;strokeWidth=1;fillColor=#dae8fc;strokeColor=#6c8ebf;" parent="WIyWlLk6GJQsqaUBKTNV-1" vertex="1">
          <mxGeometry x="2720" y="-800" width="190" height="182" as="geometry">
            <mxRectangle x="230" y="140" width="160" height="26" as="alternateBounds" />
          </mxGeometry>
        </mxCell>
        <mxCell id="aSgMHRb1zKFTXldxdmWt-21" value="ID" style="text;align=left;verticalAlign=top;spacingLeft=4;spacingRight=4;overflow=hidden;rotatable=0;points=[[0,0.5],[1,0.5]];portConstraint=eastwest;" parent="aSgMHRb1zKFTXldxdmWt-20" vertex="1">
          <mxGeometry y="26" width="190" height="26" as="geometry" />
        </mxCell>
        <mxCell id="aSgMHRb1zKFTXldxdmWt-22" value="ID_DIVISION" style="text;align=left;verticalAlign=top;spacingLeft=4;spacingRight=4;overflow=hidden;rotatable=0;points=[[0,0.5],[1,0.5]];portConstraint=eastwest;fillColor=#fff2cc;strokeColor=#d6b656;" parent="aSgMHRb1zKFTXldxdmWt-20" vertex="1">
          <mxGeometry y="52" width="190" height="26" as="geometry" />
        </mxCell>
        <mxCell id="aSgMHRb1zKFTXldxdmWt-23" value="NOMBRE" style="text;align=left;verticalAlign=top;spacingLeft=4;spacingRight=4;overflow=hidden;rotatable=0;points=[[0,0.5],[1,0.5]];portConstraint=eastwest;rounded=0;shadow=0;html=0;" parent="aSgMHRb1zKFTXldxdmWt-20" vertex="1">
          <mxGeometry y="78" width="190" height="26" as="geometry" />
        </mxCell>
        <mxCell id="aSgMHRb1zKFTXldxdmWt-31" value="MANAGER" style="text;align=left;verticalAlign=top;spacingLeft=4;spacingRight=4;overflow=hidden;rotatable=0;points=[[0,0.5],[1,0.5]];portConstraint=eastwest;rounded=0;shadow=0;html=0;fillColor=#fff2cc;strokeColor=#d6b656;" parent="aSgMHRb1zKFTXldxdmWt-20" vertex="1">
          <mxGeometry y="104" width="190" height="26" as="geometry" />
        </mxCell>
        <mxCell id="aSgMHRb1zKFTXldxdmWt-24" value="DESCRIPCION" style="text;align=left;verticalAlign=top;spacingLeft=4;spacingRight=4;overflow=hidden;rotatable=0;points=[[0,0.5],[1,0.5]];portConstraint=eastwest;rounded=0;shadow=0;html=0;" parent="aSgMHRb1zKFTXldxdmWt-20" vertex="1">
          <mxGeometry y="130" width="190" height="26" as="geometry" />
        </mxCell>
        <mxCell id="w3GR32y07PW2-ju8I6YQ-2" value="ACTIVO" style="text;align=left;verticalAlign=top;spacingLeft=4;spacingRight=4;overflow=hidden;rotatable=0;points=[[0,0.5],[1,0.5]];portConstraint=eastwest;rounded=0;shadow=0;html=0;" parent="aSgMHRb1zKFTXldxdmWt-20" vertex="1">
          <mxGeometry y="156" width="190" height="26" as="geometry" />
        </mxCell>
        <mxCell id="aSgMHRb1zKFTXldxdmWt-25" value="" style="edgeStyle=orthogonalEdgeStyle;rounded=0;orthogonalLoop=1;jettySize=auto;html=1;" parent="WIyWlLk6GJQsqaUBKTNV-1" source="aSgMHRb1zKFTXldxdmWt-26" target="aSgMHRb1zKFTXldxdmWt-41" edge="1">
          <mxGeometry relative="1" as="geometry" />
        </mxCell>
        <mxCell id="aSgMHRb1zKFTXldxdmWt-26" value="PROGRAMA" style="swimlane;fontStyle=2;align=center;verticalAlign=top;childLayout=stackLayout;horizontal=1;startSize=26;horizontalStack=0;resizeParent=1;resizeLast=0;collapsible=1;marginBottom=0;rounded=0;shadow=0;strokeWidth=1;fillColor=#dae8fc;strokeColor=#6c8ebf;" parent="WIyWlLk6GJQsqaUBKTNV-1" vertex="1">
          <mxGeometry x="2720" y="-590" width="190" height="160" as="geometry">
            <mxRectangle x="230" y="140" width="160" height="26" as="alternateBounds" />
          </mxGeometry>
        </mxCell>
        <mxCell id="aSgMHRb1zKFTXldxdmWt-27" value="ID" style="text;align=left;verticalAlign=top;spacingLeft=4;spacingRight=4;overflow=hidden;rotatable=0;points=[[0,0.5],[1,0.5]];portConstraint=eastwest;" parent="aSgMHRb1zKFTXldxdmWt-26" vertex="1">
          <mxGeometry y="26" width="190" height="26" as="geometry" />
        </mxCell>
        <mxCell id="aSgMHRb1zKFTXldxdmWt-28" value="ID_SUBDIVISION" style="text;align=left;verticalAlign=top;spacingLeft=4;spacingRight=4;overflow=hidden;rotatable=0;points=[[0,0.5],[1,0.5]];portConstraint=eastwest;fillColor=#fff2cc;strokeColor=#d6b656;" parent="aSgMHRb1zKFTXldxdmWt-26" vertex="1">
          <mxGeometry y="52" width="190" height="26" as="geometry" />
        </mxCell>
        <mxCell id="aSgMHRb1zKFTXldxdmWt-29" value="NOMBRE" style="text;align=left;verticalAlign=top;spacingLeft=4;spacingRight=4;overflow=hidden;rotatable=0;points=[[0,0.5],[1,0.5]];portConstraint=eastwest;rounded=0;shadow=0;html=0;" parent="aSgMHRb1zKFTXldxdmWt-26" vertex="1">
          <mxGeometry y="78" width="190" height="26" as="geometry" />
        </mxCell>
        <mxCell id="aSgMHRb1zKFTXldxdmWt-30" value="DESCRIPCION" style="text;align=left;verticalAlign=top;spacingLeft=4;spacingRight=4;overflow=hidden;rotatable=0;points=[[0,0.5],[1,0.5]];portConstraint=eastwest;rounded=0;shadow=0;html=0;" parent="aSgMHRb1zKFTXldxdmWt-26" vertex="1">
          <mxGeometry y="104" width="190" height="26" as="geometry" />
        </mxCell>
        <mxCell id="aSgMHRb1zKFTXldxdmWt-33" value="ACTIVO" style="text;align=left;verticalAlign=top;spacingLeft=4;spacingRight=4;overflow=hidden;rotatable=0;points=[[0,0.5],[1,0.5]];portConstraint=eastwest;rounded=0;shadow=0;html=0;" parent="aSgMHRb1zKFTXldxdmWt-26" vertex="1">
          <mxGeometry y="130" width="190" height="26" as="geometry" />
        </mxCell>
        <mxCell id="1h8ergVPv47DGxf9XVKZ-1" style="edgeStyle=orthogonalEdgeStyle;rounded=0;orthogonalLoop=1;jettySize=auto;html=1;entryX=1;entryY=0.5;entryDx=0;entryDy=0;" parent="WIyWlLk6GJQsqaUBKTNV-1" source="aSgMHRb1zKFTXldxdmWt-34" target="1h8ergVPv47DGxf9XVKZ-2" edge="1">
          <mxGeometry relative="1" as="geometry">
            <mxPoint x="2850" y="-1110" as="targetPoint" />
            <Array as="points">
              <mxPoint x="3240" y="-1110" />
            </Array>
          </mxGeometry>
        </mxCell>
        <mxCell id="aSgMHRb1zKFTXldxdmWt-34" value="CONTRATOS / SERVICIO" style="swimlane;fontStyle=2;align=center;verticalAlign=top;childLayout=stackLayout;horizontal=1;startSize=26;horizontalStack=0;resizeParent=1;resizeLast=0;collapsible=1;marginBottom=0;rounded=0;shadow=0;strokeWidth=1;fillColor=#dae8fc;strokeColor=#6c8ebf;" parent="WIyWlLk6GJQsqaUBKTNV-1" vertex="1">
          <mxGeometry x="3120" y="-1030" width="188" height="260" as="geometry">
            <mxRectangle x="230" y="140" width="160" height="26" as="alternateBounds" />
          </mxGeometry>
        </mxCell>
        <mxCell id="aSgMHRb1zKFTXldxdmWt-35" value="ID" style="text;align=left;verticalAlign=top;spacingLeft=4;spacingRight=4;overflow=hidden;rotatable=0;points=[[0,0.5],[1,0.5]];portConstraint=eastwest;" parent="aSgMHRb1zKFTXldxdmWt-34" vertex="1">
          <mxGeometry y="26" width="188" height="26" as="geometry" />
        </mxCell>
        <mxCell id="aSgMHRb1zKFTXldxdmWt-37" value="NOMBRE" style="text;align=left;verticalAlign=top;spacingLeft=4;spacingRight=4;overflow=hidden;rotatable=0;points=[[0,0.5],[1,0.5]];portConstraint=eastwest;rounded=0;shadow=0;html=0;" parent="aSgMHRb1zKFTXldxdmWt-34" vertex="1">
          <mxGeometry y="52" width="188" height="26" as="geometry" />
        </mxCell>
        <mxCell id="aSgMHRb1zKFTXldxdmWt-38" value="DESCRIPCION" style="text;align=left;verticalAlign=top;spacingLeft=4;spacingRight=4;overflow=hidden;rotatable=0;points=[[0,0.5],[1,0.5]];portConstraint=eastwest;rounded=0;shadow=0;html=0;" parent="aSgMHRb1zKFTXldxdmWt-34" vertex="1">
          <mxGeometry y="78" width="188" height="26" as="geometry" />
        </mxCell>
        <mxCell id="09nwwOC5vi52An9m1VIr-2" value="CODIGO" style="text;align=left;verticalAlign=top;spacingLeft=4;spacingRight=4;overflow=hidden;rotatable=0;points=[[0,0.5],[1,0.5]];portConstraint=eastwest;rounded=0;shadow=0;html=0;" parent="aSgMHRb1zKFTXldxdmWt-34" vertex="1">
          <mxGeometry y="104" width="188" height="26" as="geometry" />
        </mxCell>
        <mxCell id="BKEtO_gzMW31352du1K6-10" value="ACTIVO" style="text;align=left;verticalAlign=top;spacingLeft=4;spacingRight=4;overflow=hidden;rotatable=0;points=[[0,0.5],[1,0.5]];portConstraint=eastwest;rounded=0;shadow=0;html=0;" parent="aSgMHRb1zKFTXldxdmWt-34" vertex="1">
          <mxGeometry y="130" width="188" height="26" as="geometry" />
        </mxCell>
        <mxCell id="BKEtO_gzMW31352du1K6-12" value="PROGRAMS" style="text;align=left;verticalAlign=top;spacingLeft=4;spacingRight=4;overflow=hidden;rotatable=0;points=[[0,0.5],[1,0.5]];portConstraint=eastwest;rounded=0;shadow=0;html=0;fillColor=#fff2cc;strokeColor=#d6b656;" parent="aSgMHRb1zKFTXldxdmWt-34" vertex="1">
          <mxGeometry y="156" width="188" height="26" as="geometry" />
        </mxCell>
        <mxCell id="BKEtO_gzMW31352du1K6-15" value="SETS" style="text;align=left;verticalAlign=top;spacingLeft=4;spacingRight=4;overflow=hidden;rotatable=0;points=[[0,0.5],[1,0.5]];portConstraint=eastwest;rounded=0;shadow=0;html=0;fillColor=#fff2cc;strokeColor=#d6b656;" parent="aSgMHRb1zKFTXldxdmWt-34" vertex="1">
          <mxGeometry y="182" width="188" height="26" as="geometry" />
        </mxCell>
        <mxCell id="BKEtO_gzMW31352du1K6-13" value="SUBSETS" style="text;align=left;verticalAlign=top;spacingLeft=4;spacingRight=4;overflow=hidden;rotatable=0;points=[[0,0.5],[1,0.5]];portConstraint=eastwest;rounded=0;shadow=0;html=0;fillColor=#fff2cc;strokeColor=#d6b656;" parent="aSgMHRb1zKFTXldxdmWt-34" vertex="1">
          <mxGeometry y="208" width="188" height="26" as="geometry" />
        </mxCell>
        <mxCell id="BKEtO_gzMW31352du1K6-11" value="LOCATIONS" style="text;align=left;verticalAlign=top;spacingLeft=4;spacingRight=4;overflow=hidden;rotatable=0;points=[[0,0.5],[1,0.5]];portConstraint=eastwest;rounded=0;shadow=0;html=0;fillColor=#fff2cc;strokeColor=#d6b656;" parent="aSgMHRb1zKFTXldxdmWt-34" vertex="1">
          <mxGeometry y="234" width="188" height="26" as="geometry" />
        </mxCell>
        <mxCell id="aSgMHRb1zKFTXldxdmWt-40" value="" style="edgeStyle=orthogonalEdgeStyle;rounded=0;orthogonalLoop=1;jettySize=auto;html=1;endArrow=none;endFill=0;entryX=0.5;entryY=0;entryDx=0;entryDy=0;exitX=0.5;exitY=0;exitDx=0;exitDy=0;" parent="WIyWlLk6GJQsqaUBKTNV-1" source="1h8ergVPv47DGxf9XVKZ-4" target="aSgMHRb1zKFTXldxdmWt-34" edge="1">
          <mxGeometry relative="1" as="geometry">
            <mxPoint x="2945" y="-650.0000000000002" as="sourcePoint" />
            <mxPoint x="2945" y="-600.0000000000002" as="targetPoint" />
            <Array as="points">
              <mxPoint x="3040" y="-1070" />
              <mxPoint x="3214" y="-1070" />
            </Array>
          </mxGeometry>
        </mxCell>
        <mxCell id="aSgMHRb1zKFTXldxdmWt-41" value="CONJUNTO" style="swimlane;fontStyle=2;align=center;verticalAlign=top;childLayout=stackLayout;horizontal=1;startSize=26;horizontalStack=0;resizeParent=1;resizeLast=0;collapsible=1;marginBottom=0;rounded=0;shadow=0;strokeWidth=1;fillColor=#dae8fc;strokeColor=#6c8ebf;" parent="WIyWlLk6GJQsqaUBKTNV-1" vertex="1">
          <mxGeometry x="2720" y="-390" width="190" height="130" as="geometry">
            <mxRectangle x="230" y="140" width="160" height="26" as="alternateBounds" />
          </mxGeometry>
        </mxCell>
        <mxCell id="aSgMHRb1zKFTXldxdmWt-42" value="ID" style="text;align=left;verticalAlign=top;spacingLeft=4;spacingRight=4;overflow=hidden;rotatable=0;points=[[0,0.5],[1,0.5]];portConstraint=eastwest;" parent="aSgMHRb1zKFTXldxdmWt-41" vertex="1">
          <mxGeometry y="26" width="190" height="26" as="geometry" />
        </mxCell>
        <mxCell id="aSgMHRb1zKFTXldxdmWt-43" value="ID_PROGRAMA" style="text;align=left;verticalAlign=top;spacingLeft=4;spacingRight=4;overflow=hidden;rotatable=0;points=[[0,0.5],[1,0.5]];portConstraint=eastwest;fillColor=#fff2cc;strokeColor=#d6b656;" parent="aSgMHRb1zKFTXldxdmWt-41" vertex="1">
          <mxGeometry y="52" width="190" height="26" as="geometry" />
        </mxCell>
        <mxCell id="aSgMHRb1zKFTXldxdmWt-44" value="NOMBRE" style="text;align=left;verticalAlign=top;spacingLeft=4;spacingRight=4;overflow=hidden;rotatable=0;points=[[0,0.5],[1,0.5]];portConstraint=eastwest;rounded=0;shadow=0;html=0;" parent="aSgMHRb1zKFTXldxdmWt-41" vertex="1">
          <mxGeometry y="78" width="190" height="26" as="geometry" />
        </mxCell>
        <mxCell id="aSgMHRb1zKFTXldxdmWt-45" value="DESCRIPCION" style="text;align=left;verticalAlign=top;spacingLeft=4;spacingRight=4;overflow=hidden;rotatable=0;points=[[0,0.5],[1,0.5]];portConstraint=eastwest;rounded=0;shadow=0;html=0;" parent="aSgMHRb1zKFTXldxdmWt-41" vertex="1">
          <mxGeometry y="104" width="190" height="26" as="geometry" />
        </mxCell>
        <mxCell id="aSgMHRb1zKFTXldxdmWt-46" value="" style="edgeStyle=orthogonalEdgeStyle;rounded=0;orthogonalLoop=1;jettySize=auto;html=1;endArrow=none;endFill=0;" parent="WIyWlLk6GJQsqaUBKTNV-1" source="aSgMHRb1zKFTXldxdmWt-47" target="aSgMHRb1zKFTXldxdmWt-45" edge="1">
          <mxGeometry relative="1" as="geometry">
            <Array as="points">
              <mxPoint x="2815" y="-240" />
              <mxPoint x="2815" y="-240" />
            </Array>
          </mxGeometry>
        </mxCell>
        <mxCell id="aSgMHRb1zKFTXldxdmWt-47" value="SUB-CONJUNTO" style="swimlane;fontStyle=2;align=center;verticalAlign=top;childLayout=stackLayout;horizontal=1;startSize=26;horizontalStack=0;resizeParent=1;resizeLast=0;collapsible=1;marginBottom=0;rounded=0;shadow=0;strokeWidth=1;fillColor=#dae8fc;strokeColor=#6c8ebf;" parent="WIyWlLk6GJQsqaUBKTNV-1" vertex="1">
          <mxGeometry x="2710" y="-202" width="190" height="130" as="geometry">
            <mxRectangle x="230" y="140" width="160" height="26" as="alternateBounds" />
          </mxGeometry>
        </mxCell>
        <mxCell id="aSgMHRb1zKFTXldxdmWt-48" value="ID" style="text;align=left;verticalAlign=top;spacingLeft=4;spacingRight=4;overflow=hidden;rotatable=0;points=[[0,0.5],[1,0.5]];portConstraint=eastwest;" parent="aSgMHRb1zKFTXldxdmWt-47" vertex="1">
          <mxGeometry y="26" width="190" height="26" as="geometry" />
        </mxCell>
        <mxCell id="aSgMHRb1zKFTXldxdmWt-49" value="ID_PROGRAMA" style="text;align=left;verticalAlign=top;spacingLeft=4;spacingRight=4;overflow=hidden;rotatable=0;points=[[0,0.5],[1,0.5]];portConstraint=eastwest;fillColor=#fff2cc;strokeColor=#d6b656;" parent="aSgMHRb1zKFTXldxdmWt-47" vertex="1">
          <mxGeometry y="52" width="190" height="26" as="geometry" />
        </mxCell>
        <mxCell id="aSgMHRb1zKFTXldxdmWt-50" value="NOMBRE" style="text;align=left;verticalAlign=top;spacingLeft=4;spacingRight=4;overflow=hidden;rotatable=0;points=[[0,0.5],[1,0.5]];portConstraint=eastwest;rounded=0;shadow=0;html=0;" parent="aSgMHRb1zKFTXldxdmWt-47" vertex="1">
          <mxGeometry y="78" width="190" height="26" as="geometry" />
        </mxCell>
        <mxCell id="aSgMHRb1zKFTXldxdmWt-51" value="DESCRIPCION" style="text;align=left;verticalAlign=top;spacingLeft=4;spacingRight=4;overflow=hidden;rotatable=0;points=[[0,0.5],[1,0.5]];portConstraint=eastwest;rounded=0;shadow=0;html=0;" parent="aSgMHRb1zKFTXldxdmWt-47" vertex="1">
          <mxGeometry y="104" width="190" height="26" as="geometry" />
        </mxCell>
        <mxCell id="BKEtO_gzMW31352du1K6-16" style="edgeStyle=orthogonalEdgeStyle;rounded=0;orthogonalLoop=1;jettySize=auto;html=1;exitX=0.5;exitY=0;exitDx=0;exitDy=0;entryX=0.475;entryY=1.102;entryDx=0;entryDy=0;entryPerimeter=0;" parent="WIyWlLk6GJQsqaUBKTNV-1" source="aSgMHRb1zKFTXldxdmWt-53" target="BKEtO_gzMW31352du1K6-11" edge="1">
          <mxGeometry relative="1" as="geometry" />
        </mxCell>
        <mxCell id="aSgMHRb1zKFTXldxdmWt-53" value="PAQUETE TRABAJO" style="swimlane;fontStyle=2;align=center;verticalAlign=top;childLayout=stackLayout;horizontal=1;startSize=26;horizontalStack=0;resizeParent=1;resizeLast=0;collapsible=1;marginBottom=0;rounded=0;shadow=0;strokeWidth=1;fillColor=#dae8fc;strokeColor=#6c8ebf;" parent="WIyWlLk6GJQsqaUBKTNV-1" vertex="1">
          <mxGeometry x="3118" y="-733" width="190" height="272" as="geometry">
            <mxRectangle x="230" y="140" width="160" height="26" as="alternateBounds" />
          </mxGeometry>
        </mxCell>
        <mxCell id="aSgMHRb1zKFTXldxdmWt-54" value="ID" style="text;align=left;verticalAlign=top;spacingLeft=4;spacingRight=4;overflow=hidden;rotatable=0;points=[[0,0.5],[1,0.5]];portConstraint=eastwest;" parent="aSgMHRb1zKFTXldxdmWt-53" vertex="1">
          <mxGeometry y="26" width="190" height="26" as="geometry" />
        </mxCell>
        <mxCell id="aSgMHRb1zKFTXldxdmWt-55" value="ID_CONTRATO" style="text;align=left;verticalAlign=top;spacingLeft=4;spacingRight=4;overflow=hidden;rotatable=0;points=[[0,0.5],[1,0.5]];portConstraint=eastwest;fillColor=#fff2cc;strokeColor=#d6b656;" parent="aSgMHRb1zKFTXldxdmWt-53" vertex="1">
          <mxGeometry y="52" width="190" height="26" as="geometry" />
        </mxCell>
        <mxCell id="w3GR32y07PW2-ju8I6YQ-23" value="ID_DEPARTAMENTO" style="text;align=left;verticalAlign=top;spacingLeft=4;spacingRight=4;overflow=hidden;rotatable=0;points=[[0,0.5],[1,0.5]];portConstraint=eastwest;fillColor=#fff2cc;strokeColor=#d6b656;" parent="aSgMHRb1zKFTXldxdmWt-53" vertex="1">
          <mxGeometry y="78" width="190" height="26" as="geometry" />
        </mxCell>
        <mxCell id="h0GC7bV9k8jez8_o-PCf-98" value="RESPONSABLES" style="text;align=left;verticalAlign=top;spacingLeft=4;spacingRight=4;overflow=hidden;rotatable=0;points=[[0,0.5],[1,0.5]];portConstraint=eastwest;rounded=0;shadow=0;html=0;fillColor=#fff2cc;strokeColor=#d6b656;" vertex="1" parent="aSgMHRb1zKFTXldxdmWt-53">
          <mxGeometry y="104" width="190" height="26" as="geometry" />
        </mxCell>
        <mxCell id="aSgMHRb1zKFTXldxdmWt-56" value="NOMBRE" style="text;align=left;verticalAlign=top;spacingLeft=4;spacingRight=4;overflow=hidden;rotatable=0;points=[[0,0.5],[1,0.5]];portConstraint=eastwest;rounded=0;shadow=0;html=0;" parent="aSgMHRb1zKFTXldxdmWt-53" vertex="1">
          <mxGeometry y="130" width="190" height="26" as="geometry" />
        </mxCell>
        <mxCell id="aSgMHRb1zKFTXldxdmWt-57" value="DESCRIPCION" style="text;align=left;verticalAlign=top;spacingLeft=4;spacingRight=4;overflow=hidden;rotatable=0;points=[[0,0.5],[1,0.5]];portConstraint=eastwest;rounded=0;shadow=0;html=0;" parent="aSgMHRb1zKFTXldxdmWt-53" vertex="1">
          <mxGeometry y="156" width="190" height="26" as="geometry" />
        </mxCell>
        <mxCell id="w3GR32y07PW2-ju8I6YQ-25" value="CODIGO" style="text;align=left;verticalAlign=top;spacingLeft=4;spacingRight=4;overflow=hidden;rotatable=0;points=[[0,0.5],[1,0.5]];portConstraint=eastwest;rounded=0;shadow=0;html=0;" parent="aSgMHRb1zKFTXldxdmWt-53" vertex="1">
          <mxGeometry y="182" width="190" height="30" as="geometry" />
        </mxCell>
        <mxCell id="w3GR32y07PW2-ju8I6YQ-24" value="ES_DEPARTAMENTO" style="text;align=left;verticalAlign=top;spacingLeft=4;spacingRight=4;overflow=hidden;rotatable=0;points=[[0,0.5],[1,0.5]];portConstraint=eastwest;rounded=0;shadow=0;html=0;" parent="aSgMHRb1zKFTXldxdmWt-53" vertex="1">
          <mxGeometry y="212" width="190" height="30" as="geometry" />
        </mxCell>
        <mxCell id="aSgMHRb1zKFTXldxdmWt-58" value="ACTIVE" style="text;align=left;verticalAlign=top;spacingLeft=4;spacingRight=4;overflow=hidden;rotatable=0;points=[[0,0.5],[1,0.5]];portConstraint=eastwest;rounded=0;shadow=0;html=0;" parent="aSgMHRb1zKFTXldxdmWt-53" vertex="1">
          <mxGeometry y="242" width="190" height="30" as="geometry" />
        </mxCell>
        <mxCell id="aSgMHRb1zKFTXldxdmWt-73" style="edgeStyle=orthogonalEdgeStyle;rounded=0;orthogonalLoop=1;jettySize=auto;html=1;entryX=0.5;entryY=0;entryDx=0;entryDy=0;" parent="WIyWlLk6GJQsqaUBKTNV-1" source="aSgMHRb1zKFTXldxdmWt-59" target="aSgMHRb1zKFTXldxdmWt-66" edge="1">
          <mxGeometry relative="1" as="geometry" />
        </mxCell>
        <mxCell id="aSgMHRb1zKFTXldxdmWt-59" value="MISION" style="swimlane;fontStyle=2;align=center;verticalAlign=top;childLayout=stackLayout;horizontal=1;startSize=26;horizontalStack=0;resizeParent=1;resizeLast=0;collapsible=1;marginBottom=0;rounded=0;shadow=0;strokeWidth=1;fillColor=#dae8fc;strokeColor=#6c8ebf;" parent="WIyWlLk6GJQsqaUBKTNV-1" vertex="1">
          <mxGeometry x="3108" y="-440" width="190" height="312" as="geometry">
            <mxRectangle x="230" y="140" width="160" height="26" as="alternateBounds" />
          </mxGeometry>
        </mxCell>
        <mxCell id="aSgMHRb1zKFTXldxdmWt-60" value="ID" style="text;align=left;verticalAlign=top;spacingLeft=4;spacingRight=4;overflow=hidden;rotatable=0;points=[[0,0.5],[1,0.5]];portConstraint=eastwest;" parent="aSgMHRb1zKFTXldxdmWt-59" vertex="1">
          <mxGeometry y="26" width="190" height="26" as="geometry" />
        </mxCell>
        <mxCell id="aSgMHRb1zKFTXldxdmWt-61" value="ID_WORKPACKAGE" style="text;align=left;verticalAlign=top;spacingLeft=4;spacingRight=4;overflow=hidden;rotatable=0;points=[[0,0.5],[1,0.5]];portConstraint=eastwest;fillColor=#fff2cc;strokeColor=#d6b656;" parent="aSgMHRb1zKFTXldxdmWt-59" vertex="1">
          <mxGeometry y="52" width="190" height="26" as="geometry" />
        </mxCell>
        <mxCell id="aSgMHRb1zKFTXldxdmWt-62" value="NOMBRE" style="text;align=left;verticalAlign=top;spacingLeft=4;spacingRight=4;overflow=hidden;rotatable=0;points=[[0,0.5],[1,0.5]];portConstraint=eastwest;rounded=0;shadow=0;html=0;" parent="aSgMHRb1zKFTXldxdmWt-59" vertex="1">
          <mxGeometry y="78" width="190" height="26" as="geometry" />
        </mxCell>
        <mxCell id="aSgMHRb1zKFTXldxdmWt-63" value="DESCRIPCION" style="text;align=left;verticalAlign=top;spacingLeft=4;spacingRight=4;overflow=hidden;rotatable=0;points=[[0,0.5],[1,0.5]];portConstraint=eastwest;rounded=0;shadow=0;html=0;" parent="aSgMHRb1zKFTXldxdmWt-59" vertex="1">
          <mxGeometry y="104" width="190" height="26" as="geometry" />
        </mxCell>
        <mxCell id="BKEtO_gzMW31352du1K6-21" value="CODE" style="text;align=left;verticalAlign=top;spacingLeft=4;spacingRight=4;overflow=hidden;rotatable=0;points=[[0,0.5],[1,0.5]];portConstraint=eastwest;rounded=0;shadow=0;html=0;" parent="aSgMHRb1zKFTXldxdmWt-59" vertex="1">
          <mxGeometry y="130" width="190" height="26" as="geometry" />
        </mxCell>
        <mxCell id="BKEtO_gzMW31352du1K6-22" value="RESPONSABLES" style="text;align=left;verticalAlign=top;spacingLeft=4;spacingRight=4;overflow=hidden;rotatable=0;points=[[0,0.5],[1,0.5]];portConstraint=eastwest;rounded=0;shadow=0;html=0;fillColor=#fff2cc;strokeColor=#d6b656;" parent="aSgMHRb1zKFTXldxdmWt-59" vertex="1">
          <mxGeometry y="156" width="190" height="26" as="geometry" />
        </mxCell>
        <mxCell id="h0GC7bV9k8jez8_o-PCf-101" value="EMPLEADOS" style="text;align=left;verticalAlign=top;spacingLeft=4;spacingRight=4;overflow=hidden;rotatable=0;points=[[0,0.5],[1,0.5]];portConstraint=eastwest;rounded=0;shadow=0;html=0;fillColor=#fff2cc;strokeColor=#d6b656;" vertex="1" parent="aSgMHRb1zKFTXldxdmWt-59">
          <mxGeometry y="182" width="190" height="26" as="geometry" />
        </mxCell>
        <mxCell id="BKEtO_gzMW31352du1K6-23" value="SITE" style="text;align=left;verticalAlign=top;spacingLeft=4;spacingRight=4;overflow=hidden;rotatable=0;points=[[0,0.5],[1,0.5]];portConstraint=eastwest;rounded=0;shadow=0;html=0;fillColor=#fff2cc;strokeColor=#d6b656;" parent="aSgMHRb1zKFTXldxdmWt-59" vertex="1">
          <mxGeometry y="208" width="190" height="26" as="geometry" />
        </mxCell>
        <mxCell id="BKEtO_gzMW31352du1K6-27" value="ESDEPARTAMENTO" style="text;align=left;verticalAlign=top;spacingLeft=4;spacingRight=4;overflow=hidden;rotatable=0;points=[[0,0.5],[1,0.5]];portConstraint=eastwest;rounded=0;shadow=0;html=0;" parent="aSgMHRb1zKFTXldxdmWt-59" vertex="1">
          <mxGeometry y="234" width="190" height="26" as="geometry" />
        </mxCell>
        <mxCell id="BKEtO_gzMW31352du1K6-25" value="ACTIVE" style="text;align=left;verticalAlign=top;spacingLeft=4;spacingRight=4;overflow=hidden;rotatable=0;points=[[0,0.5],[1,0.5]];portConstraint=eastwest;rounded=0;shadow=0;html=0;" parent="aSgMHRb1zKFTXldxdmWt-59" vertex="1">
          <mxGeometry y="260" width="190" height="26" as="geometry" />
        </mxCell>
        <mxCell id="h0GC7bV9k8jez8_o-PCf-102" value="COD_AGRESSO" style="text;align=left;verticalAlign=top;spacingLeft=4;spacingRight=4;overflow=hidden;rotatable=0;points=[[0,0.5],[1,0.5]];portConstraint=eastwest;rounded=0;shadow=0;html=0;" vertex="1" parent="aSgMHRb1zKFTXldxdmWt-59">
          <mxGeometry y="286" width="190" height="26" as="geometry" />
        </mxCell>
        <mxCell id="aSgMHRb1zKFTXldxdmWt-65" style="edgeStyle=orthogonalEdgeStyle;rounded=0;orthogonalLoop=1;jettySize=auto;html=1;" parent="WIyWlLk6GJQsqaUBKTNV-1" source="aSgMHRb1zKFTXldxdmWt-58" target="aSgMHRb1zKFTXldxdmWt-59" edge="1">
          <mxGeometry relative="1" as="geometry">
            <Array as="points">
              <mxPoint x="3213" y="-553" />
              <mxPoint x="3213" y="-553" />
            </Array>
          </mxGeometry>
        </mxCell>
        <mxCell id="aSgMHRb1zKFTXldxdmWt-66" value="SUB MISION" style="swimlane;fontStyle=2;align=center;verticalAlign=top;childLayout=stackLayout;horizontal=1;startSize=26;horizontalStack=0;resizeParent=1;resizeLast=0;collapsible=1;marginBottom=0;rounded=0;shadow=0;strokeWidth=1;fillColor=#dae8fc;strokeColor=#6c8ebf;" parent="WIyWlLk6GJQsqaUBKTNV-1" vertex="1">
          <mxGeometry x="3108" y="-110" width="190" height="182" as="geometry">
            <mxRectangle x="230" y="140" width="160" height="26" as="alternateBounds" />
          </mxGeometry>
        </mxCell>
        <mxCell id="aSgMHRb1zKFTXldxdmWt-67" value="ID" style="text;align=left;verticalAlign=top;spacingLeft=4;spacingRight=4;overflow=hidden;rotatable=0;points=[[0,0.5],[1,0.5]];portConstraint=eastwest;" parent="aSgMHRb1zKFTXldxdmWt-66" vertex="1">
          <mxGeometry y="26" width="190" height="26" as="geometry" />
        </mxCell>
        <mxCell id="aSgMHRb1zKFTXldxdmWt-68" value="ID_MISION" style="text;align=left;verticalAlign=top;spacingLeft=4;spacingRight=4;overflow=hidden;rotatable=0;points=[[0,0.5],[1,0.5]];portConstraint=eastwest;fillColor=#fff2cc;strokeColor=#d6b656;" parent="aSgMHRb1zKFTXldxdmWt-66" vertex="1">
          <mxGeometry y="52" width="190" height="26" as="geometry" />
        </mxCell>
        <mxCell id="aSgMHRb1zKFTXldxdmWt-69" value="NOMBRE" style="text;align=left;verticalAlign=top;spacingLeft=4;spacingRight=4;overflow=hidden;rotatable=0;points=[[0,0.5],[1,0.5]];portConstraint=eastwest;rounded=0;shadow=0;html=0;" parent="aSgMHRb1zKFTXldxdmWt-66" vertex="1">
          <mxGeometry y="78" width="190" height="26" as="geometry" />
        </mxCell>
        <mxCell id="aSgMHRb1zKFTXldxdmWt-70" value="DESCRIPCION" style="text;align=left;verticalAlign=top;spacingLeft=4;spacingRight=4;overflow=hidden;rotatable=0;points=[[0,0.5],[1,0.5]];portConstraint=eastwest;rounded=0;shadow=0;html=0;" parent="aSgMHRb1zKFTXldxdmWt-66" vertex="1">
          <mxGeometry y="104" width="190" height="26" as="geometry" />
        </mxCell>
        <mxCell id="w3GR32y07PW2-ju8I6YQ-26" value="CODIGO" style="text;align=left;verticalAlign=top;spacingLeft=4;spacingRight=4;overflow=hidden;rotatable=0;points=[[0,0.5],[1,0.5]];portConstraint=eastwest;rounded=0;shadow=0;html=0;" parent="aSgMHRb1zKFTXldxdmWt-66" vertex="1">
          <mxGeometry y="130" width="190" height="26" as="geometry" />
        </mxCell>
        <mxCell id="aSgMHRb1zKFTXldxdmWt-71" value="ACTIVE" style="text;align=left;verticalAlign=top;spacingLeft=4;spacingRight=4;overflow=hidden;rotatable=0;points=[[0,0.5],[1,0.5]];portConstraint=eastwest;rounded=0;shadow=0;html=0;" parent="aSgMHRb1zKFTXldxdmWt-66" vertex="1">
          <mxGeometry y="156" width="190" height="26" as="geometry" />
        </mxCell>
        <mxCell id="aSgMHRb1zKFTXldxdmWt-74" value="USUARIOS" style="swimlane;fontStyle=2;align=center;verticalAlign=top;childLayout=stackLayout;horizontal=1;startSize=26;horizontalStack=0;resizeParent=1;resizeLast=0;collapsible=1;marginBottom=0;rounded=0;shadow=0;strokeWidth=1;fillColor=#dae8fc;strokeColor=#6c8ebf;" parent="WIyWlLk6GJQsqaUBKTNV-1" vertex="1">
          <mxGeometry x="4650" y="-170" width="190" height="450" as="geometry">
            <mxRectangle x="230" y="140" width="160" height="26" as="alternateBounds" />
          </mxGeometry>
        </mxCell>
        <mxCell id="aSgMHRb1zKFTXldxdmWt-75" value="ID" style="text;align=left;verticalAlign=top;spacingLeft=4;spacingRight=4;overflow=hidden;rotatable=0;points=[[0,0.5],[1,0.5]];portConstraint=eastwest;" parent="aSgMHRb1zKFTXldxdmWt-74" vertex="1">
          <mxGeometry y="26" width="190" height="26" as="geometry" />
        </mxCell>
        <mxCell id="aSgMHRb1zKFTXldxdmWt-76" value="FIRST NAME" style="text;align=left;verticalAlign=top;spacingLeft=4;spacingRight=4;overflow=hidden;rotatable=0;points=[[0,0.5],[1,0.5]];portConstraint=eastwest;rounded=0;shadow=0;html=0;" parent="aSgMHRb1zKFTXldxdmWt-74" vertex="1">
          <mxGeometry y="52" width="190" height="26" as="geometry" />
        </mxCell>
        <mxCell id="aSgMHRb1zKFTXldxdmWt-77" value="LAST NAME" style="text;align=left;verticalAlign=top;spacingLeft=4;spacingRight=4;overflow=hidden;rotatable=0;points=[[0,0.5],[1,0.5]];portConstraint=eastwest;rounded=0;shadow=0;html=0;" parent="aSgMHRb1zKFTXldxdmWt-74" vertex="1">
          <mxGeometry y="78" width="190" height="26" as="geometry" />
        </mxCell>
        <mxCell id="aSgMHRb1zKFTXldxdmWt-78" value="DATE JOINED" style="text;align=left;verticalAlign=top;spacingLeft=4;spacingRight=4;overflow=hidden;rotatable=0;points=[[0,0.5],[1,0.5]];portConstraint=eastwest;rounded=0;shadow=0;html=0;" parent="aSgMHRb1zKFTXldxdmWt-74" vertex="1">
          <mxGeometry y="104" width="190" height="26" as="geometry" />
        </mxCell>
        <mxCell id="aSgMHRb1zKFTXldxdmWt-79" value="N_AGRESSO" style="text;align=left;verticalAlign=top;spacingLeft=4;spacingRight=4;overflow=hidden;rotatable=0;points=[[0,0.5],[1,0.5]];portConstraint=eastwest;rounded=0;shadow=0;html=0;" parent="aSgMHRb1zKFTXldxdmWt-74" vertex="1">
          <mxGeometry y="130" width="190" height="26" as="geometry" />
        </mxCell>
        <mxCell id="aSgMHRb1zKFTXldxdmWt-80" value="TELEFONO" style="text;align=left;verticalAlign=top;spacingLeft=4;spacingRight=4;overflow=hidden;rotatable=0;points=[[0,0.5],[1,0.5]];portConstraint=eastwest;rounded=0;shadow=0;html=0;" parent="aSgMHRb1zKFTXldxdmWt-74" vertex="1">
          <mxGeometry y="156" width="190" height="26" as="geometry" />
        </mxCell>
        <mxCell id="aSgMHRb1zKFTXldxdmWt-81" value="ROL" style="text;align=left;verticalAlign=top;spacingLeft=4;spacingRight=4;overflow=hidden;rotatable=0;points=[[0,0.5],[1,0.5]];portConstraint=eastwest;rounded=0;shadow=0;html=0;" parent="aSgMHRb1zKFTXldxdmWt-74" vertex="1">
          <mxGeometry y="182" width="190" height="26" as="geometry" />
        </mxCell>
        <mxCell id="aSgMHRb1zKFTXldxdmWt-82" value="ORGANIZACION" style="text;align=left;verticalAlign=top;spacingLeft=4;spacingRight=4;overflow=hidden;rotatable=0;points=[[0,0.5],[1,0.5]];portConstraint=eastwest;rounded=0;shadow=0;html=0;" parent="aSgMHRb1zKFTXldxdmWt-74" vertex="1">
          <mxGeometry y="208" width="190" height="26" as="geometry" />
        </mxCell>
        <mxCell id="aSgMHRb1zKFTXldxdmWt-83" value="EMAIL" style="text;align=left;verticalAlign=top;spacingLeft=4;spacingRight=4;overflow=hidden;rotatable=0;points=[[0,0.5],[1,0.5]];portConstraint=eastwest;rounded=0;shadow=0;html=0;" parent="aSgMHRb1zKFTXldxdmWt-74" vertex="1">
          <mxGeometry y="234" width="190" height="26" as="geometry" />
        </mxCell>
        <mxCell id="aSgMHRb1zKFTXldxdmWt-84" value="LAST NAME" style="text;align=left;verticalAlign=top;spacingLeft=4;spacingRight=4;overflow=hidden;rotatable=0;points=[[0,0.5],[1,0.5]];portConstraint=eastwest;rounded=0;shadow=0;html=0;" parent="aSgMHRb1zKFTXldxdmWt-74" vertex="1">
          <mxGeometry y="260" width="190" height="26" as="geometry" />
        </mxCell>
        <mxCell id="aSgMHRb1zKFTXldxdmWt-264" value="WPPREDEF" style="text;align=left;verticalAlign=top;spacingLeft=4;spacingRight=4;overflow=hidden;rotatable=0;points=[[0,0.5],[1,0.5]];portConstraint=eastwest;rounded=0;shadow=0;html=0;" parent="aSgMHRb1zKFTXldxdmWt-74" vertex="1">
          <mxGeometry y="286" width="190" height="26" as="geometry" />
        </mxCell>
        <mxCell id="w3GR32y07PW2-ju8I6YQ-1" value="MISIONPREDEF" style="text;align=left;verticalAlign=top;spacingLeft=4;spacingRight=4;overflow=hidden;rotatable=0;points=[[0,0.5],[1,0.5]];portConstraint=eastwest;rounded=0;shadow=0;html=0;" parent="aSgMHRb1zKFTXldxdmWt-74" vertex="1">
          <mxGeometry y="312" width="190" height="26" as="geometry" />
        </mxCell>
        <mxCell id="aSgMHRb1zKFTXldxdmWt-85" value="LAST LOGIN" style="text;align=left;verticalAlign=top;spacingLeft=4;spacingRight=4;overflow=hidden;rotatable=0;points=[[0,0.5],[1,0.5]];portConstraint=eastwest;rounded=0;shadow=0;html=0;" parent="aSgMHRb1zKFTXldxdmWt-74" vertex="1">
          <mxGeometry y="338" width="190" height="26" as="geometry" />
        </mxCell>
        <mxCell id="aSgMHRb1zKFTXldxdmWt-261" value="SUPERUSER STATUS" style="text;align=left;verticalAlign=top;spacingLeft=4;spacingRight=4;overflow=hidden;rotatable=0;points=[[0,0.5],[1,0.5]];portConstraint=eastwest;rounded=0;shadow=0;html=0;" parent="aSgMHRb1zKFTXldxdmWt-74" vertex="1">
          <mxGeometry y="364" width="190" height="26" as="geometry" />
        </mxCell>
        <mxCell id="w3GR32y07PW2-ju8I6YQ-0" value="ACTIVE" style="text;align=left;verticalAlign=top;spacingLeft=4;spacingRight=4;overflow=hidden;rotatable=0;points=[[0,0.5],[1,0.5]];portConstraint=eastwest;rounded=0;shadow=0;html=0;" parent="aSgMHRb1zKFTXldxdmWt-74" vertex="1">
          <mxGeometry y="390" width="190" height="26" as="geometry" />
        </mxCell>
        <mxCell id="aSgMHRb1zKFTXldxdmWt-262" value="STAFF STATUS" style="text;align=left;verticalAlign=top;spacingLeft=4;spacingRight=4;overflow=hidden;rotatable=0;points=[[0,0.5],[1,0.5]];portConstraint=eastwest;rounded=0;shadow=0;html=0;" parent="aSgMHRb1zKFTXldxdmWt-74" vertex="1">
          <mxGeometry y="416" width="190" height="26" as="geometry" />
        </mxCell>
        <mxCell id="aSgMHRb1zKFTXldxdmWt-92" value="N:N" style="rhombus;whiteSpace=wrap;html=1;" parent="WIyWlLk6GJQsqaUBKTNV-1" vertex="1">
          <mxGeometry x="3970" y="-80.00000000000001" width="80" height="80" as="geometry" />
        </mxCell>
        <mxCell id="aSgMHRb1zKFTXldxdmWt-93" style="rounded=0;orthogonalLoop=1;jettySize=auto;html=1;entryX=0;entryY=0.5;entryDx=0;entryDy=0;dashed=1;endArrow=none;endFill=0;exitX=0.937;exitY=0.637;exitDx=0;exitDy=0;exitPerimeter=0;" parent="WIyWlLk6GJQsqaUBKTNV-1" source="aSgMHRb1zKFTXldxdmWt-70" target="aSgMHRb1zKFTXldxdmWt-92" edge="1">
          <mxGeometry relative="1" as="geometry">
            <mxPoint x="4260.91" y="-300.0000000000002" as="sourcePoint" />
          </mxGeometry>
        </mxCell>
        <mxCell id="aSgMHRb1zKFTXldxdmWt-95" value="CONTRACTUSER" style="swimlane;fontStyle=2;align=center;verticalAlign=top;childLayout=stackLayout;horizontal=1;startSize=26;horizontalStack=0;resizeParent=1;resizeLast=0;collapsible=1;marginBottom=0;rounded=0;shadow=0;strokeWidth=1;fillColor=#dae8fc;strokeColor=#6c8ebf;" parent="WIyWlLk6GJQsqaUBKTNV-1" vertex="1">
          <mxGeometry x="4230" y="-240" width="190" height="130" as="geometry">
            <mxRectangle x="230" y="140" width="160" height="26" as="alternateBounds" />
          </mxGeometry>
        </mxCell>
        <mxCell id="aSgMHRb1zKFTXldxdmWt-96" value="ID_USER" style="text;align=left;verticalAlign=top;spacingLeft=4;spacingRight=4;overflow=hidden;rotatable=0;points=[[0,0.5],[1,0.5]];portConstraint=eastwest;fillColor=#fff2cc;strokeColor=#d6b656;" parent="aSgMHRb1zKFTXldxdmWt-95" vertex="1">
          <mxGeometry y="26" width="190" height="26" as="geometry" />
        </mxCell>
        <mxCell id="aSgMHRb1zKFTXldxdmWt-97" value="ID_SUBMISION" style="text;align=left;verticalAlign=top;spacingLeft=4;spacingRight=4;overflow=hidden;rotatable=0;points=[[0,0.5],[1,0.5]];portConstraint=eastwest;fillColor=#fff2cc;strokeColor=#d6b656;" parent="aSgMHRb1zKFTXldxdmWt-95" vertex="1">
          <mxGeometry y="52" width="190" height="26" as="geometry" />
        </mxCell>
        <mxCell id="aSgMHRb1zKFTXldxdmWt-98" value="ROL_CONTRATO" style="text;align=left;verticalAlign=top;spacingLeft=4;spacingRight=4;overflow=hidden;rotatable=0;points=[[0,0.5],[1,0.5]];portConstraint=eastwest;rounded=0;shadow=0;html=0;" parent="aSgMHRb1zKFTXldxdmWt-95" vertex="1">
          <mxGeometry y="78" width="190" height="26" as="geometry" />
        </mxCell>
        <mxCell id="BKEtO_gzMW31352du1K6-39" value="JOB" style="text;align=left;verticalAlign=top;spacingLeft=4;spacingRight=4;overflow=hidden;rotatable=0;points=[[0,0.5],[1,0.5]];portConstraint=eastwest;rounded=0;shadow=0;html=0;fillColor=#fff2cc;strokeColor=#d6b656;" parent="aSgMHRb1zKFTXldxdmWt-95" vertex="1">
          <mxGeometry y="104" width="190" height="26" as="geometry" />
        </mxCell>
        <mxCell id="aSgMHRb1zKFTXldxdmWt-145" style="edgeStyle=elbowEdgeStyle;rounded=0;orthogonalLoop=1;jettySize=auto;html=1;exitX=0.5;exitY=1;exitDx=0;exitDy=0;entryX=0;entryY=0.5;entryDx=0;entryDy=0;dashed=1;startArrow=none;startFill=0;endArrow=none;endFill=0;" parent="WIyWlLk6GJQsqaUBKTNV-1" source="aSgMHRb1zKFTXldxdmWt-92" target="aSgMHRb1zKFTXldxdmWt-81" edge="1">
          <mxGeometry relative="1" as="geometry">
            <mxPoint x="4313" y="-185.99" as="sourcePoint" />
            <mxPoint x="4745" y="-556.99" as="targetPoint" />
            <Array as="points" />
          </mxGeometry>
        </mxCell>
        <mxCell id="aSgMHRb1zKFTXldxdmWt-146" value="" style="group" parent="WIyWlLk6GJQsqaUBKTNV-1" vertex="1" connectable="0">
          <mxGeometry x="4000" y="-1730" width="900" height="630" as="geometry" />
        </mxCell>
        <mxCell id="aSgMHRb1zKFTXldxdmWt-141" value="" style="rounded=1;whiteSpace=wrap;html=1;" parent="aSgMHRb1zKFTXldxdmWt-146" vertex="1">
          <mxGeometry width="900" height="630" as="geometry" />
        </mxCell>
        <mxCell id="aSgMHRb1zKFTXldxdmWt-104" value="RISK MANAGEMENT&#xa;" style="swimlane;fontStyle=2;align=center;verticalAlign=top;childLayout=stackLayout;horizontal=1;startSize=26;horizontalStack=0;resizeParent=1;resizeLast=0;collapsible=1;marginBottom=0;rounded=0;shadow=0;strokeWidth=1;fillColor=#dae8fc;strokeColor=#6c8ebf;" parent="aSgMHRb1zKFTXldxdmWt-146" vertex="1">
          <mxGeometry x="70" y="60" width="200" height="220" as="geometry">
            <mxRectangle x="230" y="140" width="160" height="26" as="alternateBounds" />
          </mxGeometry>
        </mxCell>
        <mxCell id="aSgMHRb1zKFTXldxdmWt-105" value="ID" style="text;align=left;verticalAlign=top;spacingLeft=4;spacingRight=4;overflow=hidden;rotatable=0;points=[[0,0.5],[1,0.5]];portConstraint=eastwest;" parent="aSgMHRb1zKFTXldxdmWt-104" vertex="1">
          <mxGeometry y="26" width="200" height="26" as="geometry" />
        </mxCell>
        <mxCell id="aSgMHRb1zKFTXldxdmWt-107" value="TITULO" style="text;align=left;verticalAlign=top;spacingLeft=4;spacingRight=4;overflow=hidden;rotatable=0;points=[[0,0.5],[1,0.5]];portConstraint=eastwest;rounded=0;shadow=0;html=0;" parent="aSgMHRb1zKFTXldxdmWt-104" vertex="1">
          <mxGeometry y="52" width="200" height="30" as="geometry" />
        </mxCell>
        <mxCell id="aSgMHRb1zKFTXldxdmWt-108" value="CODE" style="text;align=left;verticalAlign=top;spacingLeft=4;spacingRight=4;overflow=hidden;rotatable=0;points=[[0,0.5],[1,0.5]];portConstraint=eastwest;" parent="aSgMHRb1zKFTXldxdmWt-104" vertex="1">
          <mxGeometry y="82" width="200" height="26" as="geometry" />
        </mxCell>
        <mxCell id="aSgMHRb1zKFTXldxdmWt-109" value="MANAGER" style="text;align=left;verticalAlign=top;spacingLeft=4;spacingRight=4;overflow=hidden;rotatable=0;points=[[0,0.5],[1,0.5]];portConstraint=eastwest;fillColor=#fff2cc;strokeColor=#d6b656;" parent="aSgMHRb1zKFTXldxdmWt-104" vertex="1">
          <mxGeometry y="108" width="200" height="26" as="geometry" />
        </mxCell>
        <mxCell id="aSgMHRb1zKFTXldxdmWt-110" value="MEMBER" style="text;align=left;verticalAlign=top;spacingLeft=4;spacingRight=4;overflow=hidden;rotatable=0;points=[[0,0.5],[1,0.5]];portConstraint=eastwest;fillColor=#fff2cc;strokeColor=#d6b656;" parent="aSgMHRb1zKFTXldxdmWt-104" vertex="1">
          <mxGeometry y="134" width="200" height="26" as="geometry" />
        </mxCell>
        <mxCell id="aSgMHRb1zKFTXldxdmWt-111" value="MISION" style="text;align=left;verticalAlign=top;spacingLeft=4;spacingRight=4;overflow=hidden;rotatable=0;points=[[0,0.5],[1,0.5]];portConstraint=eastwest;" parent="aSgMHRb1zKFTXldxdmWt-104" vertex="1">
          <mxGeometry y="160" width="200" height="26" as="geometry" />
        </mxCell>
        <mxCell id="BKEtO_gzMW31352du1K6-49" value="ACTIVO" style="text;align=left;verticalAlign=top;spacingLeft=4;spacingRight=4;overflow=hidden;rotatable=0;points=[[0,0.5],[1,0.5]];portConstraint=eastwest;" parent="aSgMHRb1zKFTXldxdmWt-104" vertex="1">
          <mxGeometry y="186" width="200" height="26" as="geometry" />
        </mxCell>
        <mxCell id="aSgMHRb1zKFTXldxdmWt-113" value="RM_REGISTROS" style="swimlane;fontStyle=2;align=center;verticalAlign=top;childLayout=stackLayout;horizontal=1;startSize=26;horizontalStack=0;resizeParent=1;resizeLast=0;collapsible=1;marginBottom=0;rounded=0;shadow=0;strokeWidth=1;fillColor=#dae8fc;strokeColor=#6c8ebf;" parent="aSgMHRb1zKFTXldxdmWt-146" vertex="1">
          <mxGeometry x="340" y="60" width="200" height="552" as="geometry">
            <mxRectangle x="230" y="140" width="160" height="26" as="alternateBounds" />
          </mxGeometry>
        </mxCell>
        <mxCell id="aSgMHRb1zKFTXldxdmWt-114" value="ID" style="text;align=left;verticalAlign=top;spacingLeft=4;spacingRight=4;overflow=hidden;rotatable=0;points=[[0,0.5],[1,0.5]];portConstraint=eastwest;" parent="aSgMHRb1zKFTXldxdmWt-113" vertex="1">
          <mxGeometry y="26" width="200" height="26" as="geometry" />
        </mxCell>
        <mxCell id="aSgMHRb1zKFTXldxdmWt-115" value="ID RISK MANAGEMENT" style="text;align=left;verticalAlign=top;spacingLeft=4;spacingRight=4;overflow=hidden;rotatable=0;points=[[0,0.5],[1,0.5]];portConstraint=eastwest;rounded=0;shadow=0;html=0;fillColor=#fff2cc;strokeColor=#d6b656;" parent="aSgMHRb1zKFTXldxdmWt-113" vertex="1">
          <mxGeometry y="52" width="200" height="28" as="geometry" />
        </mxCell>
        <mxCell id="aSgMHRb1zKFTXldxdmWt-116" value="RIESGO" style="text;align=left;verticalAlign=top;spacingLeft=4;spacingRight=4;overflow=hidden;rotatable=0;points=[[0,0.5],[1,0.5]];portConstraint=eastwest;rounded=0;shadow=0;html=0;" parent="aSgMHRb1zKFTXldxdmWt-113" vertex="1">
          <mxGeometry y="80" width="200" height="30" as="geometry" />
        </mxCell>
        <mxCell id="aSgMHRb1zKFTXldxdmWt-266" value="TIPO" style="text;align=left;verticalAlign=top;spacingLeft=4;spacingRight=4;overflow=hidden;rotatable=0;points=[[0,0.5],[1,0.5]];portConstraint=eastwest;" parent="aSgMHRb1zKFTXldxdmWt-113" vertex="1">
          <mxGeometry y="110" width="200" height="26" as="geometry" />
        </mxCell>
        <mxCell id="aSgMHRb1zKFTXldxdmWt-118" value="EFECTO_FALLO" style="text;align=left;verticalAlign=top;spacingLeft=4;spacingRight=4;overflow=hidden;rotatable=0;points=[[0,0.5],[1,0.5]];portConstraint=eastwest;" parent="aSgMHRb1zKFTXldxdmWt-113" vertex="1">
          <mxGeometry y="136" width="200" height="26" as="geometry" />
        </mxCell>
        <mxCell id="aSgMHRb1zKFTXldxdmWt-119" value="CAUSA_FALLO" style="text;align=left;verticalAlign=top;spacingLeft=4;spacingRight=4;overflow=hidden;rotatable=0;points=[[0,0.5],[1,0.5]];portConstraint=eastwest;" parent="aSgMHRb1zKFTXldxdmWt-113" vertex="1">
          <mxGeometry y="162" width="200" height="26" as="geometry" />
        </mxCell>
        <mxCell id="aSgMHRb1zKFTXldxdmWt-120" value="CONTROLES_ACTUALES" style="text;align=left;verticalAlign=top;spacingLeft=4;spacingRight=4;overflow=hidden;rotatable=0;points=[[0,0.5],[1,0.5]];portConstraint=eastwest;" parent="aSgMHRb1zKFTXldxdmWt-113" vertex="1">
          <mxGeometry y="188" width="200" height="26" as="geometry" />
        </mxCell>
        <mxCell id="aSgMHRb1zKFTXldxdmWt-121" value="GRAVEDAD" style="text;align=left;verticalAlign=top;spacingLeft=4;spacingRight=4;overflow=hidden;rotatable=0;points=[[0,0.5],[1,0.5]];portConstraint=eastwest;" parent="aSgMHRb1zKFTXldxdmWt-113" vertex="1">
          <mxGeometry y="214" width="200" height="26" as="geometry" />
        </mxCell>
        <mxCell id="aSgMHRb1zKFTXldxdmWt-122" value="OCURRENCIA" style="text;align=left;verticalAlign=top;spacingLeft=4;spacingRight=4;overflow=hidden;rotatable=0;points=[[0,0.5],[1,0.5]];portConstraint=eastwest;" parent="aSgMHRb1zKFTXldxdmWt-113" vertex="1">
          <mxGeometry y="240" width="200" height="26" as="geometry" />
        </mxCell>
        <mxCell id="aSgMHRb1zKFTXldxdmWt-123" value="DETECCION" style="text;align=left;verticalAlign=top;spacingLeft=4;spacingRight=4;overflow=hidden;rotatable=0;points=[[0,0.5],[1,0.5]];portConstraint=eastwest;" parent="aSgMHRb1zKFTXldxdmWt-113" vertex="1">
          <mxGeometry y="266" width="200" height="26" as="geometry" />
        </mxCell>
        <mxCell id="aSgMHRb1zKFTXldxdmWt-124" value="NPR" style="text;align=left;verticalAlign=top;spacingLeft=4;spacingRight=4;overflow=hidden;rotatable=0;points=[[0,0.5],[1,0.5]];portConstraint=eastwest;" parent="aSgMHRb1zKFTXldxdmWt-113" vertex="1">
          <mxGeometry y="292" width="200" height="26" as="geometry" />
        </mxCell>
        <mxCell id="aSgMHRb1zKFTXldxdmWt-125" value="PRIORIZACION" style="text;align=left;verticalAlign=top;spacingLeft=4;spacingRight=4;overflow=hidden;rotatable=0;points=[[0,0.5],[1,0.5]];portConstraint=eastwest;" parent="aSgMHRb1zKFTXldxdmWt-113" vertex="1">
          <mxGeometry y="318" width="200" height="26" as="geometry" />
        </mxCell>
        <mxCell id="aSgMHRb1zKFTXldxdmWt-126" value="OBSERVACIONES" style="text;align=left;verticalAlign=top;spacingLeft=4;spacingRight=4;overflow=hidden;rotatable=0;points=[[0,0.5],[1,0.5]];portConstraint=eastwest;" parent="aSgMHRb1zKFTXldxdmWt-113" vertex="1">
          <mxGeometry y="344" width="200" height="26" as="geometry" />
        </mxCell>
        <mxCell id="aSgMHRb1zKFTXldxdmWt-267" value="F_DETECCION" style="text;align=left;verticalAlign=top;spacingLeft=4;spacingRight=4;overflow=hidden;rotatable=0;points=[[0,0.5],[1,0.5]];portConstraint=eastwest;" parent="aSgMHRb1zKFTXldxdmWt-113" vertex="1">
          <mxGeometry y="370" width="200" height="26" as="geometry" />
        </mxCell>
        <mxCell id="aSgMHRb1zKFTXldxdmWt-117" value="REVISION" style="text;align=left;verticalAlign=top;spacingLeft=4;spacingRight=4;overflow=hidden;rotatable=0;points=[[0,0.5],[1,0.5]];portConstraint=eastwest;" parent="aSgMHRb1zKFTXldxdmWt-113" vertex="1">
          <mxGeometry y="396" width="200" height="26" as="geometry" />
        </mxCell>
        <mxCell id="aSgMHRb1zKFTXldxdmWt-269" value="CERRADO" style="text;align=left;verticalAlign=top;spacingLeft=4;spacingRight=4;overflow=hidden;rotatable=0;points=[[0,0.5],[1,0.5]];portConstraint=eastwest;" parent="aSgMHRb1zKFTXldxdmWt-113" vertex="1">
          <mxGeometry y="422" width="200" height="26" as="geometry" />
        </mxCell>
        <mxCell id="BKEtO_gzMW31352du1K6-52" value="CATEGORIZACION" style="text;align=left;verticalAlign=top;spacingLeft=4;spacingRight=4;overflow=hidden;rotatable=0;points=[[0,0.5],[1,0.5]];portConstraint=eastwest;fillColor=#fff2cc;strokeColor=#d6b656;" parent="aSgMHRb1zKFTXldxdmWt-113" vertex="1">
          <mxGeometry y="448" width="200" height="26" as="geometry" />
        </mxCell>
        <mxCell id="BKEtO_gzMW31352du1K6-51" value="SITE" style="text;align=left;verticalAlign=top;spacingLeft=4;spacingRight=4;overflow=hidden;rotatable=0;points=[[0,0.5],[1,0.5]];portConstraint=eastwest;fillColor=#fff2cc;strokeColor=#d6b656;" parent="aSgMHRb1zKFTXldxdmWt-113" vertex="1">
          <mxGeometry y="474" width="200" height="26" as="geometry" />
        </mxCell>
        <mxCell id="BKEtO_gzMW31352du1K6-50" value="PADRE RISK OPORTUNITY" style="text;align=left;verticalAlign=top;spacingLeft=4;spacingRight=4;overflow=hidden;rotatable=0;points=[[0,0.5],[1,0.5]];portConstraint=eastwest;" parent="aSgMHRb1zKFTXldxdmWt-113" vertex="1">
          <mxGeometry y="500" width="200" height="26" as="geometry" />
        </mxCell>
        <mxCell id="aSgMHRb1zKFTXldxdmWt-268" value="ACTIVO" style="text;align=left;verticalAlign=top;spacingLeft=4;spacingRight=4;overflow=hidden;rotatable=0;points=[[0,0.5],[1,0.5]];portConstraint=eastwest;" parent="aSgMHRb1zKFTXldxdmWt-113" vertex="1">
          <mxGeometry y="526" width="200" height="26" as="geometry" />
        </mxCell>
        <mxCell id="aSgMHRb1zKFTXldxdmWt-127" value="RM_ACCIONES" style="swimlane;fontStyle=2;align=center;verticalAlign=top;childLayout=stackLayout;horizontal=1;startSize=26;horizontalStack=0;resizeParent=1;resizeLast=0;collapsible=1;marginBottom=0;rounded=0;shadow=0;strokeWidth=1;fillColor=#dae8fc;strokeColor=#6c8ebf;" parent="aSgMHRb1zKFTXldxdmWt-146" vertex="1">
          <mxGeometry x="601" y="60" width="200" height="280" as="geometry">
            <mxRectangle x="230" y="140" width="160" height="26" as="alternateBounds" />
          </mxGeometry>
        </mxCell>
        <mxCell id="aSgMHRb1zKFTXldxdmWt-128" value="ID" style="text;align=left;verticalAlign=top;spacingLeft=4;spacingRight=4;overflow=hidden;rotatable=0;points=[[0,0.5],[1,0.5]];portConstraint=eastwest;" parent="aSgMHRb1zKFTXldxdmWt-127" vertex="1">
          <mxGeometry y="26" width="200" height="26" as="geometry" />
        </mxCell>
        <mxCell id="aSgMHRb1zKFTXldxdmWt-129" value="ID REGISTRO" style="text;align=left;verticalAlign=top;spacingLeft=4;spacingRight=4;overflow=hidden;rotatable=0;points=[[0,0.5],[1,0.5]];portConstraint=eastwest;rounded=0;shadow=0;html=0;" parent="aSgMHRb1zKFTXldxdmWt-127" vertex="1">
          <mxGeometry y="52" width="200" height="28" as="geometry" />
        </mxCell>
        <mxCell id="aSgMHRb1zKFTXldxdmWt-130" value="PROPUESTA" style="text;align=left;verticalAlign=top;spacingLeft=4;spacingRight=4;overflow=hidden;rotatable=0;points=[[0,0.5],[1,0.5]];portConstraint=eastwest;rounded=0;shadow=0;html=0;" parent="aSgMHRb1zKFTXldxdmWt-127" vertex="1">
          <mxGeometry y="80" width="200" height="30" as="geometry" />
        </mxCell>
        <mxCell id="aSgMHRb1zKFTXldxdmWt-131" value="MANAGER" style="text;align=left;verticalAlign=top;spacingLeft=4;spacingRight=4;overflow=hidden;rotatable=0;points=[[0,0.5],[1,0.5]];portConstraint=eastwest;fillColor=#fff2cc;strokeColor=#d6b656;" parent="aSgMHRb1zKFTXldxdmWt-127" vertex="1">
          <mxGeometry y="110" width="200" height="26" as="geometry" />
        </mxCell>
        <mxCell id="aSgMHRb1zKFTXldxdmWt-133" value="F_PLANIFICADA" style="text;align=left;verticalAlign=top;spacingLeft=4;spacingRight=4;overflow=hidden;rotatable=0;points=[[0,0.5],[1,0.5]];portConstraint=eastwest;" parent="aSgMHRb1zKFTXldxdmWt-127" vertex="1">
          <mxGeometry y="136" width="200" height="26" as="geometry" />
        </mxCell>
        <mxCell id="aSgMHRb1zKFTXldxdmWt-134" value="F_CIERRE" style="text;align=left;verticalAlign=top;spacingLeft=4;spacingRight=4;overflow=hidden;rotatable=0;points=[[0,0.5],[1,0.5]];portConstraint=eastwest;" parent="aSgMHRb1zKFTXldxdmWt-127" vertex="1">
          <mxGeometry y="162" width="200" height="26" as="geometry" />
        </mxCell>
        <mxCell id="aSgMHRb1zKFTXldxdmWt-135" value="OBSERVACIONES" style="text;align=left;verticalAlign=top;spacingLeft=4;spacingRight=4;overflow=hidden;rotatable=0;points=[[0,0.5],[1,0.5]];portConstraint=eastwest;" parent="aSgMHRb1zKFTXldxdmWt-127" vertex="1">
          <mxGeometry y="188" width="200" height="26" as="geometry" />
        </mxCell>
        <mxCell id="aSgMHRb1zKFTXldxdmWt-136" value="REVISION" style="text;align=left;verticalAlign=top;spacingLeft=4;spacingRight=4;overflow=hidden;rotatable=0;points=[[0,0.5],[1,0.5]];portConstraint=eastwest;" parent="aSgMHRb1zKFTXldxdmWt-127" vertex="1">
          <mxGeometry y="214" width="200" height="26" as="geometry" />
        </mxCell>
        <mxCell id="aSgMHRb1zKFTXldxdmWt-137" value="COMPLETADO" style="text;align=left;verticalAlign=top;spacingLeft=4;spacingRight=4;overflow=hidden;rotatable=0;points=[[0,0.5],[1,0.5]];portConstraint=eastwest;" parent="aSgMHRb1zKFTXldxdmWt-127" vertex="1">
          <mxGeometry y="240" width="200" height="26" as="geometry" />
        </mxCell>
        <mxCell id="aSgMHRb1zKFTXldxdmWt-142" value="&lt;font style=&quot;font-size: 22px;&quot;&gt;MODULO RISK MANAGMENT&lt;/font&gt;" style="text;html=1;strokeColor=none;fillColor=none;align=center;verticalAlign=middle;whiteSpace=wrap;rounded=0;" parent="aSgMHRb1zKFTXldxdmWt-146" vertex="1">
          <mxGeometry x="230" y="20" width="430" height="30" as="geometry" />
        </mxCell>
        <mxCell id="aSgMHRb1zKFTXldxdmWt-103" value="" style="edgeStyle=orthogonalEdgeStyle;rounded=0;orthogonalLoop=1;jettySize=auto;html=1;endArrow=none;endFill=0;exitX=1;exitY=0.5;exitDx=0;exitDy=0;" parent="aSgMHRb1zKFTXldxdmWt-146" target="aSgMHRb1zKFTXldxdmWt-115" edge="1">
          <mxGeometry relative="1" as="geometry">
            <mxPoint x="270" y="126" as="sourcePoint" />
          </mxGeometry>
        </mxCell>
        <mxCell id="aSgMHRb1zKFTXldxdmWt-112" value="" style="edgeStyle=orthogonalEdgeStyle;rounded=0;orthogonalLoop=1;jettySize=auto;html=1;endArrow=none;endFill=0;exitX=1;exitY=0.5;exitDx=0;exitDy=0;" parent="aSgMHRb1zKFTXldxdmWt-146" source="aSgMHRb1zKFTXldxdmWt-115" target="aSgMHRb1zKFTXldxdmWt-129" edge="1">
          <mxGeometry relative="1" as="geometry" />
        </mxCell>
        <mxCell id="w3GR32y07PW2-ju8I6YQ-78" value="LOGRISK" style="swimlane;fontStyle=2;align=center;verticalAlign=top;childLayout=stackLayout;horizontal=1;startSize=26;horizontalStack=0;resizeParent=1;resizeLast=0;collapsible=1;marginBottom=0;rounded=0;shadow=0;strokeWidth=1;fillColor=#dae8fc;strokeColor=#6c8ebf;" parent="aSgMHRb1zKFTXldxdmWt-146" vertex="1">
          <mxGeometry x="70" y="320" width="200" height="280" as="geometry">
            <mxRectangle x="230" y="140" width="160" height="26" as="alternateBounds" />
          </mxGeometry>
        </mxCell>
        <mxCell id="w3GR32y07PW2-ju8I6YQ-79" value="ID" style="text;align=left;verticalAlign=top;spacingLeft=4;spacingRight=4;overflow=hidden;rotatable=0;points=[[0,0.5],[1,0.5]];portConstraint=eastwest;" parent="w3GR32y07PW2-ju8I6YQ-78" vertex="1">
          <mxGeometry y="26" width="200" height="26" as="geometry" />
        </mxCell>
        <mxCell id="w3GR32y07PW2-ju8I6YQ-80" value="PERSONA" style="text;align=left;verticalAlign=top;spacingLeft=4;spacingRight=4;overflow=hidden;rotatable=0;points=[[0,0.5],[1,0.5]];portConstraint=eastwest;rounded=0;shadow=0;html=0;fillColor=#fff2cc;strokeColor=#d6b656;" parent="w3GR32y07PW2-ju8I6YQ-78" vertex="1">
          <mxGeometry y="52" width="200" height="28" as="geometry" />
        </mxCell>
        <mxCell id="w3GR32y07PW2-ju8I6YQ-81" value="FECHA" style="text;align=left;verticalAlign=top;spacingLeft=4;spacingRight=4;overflow=hidden;rotatable=0;points=[[0,0.5],[1,0.5]];portConstraint=eastwest;rounded=0;shadow=0;html=0;" parent="w3GR32y07PW2-ju8I6YQ-78" vertex="1">
          <mxGeometry y="80" width="200" height="30" as="geometry" />
        </mxCell>
        <mxCell id="w3GR32y07PW2-ju8I6YQ-82" value="HORA" style="text;align=left;verticalAlign=top;spacingLeft=4;spacingRight=4;overflow=hidden;rotatable=0;points=[[0,0.5],[1,0.5]];portConstraint=eastwest;" parent="w3GR32y07PW2-ju8I6YQ-78" vertex="1">
          <mxGeometry y="110" width="200" height="26" as="geometry" />
        </mxCell>
        <mxCell id="w3GR32y07PW2-ju8I6YQ-83" value="ACCION" style="text;align=left;verticalAlign=top;spacingLeft=4;spacingRight=4;overflow=hidden;rotatable=0;points=[[0,0.5],[1,0.5]];portConstraint=eastwest;" parent="w3GR32y07PW2-ju8I6YQ-78" vertex="1">
          <mxGeometry y="136" width="200" height="26" as="geometry" />
        </mxCell>
        <mxCell id="w3GR32y07PW2-ju8I6YQ-84" value="AMFE_RELACIONADA" style="text;align=left;verticalAlign=top;spacingLeft=4;spacingRight=4;overflow=hidden;rotatable=0;points=[[0,0.5],[1,0.5]];portConstraint=eastwest;fillColor=#fff2cc;strokeColor=#d6b656;" parent="w3GR32y07PW2-ju8I6YQ-78" vertex="1">
          <mxGeometry y="162" width="200" height="26" as="geometry" />
        </mxCell>
        <mxCell id="w3GR32y07PW2-ju8I6YQ-85" value="R&amp;O_RELACIONADA" style="text;align=left;verticalAlign=top;spacingLeft=4;spacingRight=4;overflow=hidden;rotatable=0;points=[[0,0.5],[1,0.5]];portConstraint=eastwest;fillColor=#fff2cc;strokeColor=#d6b656;" parent="w3GR32y07PW2-ju8I6YQ-78" vertex="1">
          <mxGeometry y="188" width="200" height="26" as="geometry" />
        </mxCell>
        <mxCell id="w3GR32y07PW2-ju8I6YQ-86" value="ACCION_RELACIONADA" style="text;align=left;verticalAlign=top;spacingLeft=4;spacingRight=4;overflow=hidden;rotatable=0;points=[[0,0.5],[1,0.5]];portConstraint=eastwest;fillColor=#fff2cc;strokeColor=#d6b656;" parent="w3GR32y07PW2-ju8I6YQ-78" vertex="1">
          <mxGeometry y="214" width="200" height="26" as="geometry" />
        </mxCell>
        <mxCell id="w3GR32y07PW2-ju8I6YQ-87" value="DESCRIPCION" style="text;align=left;verticalAlign=top;spacingLeft=4;spacingRight=4;overflow=hidden;rotatable=0;points=[[0,0.5],[1,0.5]];portConstraint=eastwest;" parent="w3GR32y07PW2-ju8I6YQ-78" vertex="1">
          <mxGeometry y="240" width="200" height="26" as="geometry" />
        </mxCell>
        <mxCell id="aSgMHRb1zKFTXldxdmWt-147" value="APLICATION (REQUERIMIENTOS)" style="swimlane;fontStyle=2;align=center;verticalAlign=top;childLayout=stackLayout;horizontal=1;startSize=26;horizontalStack=0;resizeParent=1;resizeLast=0;collapsible=1;marginBottom=0;rounded=0;shadow=0;strokeWidth=1;fillColor=#dae8fc;strokeColor=#6c8ebf;" parent="WIyWlLk6GJQsqaUBKTNV-1" vertex="1">
          <mxGeometry x="3870" y="390" width="220" height="181" as="geometry">
            <mxRectangle x="230" y="140" width="160" height="26" as="alternateBounds" />
          </mxGeometry>
        </mxCell>
        <mxCell id="aSgMHRb1zKFTXldxdmWt-148" value="ID" style="text;align=left;verticalAlign=top;spacingLeft=4;spacingRight=4;overflow=hidden;rotatable=0;points=[[0,0.5],[1,0.5]];portConstraint=eastwest;" parent="aSgMHRb1zKFTXldxdmWt-147" vertex="1">
          <mxGeometry y="26" width="220" height="26" as="geometry" />
        </mxCell>
        <mxCell id="aSgMHRb1zKFTXldxdmWt-149" value="NAME" style="text;align=left;verticalAlign=top;spacingLeft=4;spacingRight=4;overflow=hidden;rotatable=0;points=[[0,0.5],[1,0.5]];portConstraint=eastwest;rounded=0;shadow=0;html=0;" parent="aSgMHRb1zKFTXldxdmWt-147" vertex="1">
          <mxGeometry y="52" width="220" height="28" as="geometry" />
        </mxCell>
        <mxCell id="aSgMHRb1zKFTXldxdmWt-150" value="CODE" style="text;align=left;verticalAlign=top;spacingLeft=4;spacingRight=4;overflow=hidden;rotatable=0;points=[[0,0.5],[1,0.5]];portConstraint=eastwest;rounded=0;shadow=0;html=0;" parent="aSgMHRb1zKFTXldxdmWt-147" vertex="1">
          <mxGeometry y="80" width="220" height="30" as="geometry" />
        </mxCell>
        <mxCell id="BKEtO_gzMW31352du1K6-40" value="TYPE" style="text;align=left;verticalAlign=top;spacingLeft=4;spacingRight=4;overflow=hidden;rotatable=0;points=[[0,0.5],[1,0.5]];portConstraint=eastwest;rounded=0;shadow=0;html=0;" parent="aSgMHRb1zKFTXldxdmWt-147" vertex="1">
          <mxGeometry y="110" width="220" height="30" as="geometry" />
        </mxCell>
        <mxCell id="aSgMHRb1zKFTXldxdmWt-151" value="RESPONSABLE" style="text;align=left;verticalAlign=top;spacingLeft=4;spacingRight=4;overflow=hidden;rotatable=0;points=[[0,0.5],[1,0.5]];portConstraint=eastwest;fillColor=#fff2cc;strokeColor=#d6b656;" parent="aSgMHRb1zKFTXldxdmWt-147" vertex="1">
          <mxGeometry y="140" width="220" height="26" as="geometry" />
        </mxCell>
        <mxCell id="aSgMHRb1zKFTXldxdmWt-155" style="edgeStyle=none;rounded=0;orthogonalLoop=1;jettySize=auto;html=1;exitX=0.5;exitY=0;exitDx=0;exitDy=0;fontSize=22;startArrow=none;startFill=0;endArrow=none;endFill=0;" parent="WIyWlLk6GJQsqaUBKTNV-1" source="aSgMHRb1zKFTXldxdmWt-147" target="aSgMHRb1zKFTXldxdmWt-147" edge="1">
          <mxGeometry relative="1" as="geometry" />
        </mxCell>
        <mxCell id="aSgMHRb1zKFTXldxdmWt-157" value="SUB MISION APP" style="swimlane;fontStyle=2;align=center;verticalAlign=top;childLayout=stackLayout;horizontal=1;startSize=26;horizontalStack=0;resizeParent=1;resizeLast=0;collapsible=1;marginBottom=0;rounded=0;shadow=0;strokeWidth=1;fillColor=#dae8fc;strokeColor=#6c8ebf;" parent="WIyWlLk6GJQsqaUBKTNV-1" vertex="1">
          <mxGeometry x="4120" y="90" width="200" height="130" as="geometry">
            <mxRectangle x="230" y="140" width="160" height="26" as="alternateBounds" />
          </mxGeometry>
        </mxCell>
        <mxCell id="aSgMHRb1zKFTXldxdmWt-158" value="ID" style="text;align=left;verticalAlign=top;spacingLeft=4;spacingRight=4;overflow=hidden;rotatable=0;points=[[0,0.5],[1,0.5]];portConstraint=eastwest;" parent="aSgMHRb1zKFTXldxdmWt-157" vertex="1">
          <mxGeometry y="26" width="200" height="26" as="geometry" />
        </mxCell>
        <mxCell id="aSgMHRb1zKFTXldxdmWt-163" value="SUB_MISION" style="text;align=left;verticalAlign=top;spacingLeft=4;spacingRight=4;overflow=hidden;rotatable=0;points=[[0,0.5],[1,0.5]];portConstraint=eastwest;fillColor=#fff2cc;strokeColor=#d6b656;" parent="aSgMHRb1zKFTXldxdmWt-157" vertex="1">
          <mxGeometry y="52" width="200" height="26" as="geometry" />
        </mxCell>
        <mxCell id="aSgMHRb1zKFTXldxdmWt-164" value="APLICACION" style="text;align=left;verticalAlign=top;spacingLeft=4;spacingRight=4;overflow=hidden;rotatable=0;points=[[0,0.5],[1,0.5]];portConstraint=eastwest;fillColor=#fff2cc;strokeColor=#d6b656;" parent="aSgMHRb1zKFTXldxdmWt-157" vertex="1">
          <mxGeometry y="78" width="200" height="26" as="geometry" />
        </mxCell>
        <mxCell id="BKEtO_gzMW31352du1K6-41" value="JOB" style="text;align=left;verticalAlign=top;spacingLeft=4;spacingRight=4;overflow=hidden;rotatable=0;points=[[0,0.5],[1,0.5]];portConstraint=eastwest;rounded=0;shadow=0;html=0;fillColor=#fff2cc;strokeColor=#d6b656;" parent="aSgMHRb1zKFTXldxdmWt-157" vertex="1">
          <mxGeometry y="104" width="200" height="26" as="geometry" />
        </mxCell>
        <mxCell id="aSgMHRb1zKFTXldxdmWt-165" value="USERAPP" style="swimlane;fontStyle=2;align=center;verticalAlign=top;childLayout=stackLayout;horizontal=1;startSize=26;horizontalStack=0;resizeParent=1;resizeLast=0;collapsible=1;marginBottom=0;rounded=0;shadow=0;strokeWidth=1;fillColor=#dae8fc;strokeColor=#6c8ebf;" parent="WIyWlLk6GJQsqaUBKTNV-1" vertex="1">
          <mxGeometry x="4290" y="545.01" width="200" height="110" as="geometry">
            <mxRectangle x="230" y="140" width="160" height="26" as="alternateBounds" />
          </mxGeometry>
        </mxCell>
        <mxCell id="aSgMHRb1zKFTXldxdmWt-166" value="ID" style="text;align=left;verticalAlign=top;spacingLeft=4;spacingRight=4;overflow=hidden;rotatable=0;points=[[0,0.5],[1,0.5]];portConstraint=eastwest;" parent="aSgMHRb1zKFTXldxdmWt-165" vertex="1">
          <mxGeometry y="26" width="200" height="26" as="geometry" />
        </mxCell>
        <mxCell id="aSgMHRb1zKFTXldxdmWt-167" value="USER" style="text;align=left;verticalAlign=top;spacingLeft=4;spacingRight=4;overflow=hidden;rotatable=0;points=[[0,0.5],[1,0.5]];portConstraint=eastwest;rounded=0;shadow=0;html=0;fillColor=#fff2cc;strokeColor=#d6b656;" parent="aSgMHRb1zKFTXldxdmWt-165" vertex="1">
          <mxGeometry y="52" width="200" height="28" as="geometry" />
        </mxCell>
        <mxCell id="aSgMHRb1zKFTXldxdmWt-168" value="APLICACION" style="text;align=left;verticalAlign=top;spacingLeft=4;spacingRight=4;overflow=hidden;rotatable=0;points=[[0,0.5],[1,0.5]];portConstraint=eastwest;rounded=0;shadow=0;html=0;fillColor=#fff2cc;strokeColor=#d6b656;" parent="aSgMHRb1zKFTXldxdmWt-165" vertex="1">
          <mxGeometry y="80" width="200" height="30" as="geometry" />
        </mxCell>
        <mxCell id="aSgMHRb1zKFTXldxdmWt-173" value="NOTIFICACIONES" style="swimlane;fontStyle=2;align=center;verticalAlign=top;childLayout=stackLayout;horizontal=1;startSize=26;horizontalStack=0;resizeParent=1;resizeLast=0;collapsible=1;marginBottom=0;rounded=0;shadow=0;strokeWidth=1;fillColor=#dae8fc;strokeColor=#6c8ebf;" parent="WIyWlLk6GJQsqaUBKTNV-1" vertex="1">
          <mxGeometry x="2720" y="-1506" width="200" height="214" as="geometry">
            <mxRectangle x="230" y="140" width="160" height="26" as="alternateBounds" />
          </mxGeometry>
        </mxCell>
        <mxCell id="aSgMHRb1zKFTXldxdmWt-174" value="ID" style="text;align=left;verticalAlign=top;spacingLeft=4;spacingRight=4;overflow=hidden;rotatable=0;points=[[0,0.5],[1,0.5]];portConstraint=eastwest;" parent="aSgMHRb1zKFTXldxdmWt-173" vertex="1">
          <mxGeometry y="26" width="200" height="26" as="geometry" />
        </mxCell>
        <mxCell id="aSgMHRb1zKFTXldxdmWt-175" value="ORIGEN" style="text;align=left;verticalAlign=top;spacingLeft=4;spacingRight=4;overflow=hidden;rotatable=0;points=[[0,0.5],[1,0.5]];portConstraint=eastwest;rounded=0;shadow=0;html=0;fillColor=#fff2cc;strokeColor=#d6b656;" parent="aSgMHRb1zKFTXldxdmWt-173" vertex="1">
          <mxGeometry y="52" width="200" height="28" as="geometry" />
        </mxCell>
        <mxCell id="aSgMHRb1zKFTXldxdmWt-176" value="DESTINO" style="text;align=left;verticalAlign=top;spacingLeft=4;spacingRight=4;overflow=hidden;rotatable=0;points=[[0,0.5],[1,0.5]];portConstraint=eastwest;rounded=0;shadow=0;html=0;fillColor=#fff2cc;strokeColor=#d6b656;" parent="aSgMHRb1zKFTXldxdmWt-173" vertex="1">
          <mxGeometry y="80" width="200" height="30" as="geometry" />
        </mxCell>
        <mxCell id="aSgMHRb1zKFTXldxdmWt-177" value="FECHA" style="text;align=left;verticalAlign=top;spacingLeft=4;spacingRight=4;overflow=hidden;rotatable=0;points=[[0,0.5],[1,0.5]];portConstraint=eastwest;" parent="aSgMHRb1zKFTXldxdmWt-173" vertex="1">
          <mxGeometry y="110" width="200" height="26" as="geometry" />
        </mxCell>
        <mxCell id="aSgMHRb1zKFTXldxdmWt-178" value="TIPO" style="text;align=left;verticalAlign=top;spacingLeft=4;spacingRight=4;overflow=hidden;rotatable=0;points=[[0,0.5],[1,0.5]];portConstraint=eastwest;" parent="aSgMHRb1zKFTXldxdmWt-173" vertex="1">
          <mxGeometry y="136" width="200" height="26" as="geometry" />
        </mxCell>
        <mxCell id="aSgMHRb1zKFTXldxdmWt-179" value="OBSERVACIONES" style="text;align=left;verticalAlign=top;spacingLeft=4;spacingRight=4;overflow=hidden;rotatable=0;points=[[0,0.5],[1,0.5]];portConstraint=eastwest;" parent="aSgMHRb1zKFTXldxdmWt-173" vertex="1">
          <mxGeometry y="162" width="200" height="26" as="geometry" />
        </mxCell>
        <mxCell id="aSgMHRb1zKFTXldxdmWt-180" value="ACTIVA" style="text;align=left;verticalAlign=top;spacingLeft=4;spacingRight=4;overflow=hidden;rotatable=0;points=[[0,0.5],[1,0.5]];portConstraint=eastwest;" parent="aSgMHRb1zKFTXldxdmWt-173" vertex="1">
          <mxGeometry y="188" width="200" height="26" as="geometry" />
        </mxCell>
        <mxCell id="aSgMHRb1zKFTXldxdmWt-201" style="edgeStyle=none;rounded=0;orthogonalLoop=1;jettySize=auto;html=1;exitX=0.5;exitY=1;exitDx=0;exitDy=0;entryX=0.5;entryY=0;entryDx=0;entryDy=0;fontSize=22;startArrow=none;startFill=0;endArrow=none;endFill=0;dashed=1;" parent="WIyWlLk6GJQsqaUBKTNV-1" source="aSgMHRb1zKFTXldxdmWt-199" target="aSgMHRb1zKFTXldxdmWt-147" edge="1">
          <mxGeometry relative="1" as="geometry" />
        </mxCell>
        <mxCell id="aSgMHRb1zKFTXldxdmWt-202" style="edgeStyle=none;rounded=0;orthogonalLoop=1;jettySize=auto;html=1;exitX=0.5;exitY=0;exitDx=0;exitDy=0;fontSize=22;startArrow=none;startFill=0;endArrow=none;endFill=0;dashed=1;entryX=0;entryY=0.5;entryDx=0;entryDy=0;" parent="WIyWlLk6GJQsqaUBKTNV-1" source="aSgMHRb1zKFTXldxdmWt-199" target="aSgMHRb1zKFTXldxdmWt-163" edge="1">
          <mxGeometry relative="1" as="geometry">
            <mxPoint x="4610" y="-64.99000000000001" as="targetPoint" />
            <Array as="points">
              <mxPoint x="3980" y="150" />
            </Array>
          </mxGeometry>
        </mxCell>
        <mxCell id="aSgMHRb1zKFTXldxdmWt-199" value="N:N" style="rhombus;whiteSpace=wrap;html=1;" parent="WIyWlLk6GJQsqaUBKTNV-1" vertex="1">
          <mxGeometry x="3940" y="240" width="80" height="80" as="geometry" />
        </mxCell>
        <mxCell id="aSgMHRb1zKFTXldxdmWt-200" style="edgeStyle=none;rounded=0;orthogonalLoop=1;jettySize=auto;html=1;entryX=0;entryY=0.5;entryDx=0;entryDy=0;fontSize=22;startArrow=none;startFill=0;endArrow=none;endFill=0;exitX=1;exitY=0.5;exitDx=0;exitDy=0;dashed=1;" parent="WIyWlLk6GJQsqaUBKTNV-1" source="aSgMHRb1zKFTXldxdmWt-71" target="aSgMHRb1zKFTXldxdmWt-199" edge="1">
          <mxGeometry relative="1" as="geometry" />
        </mxCell>
        <mxCell id="aSgMHRb1zKFTXldxdmWt-203" value="" style="group" parent="WIyWlLk6GJQsqaUBKTNV-1" vertex="1" connectable="0">
          <mxGeometry x="3960" y="-1080" width="980" height="636" as="geometry" />
        </mxCell>
        <mxCell id="aSgMHRb1zKFTXldxdmWt-245" value="" style="group" parent="aSgMHRb1zKFTXldxdmWt-203" vertex="1" connectable="0">
          <mxGeometry y="36" width="980" height="600" as="geometry" />
        </mxCell>
        <mxCell id="aSgMHRb1zKFTXldxdmWt-204" value="" style="rounded=1;whiteSpace=wrap;html=1;" parent="aSgMHRb1zKFTXldxdmWt-245" vertex="1">
          <mxGeometry x="-10" y="-10" width="990" height="610" as="geometry" />
        </mxCell>
        <mxCell id="aSgMHRb1zKFTXldxdmWt-241" value="&lt;font style=&quot;font-size: 22px;&quot;&gt;MODULO IMPROVEMENT PROPOSALS&lt;/font&gt;" style="text;html=1;strokeColor=none;fillColor=none;align=center;verticalAlign=middle;whiteSpace=wrap;rounded=0;" parent="aSgMHRb1zKFTXldxdmWt-245" vertex="1">
          <mxGeometry x="30" y="26" width="430" height="30" as="geometry" />
        </mxCell>
        <mxCell id="aSgMHRb1zKFTXldxdmWt-181" value="IMPROVEMENT" style="swimlane;fontStyle=2;align=center;verticalAlign=top;childLayout=stackLayout;horizontal=1;startSize=26;horizontalStack=0;resizeParent=1;resizeLast=0;collapsible=1;marginBottom=0;rounded=0;shadow=0;strokeWidth=1;fillColor=#dae8fc;strokeColor=#6c8ebf;" parent="aSgMHRb1zKFTXldxdmWt-245" vertex="1">
          <mxGeometry x="141" y="90" width="200" height="500" as="geometry">
            <mxRectangle x="230" y="140" width="160" height="26" as="alternateBounds" />
          </mxGeometry>
        </mxCell>
        <mxCell id="aSgMHRb1zKFTXldxdmWt-182" value="ID" style="text;align=left;verticalAlign=top;spacingLeft=4;spacingRight=4;overflow=hidden;rotatable=0;points=[[0,0.5],[1,0.5]];portConstraint=eastwest;" parent="aSgMHRb1zKFTXldxdmWt-181" vertex="1">
          <mxGeometry y="26" width="200" height="26" as="geometry" />
        </mxCell>
        <mxCell id="aSgMHRb1zKFTXldxdmWt-183" value="TITULO" style="text;align=left;verticalAlign=top;spacingLeft=4;spacingRight=4;overflow=hidden;rotatable=0;points=[[0,0.5],[1,0.5]];portConstraint=eastwest;rounded=0;shadow=0;html=0;" parent="aSgMHRb1zKFTXldxdmWt-181" vertex="1">
          <mxGeometry y="52" width="200" height="28" as="geometry" />
        </mxCell>
        <mxCell id="aSgMHRb1zKFTXldxdmWt-184" value="SUB MISION" style="text;align=left;verticalAlign=top;spacingLeft=4;spacingRight=4;overflow=hidden;rotatable=0;points=[[0,0.5],[1,0.5]];portConstraint=eastwest;rounded=0;shadow=0;html=0;fillColor=#fff2cc;strokeColor=#d6b656;" parent="aSgMHRb1zKFTXldxdmWt-181" vertex="1">
          <mxGeometry y="80" width="200" height="30" as="geometry" />
        </mxCell>
        <mxCell id="aSgMHRb1zKFTXldxdmWt-186" value="USER_PRINCIPAL" style="text;align=left;verticalAlign=top;spacingLeft=4;spacingRight=4;overflow=hidden;rotatable=0;points=[[0,0.5],[1,0.5]];portConstraint=eastwest;fillColor=#fff2cc;strokeColor=#d6b656;" parent="aSgMHRb1zKFTXldxdmWt-181" vertex="1">
          <mxGeometry y="110" width="200" height="26" as="geometry" />
        </mxCell>
        <mxCell id="aSgMHRb1zKFTXldxdmWt-187" value="USER_SECUNDARIO" style="text;align=left;verticalAlign=top;spacingLeft=4;spacingRight=4;overflow=hidden;rotatable=0;points=[[0,0.5],[1,0.5]];portConstraint=eastwest;fillColor=#fff2cc;strokeColor=#d6b656;" parent="aSgMHRb1zKFTXldxdmWt-181" vertex="1">
          <mxGeometry y="136" width="200" height="26" as="geometry" />
        </mxCell>
        <mxCell id="aSgMHRb1zKFTXldxdmWt-188" value="OBSERVACIONES" style="text;align=left;verticalAlign=top;spacingLeft=4;spacingRight=4;overflow=hidden;rotatable=0;points=[[0,0.5],[1,0.5]];portConstraint=eastwest;" parent="aSgMHRb1zKFTXldxdmWt-181" vertex="1">
          <mxGeometry y="162" width="200" height="26" as="geometry" />
        </mxCell>
        <mxCell id="aSgMHRb1zKFTXldxdmWt-190" value="SITUACION ACTUAL" style="text;align=left;verticalAlign=top;spacingLeft=4;spacingRight=4;overflow=hidden;rotatable=0;points=[[0,0.5],[1,0.5]];portConstraint=eastwest;" parent="aSgMHRb1zKFTXldxdmWt-181" vertex="1">
          <mxGeometry y="188" width="200" height="26" as="geometry" />
        </mxCell>
        <mxCell id="aSgMHRb1zKFTXldxdmWt-191" value="SITUACION FUTURA" style="text;align=left;verticalAlign=top;spacingLeft=4;spacingRight=4;overflow=hidden;rotatable=0;points=[[0,0.5],[1,0.5]];portConstraint=eastwest;" parent="aSgMHRb1zKFTXldxdmWt-181" vertex="1">
          <mxGeometry y="214" width="200" height="26" as="geometry" />
        </mxCell>
        <mxCell id="aSgMHRb1zKFTXldxdmWt-192" value="COSTES" style="text;align=left;verticalAlign=top;spacingLeft=4;spacingRight=4;overflow=hidden;rotatable=0;points=[[0,0.5],[1,0.5]];portConstraint=eastwest;" parent="aSgMHRb1zKFTXldxdmWt-181" vertex="1">
          <mxGeometry y="240" width="200" height="26" as="geometry" />
        </mxCell>
        <mxCell id="aSgMHRb1zKFTXldxdmWt-193" value="BENEFICIOS" style="text;align=left;verticalAlign=top;spacingLeft=4;spacingRight=4;overflow=hidden;rotatable=0;points=[[0,0.5],[1,0.5]];portConstraint=eastwest;" parent="aSgMHRb1zKFTXldxdmWt-181" vertex="1">
          <mxGeometry y="266" width="200" height="26" as="geometry" />
        </mxCell>
        <mxCell id="aSgMHRb1zKFTXldxdmWt-194" value="FECHA IMPLANTACION" style="text;align=left;verticalAlign=top;spacingLeft=4;spacingRight=4;overflow=hidden;rotatable=0;points=[[0,0.5],[1,0.5]];portConstraint=eastwest;" parent="aSgMHRb1zKFTXldxdmWt-181" vertex="1">
          <mxGeometry y="292" width="200" height="26" as="geometry" />
        </mxCell>
        <mxCell id="aSgMHRb1zKFTXldxdmWt-195" value="FECHA SOLICITUD" style="text;align=left;verticalAlign=top;spacingLeft=4;spacingRight=4;overflow=hidden;rotatable=0;points=[[0,0.5],[1,0.5]];portConstraint=eastwest;" parent="aSgMHRb1zKFTXldxdmWt-181" vertex="1">
          <mxGeometry y="318" width="200" height="26" as="geometry" />
        </mxCell>
        <mxCell id="aSgMHRb1zKFTXldxdmWt-196" value="DESTINO SOLICITUD" style="text;align=left;verticalAlign=top;spacingLeft=4;spacingRight=4;overflow=hidden;rotatable=0;points=[[0,0.5],[1,0.5]];portConstraint=eastwest;" parent="aSgMHRb1zKFTXldxdmWt-181" vertex="1">
          <mxGeometry y="344" width="200" height="26" as="geometry" />
        </mxCell>
        <mxCell id="aSgMHRb1zKFTXldxdmWt-197" value="ESTADO" style="text;align=left;verticalAlign=top;spacingLeft=4;spacingRight=4;overflow=hidden;rotatable=0;points=[[0,0.5],[1,0.5]];portConstraint=eastwest;" parent="aSgMHRb1zKFTXldxdmWt-181" vertex="1">
          <mxGeometry y="370" width="200" height="26" as="geometry" />
        </mxCell>
        <mxCell id="BKEtO_gzMW31352du1K6-54" value="DEPARTAMENTO" style="text;align=left;verticalAlign=top;spacingLeft=4;spacingRight=4;overflow=hidden;rotatable=0;points=[[0,0.5],[1,0.5]];portConstraint=eastwest;fillColor=#fff2cc;strokeColor=#d6b656;" parent="aSgMHRb1zKFTXldxdmWt-181" vertex="1">
          <mxGeometry y="396" width="200" height="26" as="geometry" />
        </mxCell>
        <mxCell id="BKEtO_gzMW31352du1K6-56" value="CATEGORIZACION" style="text;align=left;verticalAlign=top;spacingLeft=4;spacingRight=4;overflow=hidden;rotatable=0;points=[[0,0.5],[1,0.5]];portConstraint=eastwest;fillColor=#fff2cc;strokeColor=#d6b656;" parent="aSgMHRb1zKFTXldxdmWt-181" vertex="1">
          <mxGeometry y="422" width="200" height="26" as="geometry" />
        </mxCell>
        <mxCell id="w3GR32y07PW2-ju8I6YQ-147" value="EQUIPO MFT" style="text;align=left;verticalAlign=top;spacingLeft=4;spacingRight=4;overflow=hidden;rotatable=0;points=[[0,0.5],[1,0.5]];portConstraint=eastwest;fillColor=#fff2cc;strokeColor=#d6b656;" parent="aSgMHRb1zKFTXldxdmWt-181" vertex="1">
          <mxGeometry y="448" width="200" height="26" as="geometry" />
        </mxCell>
        <mxCell id="BKEtO_gzMW31352du1K6-55" value="PROCESOS" style="text;align=left;verticalAlign=top;spacingLeft=4;spacingRight=4;overflow=hidden;rotatable=0;points=[[0,0.5],[1,0.5]];portConstraint=eastwest;fillColor=#fff2cc;strokeColor=#d6b656;" parent="aSgMHRb1zKFTXldxdmWt-181" vertex="1">
          <mxGeometry y="474" width="200" height="26" as="geometry" />
        </mxCell>
        <mxCell id="BKEtO_gzMW31352du1K6-57" value="IMPROVEMENT" style="swimlane;fontStyle=2;align=center;verticalAlign=top;childLayout=stackLayout;horizontal=1;startSize=26;horizontalStack=0;resizeParent=1;resizeLast=0;collapsible=1;marginBottom=0;rounded=0;shadow=0;strokeWidth=1;fillColor=#dae8fc;strokeColor=#6c8ebf;" parent="aSgMHRb1zKFTXldxdmWt-245" vertex="1">
          <mxGeometry x="550" y="165" width="200" height="270" as="geometry">
            <mxRectangle x="230" y="140" width="160" height="26" as="alternateBounds" />
          </mxGeometry>
        </mxCell>
        <mxCell id="BKEtO_gzMW31352du1K6-58" value="ID" style="text;align=left;verticalAlign=top;spacingLeft=4;spacingRight=4;overflow=hidden;rotatable=0;points=[[0,0.5],[1,0.5]];portConstraint=eastwest;" parent="BKEtO_gzMW31352du1K6-57" vertex="1">
          <mxGeometry y="26" width="200" height="26" as="geometry" />
        </mxCell>
        <mxCell id="BKEtO_gzMW31352du1K6-59" value="ID_IMPROVEMENT" style="text;align=left;verticalAlign=top;spacingLeft=4;spacingRight=4;overflow=hidden;rotatable=0;points=[[0,0.5],[1,0.5]];portConstraint=eastwest;rounded=0;shadow=0;html=0;fillColor=#fff2cc;strokeColor=#d6b656;" parent="BKEtO_gzMW31352du1K6-57" vertex="1">
          <mxGeometry y="52" width="200" height="28" as="geometry" />
        </mxCell>
        <mxCell id="BKEtO_gzMW31352du1K6-60" value="TITULO" style="text;align=left;verticalAlign=top;spacingLeft=4;spacingRight=4;overflow=hidden;rotatable=0;points=[[0,0.5],[1,0.5]];portConstraint=eastwest;rounded=0;shadow=0;html=0;" parent="BKEtO_gzMW31352du1K6-57" vertex="1">
          <mxGeometry y="80" width="200" height="30" as="geometry" />
        </mxCell>
        <mxCell id="BKEtO_gzMW31352du1K6-61" value="FECHA PREVISTA" style="text;align=left;verticalAlign=top;spacingLeft=4;spacingRight=4;overflow=hidden;rotatable=0;points=[[0,0.5],[1,0.5]];portConstraint=eastwest;" parent="BKEtO_gzMW31352du1K6-57" vertex="1">
          <mxGeometry y="110" width="200" height="26" as="geometry" />
        </mxCell>
        <mxCell id="BKEtO_gzMW31352du1K6-62" value="FECHA EJECUCION" style="text;align=left;verticalAlign=top;spacingLeft=4;spacingRight=4;overflow=hidden;rotatable=0;points=[[0,0.5],[1,0.5]];portConstraint=eastwest;" parent="BKEtO_gzMW31352du1K6-57" vertex="1">
          <mxGeometry y="136" width="200" height="26" as="geometry" />
        </mxCell>
        <mxCell id="BKEtO_gzMW31352du1K6-63" value="RESPONSABLE ACCION" style="text;align=left;verticalAlign=top;spacingLeft=4;spacingRight=4;overflow=hidden;rotatable=0;points=[[0,0.5],[1,0.5]];portConstraint=eastwest;fillColor=#fff2cc;strokeColor=#d6b656;" parent="BKEtO_gzMW31352du1K6-57" vertex="1">
          <mxGeometry y="162" width="200" height="26" as="geometry" />
        </mxCell>
        <mxCell id="BKEtO_gzMW31352du1K6-64" value="USER AYUDANTES" style="text;align=left;verticalAlign=top;spacingLeft=4;spacingRight=4;overflow=hidden;rotatable=0;points=[[0,0.5],[1,0.5]];portConstraint=eastwest;" parent="BKEtO_gzMW31352du1K6-57" vertex="1">
          <mxGeometry y="188" width="200" height="26" as="geometry" />
        </mxCell>
        <mxCell id="BKEtO_gzMW31352du1K6-65" value="OBSERVACIONES" style="text;align=left;verticalAlign=top;spacingLeft=4;spacingRight=4;overflow=hidden;rotatable=0;points=[[0,0.5],[1,0.5]];portConstraint=eastwest;" parent="BKEtO_gzMW31352du1K6-57" vertex="1">
          <mxGeometry y="214" width="200" height="26" as="geometry" />
        </mxCell>
        <mxCell id="BKEtO_gzMW31352du1K6-66" value="COMPLETED" style="text;align=left;verticalAlign=top;spacingLeft=4;spacingRight=4;overflow=hidden;rotatable=0;points=[[0,0.5],[1,0.5]];portConstraint=eastwest;" parent="BKEtO_gzMW31352du1K6-57" vertex="1">
          <mxGeometry y="240" width="200" height="26" as="geometry" />
        </mxCell>
        <mxCell id="BKEtO_gzMW31352du1K6-78" style="edgeStyle=orthogonalEdgeStyle;rounded=0;sketch=0;orthogonalLoop=1;jettySize=auto;html=1;entryX=0;entryY=0.5;entryDx=0;entryDy=0;" parent="aSgMHRb1zKFTXldxdmWt-245" source="aSgMHRb1zKFTXldxdmWt-192" target="BKEtO_gzMW31352du1K6-63" edge="1">
          <mxGeometry relative="1" as="geometry" />
        </mxCell>
        <mxCell id="aSgMHRb1zKFTXldxdmWt-143" style="edgeStyle=none;rounded=0;orthogonalLoop=1;jettySize=auto;html=1;entryX=0;entryY=0.5;entryDx=0;entryDy=0;fontSize=22;startArrow=none;startFill=0;endArrow=none;endFill=0;exitX=1;exitY=0.5;exitDx=0;exitDy=0;" parent="WIyWlLk6GJQsqaUBKTNV-1" source="aSgMHRb1zKFTXldxdmWt-63" target="aSgMHRb1zKFTXldxdmWt-108" edge="1">
          <mxGeometry relative="1" as="geometry">
            <Array as="points">
              <mxPoint x="3900" y="-293" />
              <mxPoint x="3910" y="-1575" />
            </Array>
          </mxGeometry>
        </mxCell>
        <mxCell id="aSgMHRb1zKFTXldxdmWt-251" style="edgeStyle=none;rounded=0;orthogonalLoop=1;jettySize=auto;html=1;exitX=0.5;exitY=1;exitDx=0;exitDy=0;entryX=0.446;entryY=-0.017;entryDx=0;entryDy=0;entryPerimeter=0;dashed=1;fontSize=22;startArrow=none;startFill=0;endArrow=none;endFill=0;" parent="WIyWlLk6GJQsqaUBKTNV-1" source="aSgMHRb1zKFTXldxdmWt-248" target="aSgMHRb1zKFTXldxdmWt-165" edge="1">
          <mxGeometry relative="1" as="geometry" />
        </mxCell>
        <mxCell id="aSgMHRb1zKFTXldxdmWt-248" value="N:N" style="rhombus;whiteSpace=wrap;html=1;" parent="WIyWlLk6GJQsqaUBKTNV-1" vertex="1">
          <mxGeometry x="4340" y="395.01" width="80" height="80" as="geometry" />
        </mxCell>
        <mxCell id="aSgMHRb1zKFTXldxdmWt-249" style="edgeStyle=none;rounded=0;orthogonalLoop=1;jettySize=auto;html=1;entryX=1;entryY=0.5;entryDx=0;entryDy=0;fontSize=22;startArrow=none;startFill=0;endArrow=none;endFill=0;dashed=1;exitX=0.5;exitY=1;exitDx=0;exitDy=0;" parent="WIyWlLk6GJQsqaUBKTNV-1" source="aSgMHRb1zKFTXldxdmWt-74" target="aSgMHRb1zKFTXldxdmWt-248" edge="1">
          <mxGeometry relative="1" as="geometry">
            <mxPoint x="4255" y="345.01" as="sourcePoint" />
            <Array as="points" />
          </mxGeometry>
        </mxCell>
        <mxCell id="aSgMHRb1zKFTXldxdmWt-250" style="edgeStyle=none;rounded=0;orthogonalLoop=1;jettySize=auto;html=1;entryX=0;entryY=0.5;entryDx=0;entryDy=0;fontSize=22;startArrow=none;startFill=0;endArrow=none;endFill=0;dashed=1;exitX=1;exitY=0.5;exitDx=0;exitDy=0;" parent="WIyWlLk6GJQsqaUBKTNV-1" source="aSgMHRb1zKFTXldxdmWt-148" target="aSgMHRb1zKFTXldxdmWt-248" edge="1">
          <mxGeometry relative="1" as="geometry">
            <mxPoint x="4520" y="218.01" as="sourcePoint" />
            <Array as="points" />
          </mxGeometry>
        </mxCell>
        <mxCell id="aSgMHRb1zKFTXldxdmWt-252" value="&lt;font style=&quot;font-size: 22px;&quot;&gt;MODULO PERSONAS&lt;/font&gt;" style="text;html=1;strokeColor=none;fillColor=none;align=center;verticalAlign=middle;whiteSpace=wrap;rounded=0;" parent="WIyWlLk6GJQsqaUBKTNV-1" vertex="1">
          <mxGeometry x="4505" y="-264.99" width="430" height="30" as="geometry" />
        </mxCell>
        <mxCell id="4lEQ4ThhcwdyaVCsO8Y2-24" style="edgeStyle=orthogonalEdgeStyle;rounded=0;orthogonalLoop=1;jettySize=auto;html=1;entryX=1;entryY=0.5;entryDx=0;entryDy=0;" parent="WIyWlLk6GJQsqaUBKTNV-1" source="aSgMHRb1zKFTXldxdmWt-254" edge="1">
          <mxGeometry relative="1" as="geometry">
            <mxPoint x="2340" y="-762.9999999999995" as="targetPoint" />
          </mxGeometry>
        </mxCell>
        <mxCell id="aSgMHRb1zKFTXldxdmWt-254" value="CLIENTES" style="swimlane;fontStyle=2;align=center;verticalAlign=top;childLayout=stackLayout;horizontal=1;startSize=26;horizontalStack=0;resizeParent=1;resizeLast=0;collapsible=1;marginBottom=0;rounded=0;shadow=0;strokeWidth=1;fillColor=#dae8fc;strokeColor=#6c8ebf;" parent="WIyWlLk6GJQsqaUBKTNV-1" vertex="1">
          <mxGeometry x="2430" y="-840" width="160" height="156" as="geometry">
            <mxRectangle x="230" y="140" width="160" height="26" as="alternateBounds" />
          </mxGeometry>
        </mxCell>
        <mxCell id="aSgMHRb1zKFTXldxdmWt-255" value="ID" style="text;align=left;verticalAlign=top;spacingLeft=4;spacingRight=4;overflow=hidden;rotatable=0;points=[[0,0.5],[1,0.5]];portConstraint=eastwest;" parent="aSgMHRb1zKFTXldxdmWt-254" vertex="1">
          <mxGeometry y="26" width="160" height="26" as="geometry" />
        </mxCell>
        <mxCell id="aSgMHRb1zKFTXldxdmWt-256" value="NOMBRE" style="text;align=left;verticalAlign=top;spacingLeft=4;spacingRight=4;overflow=hidden;rotatable=0;points=[[0,0.5],[1,0.5]];portConstraint=eastwest;rounded=0;shadow=0;html=0;" parent="aSgMHRb1zKFTXldxdmWt-254" vertex="1">
          <mxGeometry y="52" width="160" height="26" as="geometry" />
        </mxCell>
        <mxCell id="aSgMHRb1zKFTXldxdmWt-257" value="CODIGO" style="text;align=left;verticalAlign=top;spacingLeft=4;spacingRight=4;overflow=hidden;rotatable=0;points=[[0,0.5],[1,0.5]];portConstraint=eastwest;rounded=0;shadow=0;html=0;" parent="aSgMHRb1zKFTXldxdmWt-254" vertex="1">
          <mxGeometry y="78" width="160" height="26" as="geometry" />
        </mxCell>
        <mxCell id="BKEtO_gzMW31352du1K6-0" value="SITIO WEB" style="text;align=left;verticalAlign=top;spacingLeft=4;spacingRight=4;overflow=hidden;rotatable=0;points=[[0,0.5],[1,0.5]];portConstraint=eastwest;rounded=0;shadow=0;html=0;" parent="aSgMHRb1zKFTXldxdmWt-254" vertex="1">
          <mxGeometry y="104" width="160" height="26" as="geometry" />
        </mxCell>
        <mxCell id="aSgMHRb1zKFTXldxdmWt-259" value="ACTIVO" style="text;align=left;verticalAlign=top;spacingLeft=4;spacingRight=4;overflow=hidden;rotatable=0;points=[[0,0.5],[1,0.5]];portConstraint=eastwest;rounded=0;shadow=0;html=0;" parent="aSgMHRb1zKFTXldxdmWt-254" vertex="1">
          <mxGeometry y="130" width="160" height="26" as="geometry" />
        </mxCell>
        <mxCell id="4lEQ4ThhcwdyaVCsO8Y2-0" value="LOCATION" style="swimlane;fontStyle=2;align=center;verticalAlign=top;childLayout=stackLayout;horizontal=1;startSize=26;horizontalStack=0;resizeParent=1;resizeLast=0;collapsible=1;marginBottom=0;rounded=0;shadow=0;strokeWidth=1;fillColor=#dae8fc;strokeColor=#6c8ebf;" parent="WIyWlLk6GJQsqaUBKTNV-1" vertex="1">
          <mxGeometry x="2180" y="-897" width="160" height="242" as="geometry">
            <mxRectangle x="230" y="140" width="160" height="26" as="alternateBounds" />
          </mxGeometry>
        </mxCell>
        <mxCell id="4lEQ4ThhcwdyaVCsO8Y2-1" value="ID" style="text;align=left;verticalAlign=top;spacingLeft=4;spacingRight=4;overflow=hidden;rotatable=0;points=[[0,0.5],[1,0.5]];portConstraint=eastwest;" parent="4lEQ4ThhcwdyaVCsO8Y2-0" vertex="1">
          <mxGeometry y="26" width="160" height="26" as="geometry" />
        </mxCell>
        <mxCell id="4lEQ4ThhcwdyaVCsO8Y2-2" value="ID_CUSTOMER" style="text;align=left;verticalAlign=top;spacingLeft=4;spacingRight=4;overflow=hidden;rotatable=0;points=[[0,0.5],[1,0.5]];portConstraint=eastwest;rounded=0;shadow=0;html=0;fillColor=#fff2cc;strokeColor=#d6b656;" parent="4lEQ4ThhcwdyaVCsO8Y2-0" vertex="1">
          <mxGeometry y="52" width="160" height="26" as="geometry" />
        </mxCell>
        <mxCell id="4lEQ4ThhcwdyaVCsO8Y2-3" value="NOMBRE" style="text;align=left;verticalAlign=top;spacingLeft=4;spacingRight=4;overflow=hidden;rotatable=0;points=[[0,0.5],[1,0.5]];portConstraint=eastwest;rounded=0;shadow=0;html=0;" parent="4lEQ4ThhcwdyaVCsO8Y2-0" vertex="1">
          <mxGeometry y="78" width="160" height="26" as="geometry" />
        </mxCell>
        <mxCell id="4lEQ4ThhcwdyaVCsO8Y2-6" value="CODIGO" style="text;align=left;verticalAlign=top;spacingLeft=4;spacingRight=4;overflow=hidden;rotatable=0;points=[[0,0.5],[1,0.5]];portConstraint=eastwest;rounded=0;shadow=0;html=0;" parent="4lEQ4ThhcwdyaVCsO8Y2-0" vertex="1">
          <mxGeometry y="104" width="160" height="26" as="geometry" />
        </mxCell>
        <mxCell id="4lEQ4ThhcwdyaVCsO8Y2-7" value="DIRECCION" style="text;align=left;verticalAlign=top;spacingLeft=4;spacingRight=4;overflow=hidden;rotatable=0;points=[[0,0.5],[1,0.5]];portConstraint=eastwest;rounded=0;shadow=0;html=0;" parent="4lEQ4ThhcwdyaVCsO8Y2-0" vertex="1">
          <mxGeometry y="130" width="160" height="26" as="geometry" />
        </mxCell>
        <mxCell id="4lEQ4ThhcwdyaVCsO8Y2-8" value="LATITUD" style="text;align=left;verticalAlign=top;spacingLeft=4;spacingRight=4;overflow=hidden;rotatable=0;points=[[0,0.5],[1,0.5]];portConstraint=eastwest;rounded=0;shadow=0;html=0;" parent="4lEQ4ThhcwdyaVCsO8Y2-0" vertex="1">
          <mxGeometry y="156" width="160" height="26" as="geometry" />
        </mxCell>
        <mxCell id="4lEQ4ThhcwdyaVCsO8Y2-5" value="LONGUITUD" style="text;align=left;verticalAlign=top;spacingLeft=4;spacingRight=4;overflow=hidden;rotatable=0;points=[[0,0.5],[1,0.5]];portConstraint=eastwest;rounded=0;shadow=0;html=0;" parent="4lEQ4ThhcwdyaVCsO8Y2-0" vertex="1">
          <mxGeometry y="182" width="160" height="26" as="geometry" />
        </mxCell>
        <mxCell id="4lEQ4ThhcwdyaVCsO8Y2-4" value="ACTIVO" style="text;align=left;verticalAlign=top;spacingLeft=4;spacingRight=4;overflow=hidden;rotatable=0;points=[[0,0.5],[1,0.5]];portConstraint=eastwest;rounded=0;shadow=0;html=0;" parent="4lEQ4ThhcwdyaVCsO8Y2-0" vertex="1">
          <mxGeometry y="208" width="160" height="26" as="geometry" />
        </mxCell>
        <mxCell id="4lEQ4ThhcwdyaVCsO8Y2-12" value="SUPPLIER" style="swimlane;fontStyle=2;align=center;verticalAlign=top;childLayout=stackLayout;horizontal=1;startSize=26;horizontalStack=0;resizeParent=1;resizeLast=0;collapsible=1;marginBottom=0;rounded=0;shadow=0;strokeWidth=1;fillColor=#dae8fc;strokeColor=#6c8ebf;" parent="WIyWlLk6GJQsqaUBKTNV-1" vertex="1">
          <mxGeometry x="1870" y="-932" width="170" height="312" as="geometry">
            <mxRectangle x="230" y="140" width="160" height="26" as="alternateBounds" />
          </mxGeometry>
        </mxCell>
        <mxCell id="4lEQ4ThhcwdyaVCsO8Y2-13" value="ID" style="text;align=left;verticalAlign=top;spacingLeft=4;spacingRight=4;overflow=hidden;rotatable=0;points=[[0,0.5],[1,0.5]];portConstraint=eastwest;" parent="4lEQ4ThhcwdyaVCsO8Y2-12" vertex="1">
          <mxGeometry y="26" width="170" height="26" as="geometry" />
        </mxCell>
        <mxCell id="4lEQ4ThhcwdyaVCsO8Y2-14" value="ID_LOCATION_CUSTOMER" style="text;align=left;verticalAlign=top;spacingLeft=4;spacingRight=4;overflow=hidden;rotatable=0;points=[[0,0.5],[1,0.5]];portConstraint=eastwest;rounded=0;shadow=0;html=0;fillColor=#fff2cc;strokeColor=#d6b656;" parent="4lEQ4ThhcwdyaVCsO8Y2-12" vertex="1">
          <mxGeometry y="52" width="170" height="26" as="geometry" />
        </mxCell>
        <mxCell id="4lEQ4ThhcwdyaVCsO8Y2-15" value="NOMBRE" style="text;align=left;verticalAlign=top;spacingLeft=4;spacingRight=4;overflow=hidden;rotatable=0;points=[[0,0.5],[1,0.5]];portConstraint=eastwest;rounded=0;shadow=0;html=0;" parent="4lEQ4ThhcwdyaVCsO8Y2-12" vertex="1">
          <mxGeometry y="78" width="170" height="26" as="geometry" />
        </mxCell>
        <mxCell id="4lEQ4ThhcwdyaVCsO8Y2-16" value="CODIGO" style="text;align=left;verticalAlign=top;spacingLeft=4;spacingRight=4;overflow=hidden;rotatable=0;points=[[0,0.5],[1,0.5]];portConstraint=eastwest;rounded=0;shadow=0;html=0;" parent="4lEQ4ThhcwdyaVCsO8Y2-12" vertex="1">
          <mxGeometry y="104" width="170" height="26" as="geometry" />
        </mxCell>
        <mxCell id="4lEQ4ThhcwdyaVCsO8Y2-17" value="DIRECCION" style="text;align=left;verticalAlign=top;spacingLeft=4;spacingRight=4;overflow=hidden;rotatable=0;points=[[0,0.5],[1,0.5]];portConstraint=eastwest;rounded=0;shadow=0;html=0;" parent="4lEQ4ThhcwdyaVCsO8Y2-12" vertex="1">
          <mxGeometry y="130" width="170" height="26" as="geometry" />
        </mxCell>
        <mxCell id="4lEQ4ThhcwdyaVCsO8Y2-18" value="SITIO WEB" style="text;align=left;verticalAlign=top;spacingLeft=4;spacingRight=4;overflow=hidden;rotatable=0;points=[[0,0.5],[1,0.5]];portConstraint=eastwest;rounded=0;shadow=0;html=0;" parent="4lEQ4ThhcwdyaVCsO8Y2-12" vertex="1">
          <mxGeometry y="156" width="170" height="26" as="geometry" />
        </mxCell>
        <mxCell id="4lEQ4ThhcwdyaVCsO8Y2-19" value="EMAIL" style="text;align=left;verticalAlign=top;spacingLeft=4;spacingRight=4;overflow=hidden;rotatable=0;points=[[0,0.5],[1,0.5]];portConstraint=eastwest;rounded=0;shadow=0;html=0;" parent="4lEQ4ThhcwdyaVCsO8Y2-12" vertex="1">
          <mxGeometry y="182" width="170" height="26" as="geometry" />
        </mxCell>
        <mxCell id="4lEQ4ThhcwdyaVCsO8Y2-20" value="TELEFONO" style="text;align=left;verticalAlign=top;spacingLeft=4;spacingRight=4;overflow=hidden;rotatable=0;points=[[0,0.5],[1,0.5]];portConstraint=eastwest;rounded=0;shadow=0;html=0;" parent="4lEQ4ThhcwdyaVCsO8Y2-12" vertex="1">
          <mxGeometry y="208" width="170" height="26" as="geometry" />
        </mxCell>
        <mxCell id="4lEQ4ThhcwdyaVCsO8Y2-21" value="LATITUD" style="text;align=left;verticalAlign=top;spacingLeft=4;spacingRight=4;overflow=hidden;rotatable=0;points=[[0,0.5],[1,0.5]];portConstraint=eastwest;rounded=0;shadow=0;html=0;" parent="4lEQ4ThhcwdyaVCsO8Y2-12" vertex="1">
          <mxGeometry y="234" width="170" height="26" as="geometry" />
        </mxCell>
        <mxCell id="4lEQ4ThhcwdyaVCsO8Y2-22" value="LONGUITUD" style="text;align=left;verticalAlign=top;spacingLeft=4;spacingRight=4;overflow=hidden;rotatable=0;points=[[0,0.5],[1,0.5]];portConstraint=eastwest;rounded=0;shadow=0;html=0;" parent="4lEQ4ThhcwdyaVCsO8Y2-12" vertex="1">
          <mxGeometry y="260" width="170" height="26" as="geometry" />
        </mxCell>
        <mxCell id="4lEQ4ThhcwdyaVCsO8Y2-23" value="ACTIVO" style="text;align=left;verticalAlign=top;spacingLeft=4;spacingRight=4;overflow=hidden;rotatable=0;points=[[0,0.5],[1,0.5]];portConstraint=eastwest;rounded=0;shadow=0;html=0;" parent="4lEQ4ThhcwdyaVCsO8Y2-12" vertex="1">
          <mxGeometry y="286" width="170" height="26" as="geometry" />
        </mxCell>
        <mxCell id="4lEQ4ThhcwdyaVCsO8Y2-25" style="edgeStyle=orthogonalEdgeStyle;rounded=0;orthogonalLoop=1;jettySize=auto;html=1;entryX=1;entryY=0.5;entryDx=0;entryDy=0;" parent="WIyWlLk6GJQsqaUBKTNV-1" target="4lEQ4ThhcwdyaVCsO8Y2-18" edge="1">
          <mxGeometry relative="1" as="geometry">
            <mxPoint x="2180" y="-762.9999999999995" as="sourcePoint" />
          </mxGeometry>
        </mxCell>
        <mxCell id="4lEQ4ThhcwdyaVCsO8Y2-26" value="DELIVERABLES" style="swimlane;fontStyle=2;align=center;verticalAlign=top;childLayout=stackLayout;horizontal=1;startSize=26;horizontalStack=0;resizeParent=1;resizeLast=0;collapsible=1;marginBottom=0;rounded=0;shadow=0;strokeWidth=1;fillColor=#dae8fc;strokeColor=#6c8ebf;" parent="WIyWlLk6GJQsqaUBKTNV-1" vertex="1">
          <mxGeometry x="4496" y="-2030" width="190" height="208" as="geometry">
            <mxRectangle x="230" y="140" width="160" height="26" as="alternateBounds" />
          </mxGeometry>
        </mxCell>
        <mxCell id="4lEQ4ThhcwdyaVCsO8Y2-27" value="ID" style="text;align=left;verticalAlign=top;spacingLeft=4;spacingRight=4;overflow=hidden;rotatable=0;points=[[0,0.5],[1,0.5]];portConstraint=eastwest;" parent="4lEQ4ThhcwdyaVCsO8Y2-26" vertex="1">
          <mxGeometry y="26" width="190" height="26" as="geometry" />
        </mxCell>
        <mxCell id="BKEtO_gzMW31352du1K6-79" value="MISION" style="text;align=left;verticalAlign=top;spacingLeft=4;spacingRight=4;overflow=hidden;rotatable=0;points=[[0,0.5],[1,0.5]];portConstraint=eastwest;fillColor=#fff2cc;strokeColor=#d6b656;" parent="4lEQ4ThhcwdyaVCsO8Y2-26" vertex="1">
          <mxGeometry y="52" width="190" height="26" as="geometry" />
        </mxCell>
        <mxCell id="4lEQ4ThhcwdyaVCsO8Y2-28" value="DESCRIPCION" style="text;align=left;verticalAlign=top;spacingLeft=4;spacingRight=4;overflow=hidden;rotatable=0;points=[[0,0.5],[1,0.5]];portConstraint=eastwest;" parent="4lEQ4ThhcwdyaVCsO8Y2-26" vertex="1">
          <mxGeometry y="78" width="190" height="26" as="geometry" />
        </mxCell>
        <mxCell id="4lEQ4ThhcwdyaVCsO8Y2-31" value="CRITERIOS ESTIMADOS" style="text;align=left;verticalAlign=top;spacingLeft=4;spacingRight=4;overflow=hidden;rotatable=0;points=[[0,0.5],[1,0.5]];portConstraint=eastwest;rounded=0;shadow=0;html=0;" parent="4lEQ4ThhcwdyaVCsO8Y2-26" vertex="1">
          <mxGeometry y="104" width="190" height="26" as="geometry" />
        </mxCell>
        <mxCell id="4lEQ4ThhcwdyaVCsO8Y2-55" value="FECHA ENTREGA" style="text;align=left;verticalAlign=top;spacingLeft=4;spacingRight=4;overflow=hidden;rotatable=0;points=[[0,0.5],[1,0.5]];portConstraint=eastwest;" parent="4lEQ4ThhcwdyaVCsO8Y2-26" vertex="1">
          <mxGeometry y="130" width="190" height="26" as="geometry" />
        </mxCell>
        <mxCell id="4lEQ4ThhcwdyaVCsO8Y2-34" value="TIPOS DE INDICADORES" style="text;align=left;verticalAlign=top;spacingLeft=4;spacingRight=4;overflow=hidden;rotatable=0;points=[[0,0.5],[1,0.5]];portConstraint=eastwest;rounded=0;shadow=0;html=0;" parent="4lEQ4ThhcwdyaVCsO8Y2-26" vertex="1">
          <mxGeometry y="156" width="190" height="26" as="geometry" />
        </mxCell>
        <mxCell id="4lEQ4ThhcwdyaVCsO8Y2-36" value="CRITERIOS ACEPTACION" style="text;align=left;verticalAlign=top;spacingLeft=4;spacingRight=4;overflow=hidden;rotatable=0;points=[[0,0.5],[1,0.5]];portConstraint=eastwest;rounded=0;shadow=0;html=0;" parent="4lEQ4ThhcwdyaVCsO8Y2-26" vertex="1">
          <mxGeometry y="182" width="190" height="26" as="geometry" />
        </mxCell>
        <mxCell id="4lEQ4ThhcwdyaVCsO8Y2-53" value="&lt;font style=&quot;font-size: 22px;&quot;&gt;MODULO DELIVERABLES&lt;/font&gt;" style="text;html=1;strokeColor=none;fillColor=none;align=center;verticalAlign=middle;whiteSpace=wrap;rounded=0;" parent="WIyWlLk6GJQsqaUBKTNV-1" vertex="1">
          <mxGeometry x="4390" y="-2070" width="430" height="30" as="geometry" />
        </mxCell>
        <mxCell id="4lEQ4ThhcwdyaVCsO8Y2-54" style="edgeStyle=orthogonalEdgeStyle;rounded=0;orthogonalLoop=1;jettySize=auto;html=1;entryX=0;entryY=0.5;entryDx=0;entryDy=0;" parent="WIyWlLk6GJQsqaUBKTNV-1" source="aSgMHRb1zKFTXldxdmWt-62" target="4lEQ4ThhcwdyaVCsO8Y2-31" edge="1">
          <mxGeometry relative="1" as="geometry">
            <Array as="points">
              <mxPoint x="3870" y="-319" />
              <mxPoint x="3870" y="-1913" />
            </Array>
          </mxGeometry>
        </mxCell>
        <mxCell id="1h8ergVPv47DGxf9XVKZ-3" style="edgeStyle=orthogonalEdgeStyle;rounded=0;orthogonalLoop=1;jettySize=auto;html=1;" parent="WIyWlLk6GJQsqaUBKTNV-1" source="1h8ergVPv47DGxf9XVKZ-2" target="4lEQ4ThhcwdyaVCsO8Y2-0" edge="1">
          <mxGeometry relative="1" as="geometry" />
        </mxCell>
        <mxCell id="1h8ergVPv47DGxf9XVKZ-2" value="N:N" style="rhombus;whiteSpace=wrap;html=1;" parent="WIyWlLk6GJQsqaUBKTNV-1" vertex="1">
          <mxGeometry x="2640" y="-1150" width="80" height="80" as="geometry" />
        </mxCell>
        <mxCell id="1h8ergVPv47DGxf9XVKZ-5" style="edgeStyle=orthogonalEdgeStyle;rounded=0;orthogonalLoop=1;jettySize=auto;html=1;entryX=1;entryY=0.5;entryDx=0;entryDy=0;" parent="WIyWlLk6GJQsqaUBKTNV-1" source="1h8ergVPv47DGxf9XVKZ-4" target="aSgMHRb1zKFTXldxdmWt-49" edge="1">
          <mxGeometry relative="1" as="geometry" />
        </mxCell>
        <mxCell id="1h8ergVPv47DGxf9XVKZ-6" style="edgeStyle=orthogonalEdgeStyle;rounded=0;orthogonalLoop=1;jettySize=auto;html=1;exitX=0;exitY=1;exitDx=0;exitDy=0;entryX=1;entryY=0.5;entryDx=0;entryDy=0;" parent="WIyWlLk6GJQsqaUBKTNV-1" source="1h8ergVPv47DGxf9XVKZ-4" target="aSgMHRb1zKFTXldxdmWt-43" edge="1">
          <mxGeometry relative="1" as="geometry" />
        </mxCell>
        <mxCell id="Gjwn2Yqwp0jhGkRa3ZEC-0" style="edgeStyle=orthogonalEdgeStyle;rounded=0;orthogonalLoop=1;jettySize=auto;html=1;entryX=1;entryY=0.346;entryDx=0;entryDy=0;entryPerimeter=0;" parent="WIyWlLk6GJQsqaUBKTNV-1" source="1h8ergVPv47DGxf9XVKZ-4" target="aSgMHRb1zKFTXldxdmWt-29" edge="1">
          <mxGeometry relative="1" as="geometry" />
        </mxCell>
        <mxCell id="1h8ergVPv47DGxf9XVKZ-4" value="N:N" style="rhombus;whiteSpace=wrap;html=1;" parent="WIyWlLk6GJQsqaUBKTNV-1" vertex="1">
          <mxGeometry x="3000" y="-573" width="80" height="80" as="geometry" />
        </mxCell>
        <mxCell id="BKEtO_gzMW31352du1K6-9" style="edgeStyle=orthogonalEdgeStyle;rounded=0;orthogonalLoop=1;jettySize=auto;html=1;entryX=0;entryY=0.5;entryDx=0;entryDy=0;" parent="WIyWlLk6GJQsqaUBKTNV-1" source="BKEtO_gzMW31352du1K6-1" target="aSgMHRb1zKFTXldxdmWt-22" edge="1">
          <mxGeometry relative="1" as="geometry">
            <Array as="points">
              <mxPoint x="2425" y="-580" />
              <mxPoint x="2640" y="-580" />
              <mxPoint x="2640" y="-735" />
            </Array>
          </mxGeometry>
        </mxCell>
        <mxCell id="BKEtO_gzMW31352du1K6-83" value="1:1" style="edgeLabel;html=1;align=center;verticalAlign=middle;resizable=0;points=[];" parent="BKEtO_gzMW31352du1K6-9" vertex="1" connectable="0">
          <mxGeometry x="-0.1494" relative="1" as="geometry">
            <mxPoint as="offset" />
          </mxGeometry>
        </mxCell>
        <mxCell id="BKEtO_gzMW31352du1K6-1" value="PROCESS" style="swimlane;fontStyle=2;align=center;verticalAlign=top;childLayout=stackLayout;horizontal=1;startSize=26;horizontalStack=0;resizeParent=1;resizeLast=0;collapsible=1;marginBottom=0;rounded=0;shadow=0;strokeWidth=1;fillColor=#dae8fc;strokeColor=#6c8ebf;" parent="WIyWlLk6GJQsqaUBKTNV-1" vertex="1">
          <mxGeometry x="2340" y="-528" width="190" height="208" as="geometry">
            <mxRectangle x="230" y="140" width="160" height="26" as="alternateBounds" />
          </mxGeometry>
        </mxCell>
        <mxCell id="BKEtO_gzMW31352du1K6-2" value="ID" style="text;align=left;verticalAlign=top;spacingLeft=4;spacingRight=4;overflow=hidden;rotatable=0;points=[[0,0.5],[1,0.5]];portConstraint=eastwest;" parent="BKEtO_gzMW31352du1K6-1" vertex="1">
          <mxGeometry y="26" width="190" height="26" as="geometry" />
        </mxCell>
        <mxCell id="BKEtO_gzMW31352du1K6-3" value="ID_SUBDIVISION" style="text;align=left;verticalAlign=top;spacingLeft=4;spacingRight=4;overflow=hidden;rotatable=0;points=[[0,0.5],[1,0.5]];portConstraint=eastwest;fillColor=#fff2cc;strokeColor=#d6b656;" parent="BKEtO_gzMW31352du1K6-1" vertex="1">
          <mxGeometry y="52" width="190" height="26" as="geometry" />
        </mxCell>
        <mxCell id="BKEtO_gzMW31352du1K6-4" value="NOMBRE" style="text;align=left;verticalAlign=top;spacingLeft=4;spacingRight=4;overflow=hidden;rotatable=0;points=[[0,0.5],[1,0.5]];portConstraint=eastwest;rounded=0;shadow=0;html=0;" parent="BKEtO_gzMW31352du1K6-1" vertex="1">
          <mxGeometry y="78" width="190" height="26" as="geometry" />
        </mxCell>
        <mxCell id="BKEtO_gzMW31352du1K6-5" value="DESCRIPCION" style="text;align=left;verticalAlign=top;spacingLeft=4;spacingRight=4;overflow=hidden;rotatable=0;points=[[0,0.5],[1,0.5]];portConstraint=eastwest;rounded=0;shadow=0;html=0;" parent="BKEtO_gzMW31352du1K6-1" vertex="1">
          <mxGeometry y="104" width="190" height="26" as="geometry" />
        </mxCell>
        <mxCell id="BKEtO_gzMW31352du1K6-6" value="RESPONSABLE" style="text;align=left;verticalAlign=top;spacingLeft=4;spacingRight=4;overflow=hidden;rotatable=0;points=[[0,0.5],[1,0.5]];portConstraint=eastwest;rounded=0;shadow=0;html=0;fillColor=#fff2cc;strokeColor=#d6b656;" parent="BKEtO_gzMW31352du1K6-1" vertex="1">
          <mxGeometry y="130" width="190" height="26" as="geometry" />
        </mxCell>
        <mxCell id="BKEtO_gzMW31352du1K6-7" value="ESTANDARIZADOR" style="text;align=left;verticalAlign=top;spacingLeft=4;spacingRight=4;overflow=hidden;rotatable=0;points=[[0,0.5],[1,0.5]];portConstraint=eastwest;rounded=0;shadow=0;html=0;fillColor=#fff2cc;strokeColor=#d6b656;" parent="BKEtO_gzMW31352du1K6-1" vertex="1">
          <mxGeometry y="156" width="190" height="26" as="geometry" />
        </mxCell>
        <mxCell id="BKEtO_gzMW31352du1K6-8" value="ACTIVO" style="text;align=left;verticalAlign=top;spacingLeft=4;spacingRight=4;overflow=hidden;rotatable=0;points=[[0,0.5],[1,0.5]];portConstraint=eastwest;rounded=0;shadow=0;html=0;" parent="BKEtO_gzMW31352du1K6-1" vertex="1">
          <mxGeometry y="182" width="190" height="26" as="geometry" />
        </mxCell>
        <mxCell id="w3GR32y07PW2-ju8I6YQ-30" style="edgeStyle=orthogonalEdgeStyle;rounded=0;orthogonalLoop=1;jettySize=auto;html=1;entryX=0;entryY=0.5;entryDx=0;entryDy=0;" parent="WIyWlLk6GJQsqaUBKTNV-1" source="BKEtO_gzMW31352du1K6-28" target="aSgMHRb1zKFTXldxdmWt-71" edge="1">
          <mxGeometry relative="1" as="geometry" />
        </mxCell>
        <mxCell id="w3GR32y07PW2-ju8I6YQ-31" value="1:n" style="edgeLabel;html=1;align=center;verticalAlign=middle;resizable=0;points=[];" parent="w3GR32y07PW2-ju8I6YQ-30" vertex="1" connectable="0">
          <mxGeometry x="-0.261" y="-1" relative="1" as="geometry">
            <mxPoint y="-1" as="offset" />
          </mxGeometry>
        </mxCell>
        <mxCell id="BKEtO_gzMW31352du1K6-28" value="JOB IN SUB MISION" style="swimlane;fontStyle=2;align=center;verticalAlign=top;childLayout=stackLayout;horizontal=1;startSize=26;horizontalStack=0;resizeParent=1;resizeLast=0;collapsible=1;marginBottom=0;rounded=0;shadow=0;strokeWidth=1;fillColor=#dae8fc;strokeColor=#6c8ebf;" parent="WIyWlLk6GJQsqaUBKTNV-1" vertex="1">
          <mxGeometry x="2990" y="240" width="190" height="156" as="geometry">
            <mxRectangle x="230" y="140" width="160" height="26" as="alternateBounds" />
          </mxGeometry>
        </mxCell>
        <mxCell id="BKEtO_gzMW31352du1K6-30" value="ID" style="text;align=left;verticalAlign=top;spacingLeft=4;spacingRight=4;overflow=hidden;rotatable=0;points=[[0,0.5],[1,0.5]];portConstraint=eastwest;" parent="BKEtO_gzMW31352du1K6-28" vertex="1">
          <mxGeometry y="26" width="190" height="26" as="geometry" />
        </mxCell>
        <mxCell id="BKEtO_gzMW31352du1K6-31" value="NOMBRE" style="text;align=left;verticalAlign=top;spacingLeft=4;spacingRight=4;overflow=hidden;rotatable=0;points=[[0,0.5],[1,0.5]];portConstraint=eastwest;rounded=0;shadow=0;html=0;" parent="BKEtO_gzMW31352du1K6-28" vertex="1">
          <mxGeometry y="52" width="190" height="26" as="geometry" />
        </mxCell>
        <mxCell id="BKEtO_gzMW31352du1K6-33" value="CODIGO" style="text;align=left;verticalAlign=top;spacingLeft=4;spacingRight=4;overflow=hidden;rotatable=0;points=[[0,0.5],[1,0.5]];portConstraint=eastwest;rounded=0;shadow=0;html=0;" parent="BKEtO_gzMW31352du1K6-28" vertex="1">
          <mxGeometry y="78" width="190" height="26" as="geometry" />
        </mxCell>
        <mxCell id="BKEtO_gzMW31352du1K6-32" value="SUB MISION" style="text;align=left;verticalAlign=top;spacingLeft=4;spacingRight=4;overflow=hidden;rotatable=0;points=[[0,0.5],[1,0.5]];portConstraint=eastwest;rounded=0;shadow=0;html=0;fillColor=#fff2cc;strokeColor=#d6b656;" parent="BKEtO_gzMW31352du1K6-28" vertex="1">
          <mxGeometry y="104" width="190" height="26" as="geometry" />
        </mxCell>
        <mxCell id="BKEtO_gzMW31352du1K6-34" value="ACTIVO" style="text;align=left;verticalAlign=top;spacingLeft=4;spacingRight=4;overflow=hidden;rotatable=0;points=[[0,0.5],[1,0.5]];portConstraint=eastwest;rounded=0;shadow=0;html=0;" parent="BKEtO_gzMW31352du1K6-28" vertex="1">
          <mxGeometry y="130" width="190" height="26" as="geometry" />
        </mxCell>
        <mxCell id="BKEtO_gzMW31352du1K6-42" value="CATEGORIZACION" style="swimlane;fontStyle=2;align=center;verticalAlign=top;childLayout=stackLayout;horizontal=1;startSize=26;horizontalStack=0;resizeParent=1;resizeLast=0;collapsible=1;marginBottom=0;rounded=0;shadow=0;strokeWidth=1;fillColor=#dae8fc;strokeColor=#6c8ebf;" parent="WIyWlLk6GJQsqaUBKTNV-1" vertex="1">
          <mxGeometry x="3010" y="-1506" width="200" height="182" as="geometry">
            <mxRectangle x="230" y="140" width="160" height="26" as="alternateBounds" />
          </mxGeometry>
        </mxCell>
        <mxCell id="BKEtO_gzMW31352du1K6-43" value="ID" style="text;align=left;verticalAlign=top;spacingLeft=4;spacingRight=4;overflow=hidden;rotatable=0;points=[[0,0.5],[1,0.5]];portConstraint=eastwest;" parent="BKEtO_gzMW31352du1K6-42" vertex="1">
          <mxGeometry y="26" width="200" height="26" as="geometry" />
        </mxCell>
        <mxCell id="BKEtO_gzMW31352du1K6-44" value="CODIGO" style="text;align=left;verticalAlign=top;spacingLeft=4;spacingRight=4;overflow=hidden;rotatable=0;points=[[0,0.5],[1,0.5]];portConstraint=eastwest;" parent="BKEtO_gzMW31352du1K6-42" vertex="1">
          <mxGeometry y="52" width="200" height="26" as="geometry" />
        </mxCell>
        <mxCell id="BKEtO_gzMW31352du1K6-45" value="TITULO" style="text;align=left;verticalAlign=top;spacingLeft=4;spacingRight=4;overflow=hidden;rotatable=0;points=[[0,0.5],[1,0.5]];portConstraint=eastwest;" parent="BKEtO_gzMW31352du1K6-42" vertex="1">
          <mxGeometry y="78" width="200" height="26" as="geometry" />
        </mxCell>
        <mxCell id="BKEtO_gzMW31352du1K6-47" value="DEFINICION" style="text;align=left;verticalAlign=top;spacingLeft=4;spacingRight=4;overflow=hidden;rotatable=0;points=[[0,0.5],[1,0.5]];portConstraint=eastwest;rounded=0;shadow=0;html=0;" parent="BKEtO_gzMW31352du1K6-42" vertex="1">
          <mxGeometry y="104" width="200" height="26" as="geometry" />
        </mxCell>
        <mxCell id="BKEtO_gzMW31352du1K6-48" value="TIPO" style="text;align=left;verticalAlign=top;spacingLeft=4;spacingRight=4;overflow=hidden;rotatable=0;points=[[0,0.5],[1,0.5]];portConstraint=eastwest;rounded=0;shadow=0;html=0;" parent="BKEtO_gzMW31352du1K6-42" vertex="1">
          <mxGeometry y="130" width="200" height="26" as="geometry" />
        </mxCell>
        <mxCell id="BKEtO_gzMW31352du1K6-46" value="ACTIVO" style="text;align=left;verticalAlign=top;spacingLeft=4;spacingRight=4;overflow=hidden;rotatable=0;points=[[0,0.5],[1,0.5]];portConstraint=eastwest;rounded=0;shadow=0;html=0;" parent="BKEtO_gzMW31352du1K6-42" vertex="1">
          <mxGeometry y="156" width="200" height="26" as="geometry" />
        </mxCell>
        <mxCell id="BKEtO_gzMW31352du1K6-53" style="edgeStyle=orthogonalEdgeStyle;rounded=0;sketch=0;orthogonalLoop=1;jettySize=auto;html=1;entryX=1;entryY=0.5;entryDx=0;entryDy=0;exitX=0;exitY=0.5;exitDx=0;exitDy=0;" parent="WIyWlLk6GJQsqaUBKTNV-1" source="aSgMHRb1zKFTXldxdmWt-190" target="aSgMHRb1zKFTXldxdmWt-69" edge="1">
          <mxGeometry relative="1" as="geometry">
            <Array as="points">
              <mxPoint x="3630" y="-753" />
              <mxPoint x="3630" y="-120" />
              <mxPoint x="3309" y="-120" />
              <mxPoint x="3309" y="-19" />
            </Array>
          </mxGeometry>
        </mxCell>
        <mxCell id="BKEtO_gzMW31352du1K6-80" value="1:1" style="edgeLabel;html=1;align=center;verticalAlign=middle;resizable=0;points=[];" parent="BKEtO_gzMW31352du1K6-53" vertex="1" connectable="0">
          <mxGeometry x="0.2212" y="2" relative="1" as="geometry">
            <mxPoint x="48" y="-8" as="offset" />
          </mxGeometry>
        </mxCell>
        <mxCell id="w3GR32y07PW2-ju8I6YQ-32" style="edgeStyle=orthogonalEdgeStyle;rounded=0;orthogonalLoop=1;jettySize=auto;html=1;entryX=0.5;entryY=0;entryDx=0;entryDy=0;" parent="WIyWlLk6GJQsqaUBKTNV-1" source="w3GR32y07PW2-ju8I6YQ-3" target="w3GR32y07PW2-ju8I6YQ-14" edge="1">
          <mxGeometry relative="1" as="geometry" />
        </mxCell>
        <mxCell id="w3GR32y07PW2-ju8I6YQ-3" value="DIRECCION DEPARTAMENTAL" style="swimlane;fontStyle=2;align=center;verticalAlign=top;childLayout=stackLayout;horizontal=1;startSize=26;horizontalStack=0;resizeParent=1;resizeLast=0;collapsible=1;marginBottom=0;rounded=0;shadow=0;strokeWidth=1;fillColor=#dae8fc;strokeColor=#6c8ebf;" parent="WIyWlLk6GJQsqaUBKTNV-1" vertex="1">
          <mxGeometry x="3410" y="-1292" width="190" height="238.5" as="geometry">
            <mxRectangle x="230" y="140" width="160" height="26" as="alternateBounds" />
          </mxGeometry>
        </mxCell>
        <mxCell id="w3GR32y07PW2-ju8I6YQ-4" value="ID" style="text;align=left;verticalAlign=top;spacingLeft=4;spacingRight=4;overflow=hidden;rotatable=0;points=[[0,0.5],[1,0.5]];portConstraint=eastwest;" parent="w3GR32y07PW2-ju8I6YQ-3" vertex="1">
          <mxGeometry y="26" width="190" height="26" as="geometry" />
        </mxCell>
        <mxCell id="w3GR32y07PW2-ju8I6YQ-5" value="ID_SUBDIVISION" style="text;align=left;verticalAlign=top;spacingLeft=4;spacingRight=4;overflow=hidden;rotatable=0;points=[[0,0.5],[1,0.5]];portConstraint=eastwest;fillColor=#fff2cc;strokeColor=#d6b656;" parent="w3GR32y07PW2-ju8I6YQ-3" vertex="1">
          <mxGeometry y="52" width="190" height="26" as="geometry" />
        </mxCell>
        <mxCell id="w3GR32y07PW2-ju8I6YQ-6" value="NOMBRE" style="text;align=left;verticalAlign=top;spacingLeft=4;spacingRight=4;overflow=hidden;rotatable=0;points=[[0,0.5],[1,0.5]];portConstraint=eastwest;rounded=0;shadow=0;html=0;" parent="w3GR32y07PW2-ju8I6YQ-3" vertex="1">
          <mxGeometry y="78" width="190" height="26" as="geometry" />
        </mxCell>
        <mxCell id="w3GR32y07PW2-ju8I6YQ-7" value="DESCRIPCION" style="text;align=left;verticalAlign=top;spacingLeft=4;spacingRight=4;overflow=hidden;rotatable=0;points=[[0,0.5],[1,0.5]];portConstraint=eastwest;rounded=0;shadow=0;html=0;" parent="w3GR32y07PW2-ju8I6YQ-3" vertex="1">
          <mxGeometry y="104" width="190" height="26" as="geometry" />
        </mxCell>
        <mxCell id="w3GR32y07PW2-ju8I6YQ-8" value="CODE" style="text;align=left;verticalAlign=top;spacingLeft=4;spacingRight=4;overflow=hidden;rotatable=0;points=[[0,0.5],[1,0.5]];portConstraint=eastwest;rounded=0;shadow=0;html=0;" parent="w3GR32y07PW2-ju8I6YQ-3" vertex="1">
          <mxGeometry y="130" width="190" height="26" as="geometry" />
        </mxCell>
        <mxCell id="w3GR32y07PW2-ju8I6YQ-9" value="RESPONSABLES" style="text;align=left;verticalAlign=top;spacingLeft=4;spacingRight=4;overflow=hidden;rotatable=0;points=[[0,0.5],[1,0.5]];portConstraint=eastwest;rounded=0;shadow=0;html=0;fillColor=#fff2cc;strokeColor=#d6b656;" parent="w3GR32y07PW2-ju8I6YQ-3" vertex="1">
          <mxGeometry y="156" width="190" height="26" as="geometry" />
        </mxCell>
        <mxCell id="w3GR32y07PW2-ju8I6YQ-10" value="ESTANDARIZADOR" style="text;align=left;verticalAlign=top;spacingLeft=4;spacingRight=4;overflow=hidden;rotatable=0;points=[[0,0.5],[1,0.5]];portConstraint=eastwest;rounded=0;shadow=0;html=0;fillColor=#fff2cc;strokeColor=#d6b656;" parent="w3GR32y07PW2-ju8I6YQ-3" vertex="1">
          <mxGeometry y="182" width="190" height="26" as="geometry" />
        </mxCell>
        <mxCell id="w3GR32y07PW2-ju8I6YQ-13" value="ACTIVE" style="text;align=left;verticalAlign=top;spacingLeft=4;spacingRight=4;overflow=hidden;rotatable=0;points=[[0,0.5],[1,0.5]];portConstraint=eastwest;rounded=0;shadow=0;html=0;" parent="w3GR32y07PW2-ju8I6YQ-3" vertex="1">
          <mxGeometry y="208" width="190" height="26" as="geometry" />
        </mxCell>
        <mxCell id="w3GR32y07PW2-ju8I6YQ-33" style="edgeStyle=orthogonalEdgeStyle;rounded=0;orthogonalLoop=1;jettySize=auto;html=1;entryX=1;entryY=0.5;entryDx=0;entryDy=0;" parent="WIyWlLk6GJQsqaUBKTNV-1" source="w3GR32y07PW2-ju8I6YQ-14" target="aSgMHRb1zKFTXldxdmWt-56" edge="1">
          <mxGeometry relative="1" as="geometry" />
        </mxCell>
        <mxCell id="w3GR32y07PW2-ju8I6YQ-14" value="DEPARTAMENTOS" style="swimlane;fontStyle=2;align=center;verticalAlign=top;childLayout=stackLayout;horizontal=1;startSize=26;horizontalStack=0;resizeParent=1;resizeLast=0;collapsible=1;marginBottom=0;rounded=0;shadow=0;strokeWidth=1;fillColor=#dae8fc;strokeColor=#6c8ebf;" parent="WIyWlLk6GJQsqaUBKTNV-1" vertex="1">
          <mxGeometry x="3410" y="-990" width="190" height="208.5" as="geometry">
            <mxRectangle x="230" y="140" width="160" height="26" as="alternateBounds" />
          </mxGeometry>
        </mxCell>
        <mxCell id="w3GR32y07PW2-ju8I6YQ-15" value="ID" style="text;align=left;verticalAlign=top;spacingLeft=4;spacingRight=4;overflow=hidden;rotatable=0;points=[[0,0.5],[1,0.5]];portConstraint=eastwest;" parent="w3GR32y07PW2-ju8I6YQ-14" vertex="1">
          <mxGeometry y="26" width="190" height="26" as="geometry" />
        </mxCell>
        <mxCell id="w3GR32y07PW2-ju8I6YQ-16" value="ID_DIRECCION_DEPARTAMENTAL" style="text;align=left;verticalAlign=top;spacingLeft=4;spacingRight=4;overflow=hidden;rotatable=0;points=[[0,0.5],[1,0.5]];portConstraint=eastwest;fillColor=#fff2cc;strokeColor=#d6b656;" parent="w3GR32y07PW2-ju8I6YQ-14" vertex="1">
          <mxGeometry y="52" width="190" height="26" as="geometry" />
        </mxCell>
        <mxCell id="w3GR32y07PW2-ju8I6YQ-20" value="RESPONSABLES" style="text;align=left;verticalAlign=top;spacingLeft=4;spacingRight=4;overflow=hidden;rotatable=0;points=[[0,0.5],[1,0.5]];portConstraint=eastwest;rounded=0;shadow=0;html=0;fillColor=#fff2cc;strokeColor=#d6b656;" parent="w3GR32y07PW2-ju8I6YQ-14" vertex="1">
          <mxGeometry y="78" width="190" height="26" as="geometry" />
        </mxCell>
        <mxCell id="w3GR32y07PW2-ju8I6YQ-17" value="NOMBRE" style="text;align=left;verticalAlign=top;spacingLeft=4;spacingRight=4;overflow=hidden;rotatable=0;points=[[0,0.5],[1,0.5]];portConstraint=eastwest;rounded=0;shadow=0;html=0;" parent="w3GR32y07PW2-ju8I6YQ-14" vertex="1">
          <mxGeometry y="104" width="190" height="26" as="geometry" />
        </mxCell>
        <mxCell id="w3GR32y07PW2-ju8I6YQ-18" value="DESCRIPCION" style="text;align=left;verticalAlign=top;spacingLeft=4;spacingRight=4;overflow=hidden;rotatable=0;points=[[0,0.5],[1,0.5]];portConstraint=eastwest;rounded=0;shadow=0;html=0;" parent="w3GR32y07PW2-ju8I6YQ-14" vertex="1">
          <mxGeometry y="130" width="190" height="26" as="geometry" />
        </mxCell>
        <mxCell id="w3GR32y07PW2-ju8I6YQ-19" value="CODE" style="text;align=left;verticalAlign=top;spacingLeft=4;spacingRight=4;overflow=hidden;rotatable=0;points=[[0,0.5],[1,0.5]];portConstraint=eastwest;rounded=0;shadow=0;html=0;" parent="w3GR32y07PW2-ju8I6YQ-14" vertex="1">
          <mxGeometry y="156" width="190" height="26" as="geometry" />
        </mxCell>
        <mxCell id="w3GR32y07PW2-ju8I6YQ-22" value="ACTIVE" style="text;align=left;verticalAlign=top;spacingLeft=4;spacingRight=4;overflow=hidden;rotatable=0;points=[[0,0.5],[1,0.5]];portConstraint=eastwest;rounded=0;shadow=0;html=0;" parent="w3GR32y07PW2-ju8I6YQ-14" vertex="1">
          <mxGeometry y="182" width="190" height="26" as="geometry" />
        </mxCell>
        <mxCell id="w3GR32y07PW2-ju8I6YQ-88" value="LOGACCION" style="swimlane;fontStyle=2;align=center;verticalAlign=top;childLayout=stackLayout;horizontal=1;startSize=26;horizontalStack=0;resizeParent=1;resizeLast=0;collapsible=1;marginBottom=0;rounded=0;shadow=0;strokeWidth=1;fillColor=#dae8fc;strokeColor=#6c8ebf;" parent="WIyWlLk6GJQsqaUBKTNV-1" vertex="1">
          <mxGeometry x="2470" y="-1510" width="200" height="190" as="geometry">
            <mxRectangle x="230" y="140" width="160" height="26" as="alternateBounds" />
          </mxGeometry>
        </mxCell>
        <mxCell id="w3GR32y07PW2-ju8I6YQ-89" value="ID" style="text;align=left;verticalAlign=top;spacingLeft=4;spacingRight=4;overflow=hidden;rotatable=0;points=[[0,0.5],[1,0.5]];portConstraint=eastwest;" parent="w3GR32y07PW2-ju8I6YQ-88" vertex="1">
          <mxGeometry y="26" width="200" height="26" as="geometry" />
        </mxCell>
        <mxCell id="w3GR32y07PW2-ju8I6YQ-90" value="PERSONA" style="text;align=left;verticalAlign=top;spacingLeft=4;spacingRight=4;overflow=hidden;rotatable=0;points=[[0,0.5],[1,0.5]];portConstraint=eastwest;rounded=0;shadow=0;html=0;fillColor=#fff2cc;strokeColor=#d6b656;" parent="w3GR32y07PW2-ju8I6YQ-88" vertex="1">
          <mxGeometry y="52" width="200" height="28" as="geometry" />
        </mxCell>
        <mxCell id="w3GR32y07PW2-ju8I6YQ-91" value="FECHA" style="text;align=left;verticalAlign=top;spacingLeft=4;spacingRight=4;overflow=hidden;rotatable=0;points=[[0,0.5],[1,0.5]];portConstraint=eastwest;rounded=0;shadow=0;html=0;" parent="w3GR32y07PW2-ju8I6YQ-88" vertex="1">
          <mxGeometry y="80" width="200" height="30" as="geometry" />
        </mxCell>
        <mxCell id="w3GR32y07PW2-ju8I6YQ-92" value="HORA" style="text;align=left;verticalAlign=top;spacingLeft=4;spacingRight=4;overflow=hidden;rotatable=0;points=[[0,0.5],[1,0.5]];portConstraint=eastwest;" parent="w3GR32y07PW2-ju8I6YQ-88" vertex="1">
          <mxGeometry y="110" width="200" height="26" as="geometry" />
        </mxCell>
        <mxCell id="w3GR32y07PW2-ju8I6YQ-93" value="MODULO" style="text;align=left;verticalAlign=top;spacingLeft=4;spacingRight=4;overflow=hidden;rotatable=0;points=[[0,0.5],[1,0.5]];portConstraint=eastwest;" parent="w3GR32y07PW2-ju8I6YQ-88" vertex="1">
          <mxGeometry y="136" width="200" height="26" as="geometry" />
        </mxCell>
        <mxCell id="w3GR32y07PW2-ju8I6YQ-97" value="DESCRIPCION" style="text;align=left;verticalAlign=top;spacingLeft=4;spacingRight=4;overflow=hidden;rotatable=0;points=[[0,0.5],[1,0.5]];portConstraint=eastwest;" parent="w3GR32y07PW2-ju8I6YQ-88" vertex="1">
          <mxGeometry y="162" width="200" height="26" as="geometry" />
        </mxCell>
        <mxCell id="w3GR32y07PW2-ju8I6YQ-98" value="LOGRISK" style="swimlane;fontStyle=2;align=center;verticalAlign=top;childLayout=stackLayout;horizontal=1;startSize=26;horizontalStack=0;resizeParent=1;resizeLast=0;collapsible=1;marginBottom=0;rounded=0;shadow=0;strokeWidth=1;fillColor=#dae8fc;strokeColor=#6c8ebf;" parent="WIyWlLk6GJQsqaUBKTNV-1" vertex="1">
          <mxGeometry x="4690" y="320" width="190" height="344" as="geometry">
            <mxRectangle x="230" y="140" width="160" height="26" as="alternateBounds" />
          </mxGeometry>
        </mxCell>
        <mxCell id="w3GR32y07PW2-ju8I6YQ-99" value="ID" style="text;align=left;verticalAlign=top;spacingLeft=4;spacingRight=4;overflow=hidden;rotatable=0;points=[[0,0.5],[1,0.5]];portConstraint=eastwest;" parent="w3GR32y07PW2-ju8I6YQ-98" vertex="1">
          <mxGeometry y="26" width="190" height="26" as="geometry" />
        </mxCell>
        <mxCell id="w3GR32y07PW2-ju8I6YQ-100" value="PERSONA" style="text;align=left;verticalAlign=top;spacingLeft=4;spacingRight=4;overflow=hidden;rotatable=0;points=[[0,0.5],[1,0.5]];portConstraint=eastwest;rounded=0;shadow=0;html=0;fillColor=#fff2cc;strokeColor=#d6b656;" parent="w3GR32y07PW2-ju8I6YQ-98" vertex="1">
          <mxGeometry y="52" width="190" height="28" as="geometry" />
        </mxCell>
        <mxCell id="w3GR32y07PW2-ju8I6YQ-101" value="FECHA" style="text;align=left;verticalAlign=top;spacingLeft=4;spacingRight=4;overflow=hidden;rotatable=0;points=[[0,0.5],[1,0.5]];portConstraint=eastwest;rounded=0;shadow=0;html=0;" parent="w3GR32y07PW2-ju8I6YQ-98" vertex="1">
          <mxGeometry y="80" width="190" height="30" as="geometry" />
        </mxCell>
        <mxCell id="w3GR32y07PW2-ju8I6YQ-102" value="HORA" style="text;align=left;verticalAlign=top;spacingLeft=4;spacingRight=4;overflow=hidden;rotatable=0;points=[[0,0.5],[1,0.5]];portConstraint=eastwest;" parent="w3GR32y07PW2-ju8I6YQ-98" vertex="1">
          <mxGeometry y="110" width="190" height="26" as="geometry" />
        </mxCell>
        <mxCell id="w3GR32y07PW2-ju8I6YQ-103" value="ACCION" style="text;align=left;verticalAlign=top;spacingLeft=4;spacingRight=4;overflow=hidden;rotatable=0;points=[[0,0.5],[1,0.5]];portConstraint=eastwest;" parent="w3GR32y07PW2-ju8I6YQ-98" vertex="1">
          <mxGeometry y="136" width="190" height="26" as="geometry" />
        </mxCell>
        <mxCell id="w3GR32y07PW2-ju8I6YQ-104" value="SUB_DIVISION_RELACIONADA" style="text;align=left;verticalAlign=top;spacingLeft=4;spacingRight=4;overflow=hidden;rotatable=0;points=[[0,0.5],[1,0.5]];portConstraint=eastwest;fillColor=#fff2cc;strokeColor=#d6b656;" parent="w3GR32y07PW2-ju8I6YQ-98" vertex="1">
          <mxGeometry y="162" width="190" height="26" as="geometry" />
        </mxCell>
        <mxCell id="w3GR32y07PW2-ju8I6YQ-105" value="DIRECCION_DEPARTAMENTAL_RELACIONADA" style="text;align=left;verticalAlign=top;spacingLeft=4;spacingRight=4;overflow=hidden;rotatable=0;points=[[0,0.5],[1,0.5]];portConstraint=eastwest;fillColor=#fff2cc;strokeColor=#d6b656;" parent="w3GR32y07PW2-ju8I6YQ-98" vertex="1">
          <mxGeometry y="188" width="190" height="26" as="geometry" />
        </mxCell>
        <mxCell id="w3GR32y07PW2-ju8I6YQ-106" value="DEPARTAMENTO_RELACIONADA" style="text;align=left;verticalAlign=top;spacingLeft=4;spacingRight=4;overflow=hidden;rotatable=0;points=[[0,0.5],[1,0.5]];portConstraint=eastwest;fillColor=#fff2cc;strokeColor=#d6b656;" parent="w3GR32y07PW2-ju8I6YQ-98" vertex="1">
          <mxGeometry y="214" width="190" height="26" as="geometry" />
        </mxCell>
        <mxCell id="w3GR32y07PW2-ju8I6YQ-110" value="WP_RELACIONADA" style="text;align=left;verticalAlign=top;spacingLeft=4;spacingRight=4;overflow=hidden;rotatable=0;points=[[0,0.5],[1,0.5]];portConstraint=eastwest;fillColor=#fff2cc;strokeColor=#d6b656;" parent="w3GR32y07PW2-ju8I6YQ-98" vertex="1">
          <mxGeometry y="240" width="190" height="26" as="geometry" />
        </mxCell>
        <mxCell id="w3GR32y07PW2-ju8I6YQ-109" value="MISION_RELACIONADA" style="text;align=left;verticalAlign=top;spacingLeft=4;spacingRight=4;overflow=hidden;rotatable=0;points=[[0,0.5],[1,0.5]];portConstraint=eastwest;fillColor=#fff2cc;strokeColor=#d6b656;" parent="w3GR32y07PW2-ju8I6YQ-98" vertex="1">
          <mxGeometry y="266" width="190" height="26" as="geometry" />
        </mxCell>
        <mxCell id="w3GR32y07PW2-ju8I6YQ-108" value="SUB_MISION_RELACIONADA" style="text;align=left;verticalAlign=top;spacingLeft=4;spacingRight=4;overflow=hidden;rotatable=0;points=[[0,0.5],[1,0.5]];portConstraint=eastwest;fillColor=#fff2cc;strokeColor=#d6b656;" parent="w3GR32y07PW2-ju8I6YQ-98" vertex="1">
          <mxGeometry y="292" width="190" height="26" as="geometry" />
        </mxCell>
        <mxCell id="w3GR32y07PW2-ju8I6YQ-107" value="DESCRIPCION" style="text;align=left;verticalAlign=top;spacingLeft=4;spacingRight=4;overflow=hidden;rotatable=0;points=[[0,0.5],[1,0.5]];portConstraint=eastwest;" parent="w3GR32y07PW2-ju8I6YQ-98" vertex="1">
          <mxGeometry y="318" width="190" height="26" as="geometry" />
        </mxCell>
        <mxCell id="w3GR32y07PW2-ju8I6YQ-111" value="" style="group" parent="WIyWlLk6GJQsqaUBKTNV-1" vertex="1" connectable="0">
          <mxGeometry x="2724" y="508" width="980" height="636" as="geometry" />
        </mxCell>
        <mxCell id="w3GR32y07PW2-ju8I6YQ-112" value="" style="group" parent="w3GR32y07PW2-ju8I6YQ-111" vertex="1" connectable="0">
          <mxGeometry y="36" width="980" height="600" as="geometry" />
        </mxCell>
        <mxCell id="w3GR32y07PW2-ju8I6YQ-113" value="" style="rounded=1;whiteSpace=wrap;html=1;" parent="w3GR32y07PW2-ju8I6YQ-112" vertex="1">
          <mxGeometry x="-10" y="-10" width="990" height="610" as="geometry" />
        </mxCell>
        <mxCell id="w3GR32y07PW2-ju8I6YQ-114" value="&lt;font style=&quot;font-size: 22px;&quot;&gt;MODULO KPI&lt;/font&gt;" style="text;html=1;strokeColor=none;fillColor=none;align=center;verticalAlign=middle;whiteSpace=wrap;rounded=0;" parent="w3GR32y07PW2-ju8I6YQ-112" vertex="1">
          <mxGeometry x="30" y="26" width="430" height="30" as="geometry" />
        </mxCell>
        <mxCell id="w3GR32y07PW2-ju8I6YQ-171" style="edgeStyle=orthogonalEdgeStyle;rounded=0;orthogonalLoop=1;jettySize=auto;html=1;entryX=1;entryY=0.5;entryDx=0;entryDy=0;" parent="w3GR32y07PW2-ju8I6YQ-112" source="w3GR32y07PW2-ju8I6YQ-115" target="w3GR32y07PW2-ju8I6YQ-138" edge="1">
          <mxGeometry relative="1" as="geometry" />
        </mxCell>
        <mxCell id="w3GR32y07PW2-ju8I6YQ-115" value="KPI" style="swimlane;fontStyle=2;align=center;verticalAlign=top;childLayout=stackLayout;horizontal=1;startSize=26;horizontalStack=0;resizeParent=1;resizeLast=0;collapsible=1;marginBottom=0;rounded=0;shadow=0;strokeWidth=1;fillColor=#dae8fc;strokeColor=#6c8ebf;" parent="w3GR32y07PW2-ju8I6YQ-112" vertex="1">
          <mxGeometry x="576" y="63" width="200" height="474" as="geometry">
            <mxRectangle x="230" y="140" width="160" height="26" as="alternateBounds" />
          </mxGeometry>
        </mxCell>
        <mxCell id="w3GR32y07PW2-ju8I6YQ-116" value="ID" style="text;align=left;verticalAlign=top;spacingLeft=4;spacingRight=4;overflow=hidden;rotatable=0;points=[[0,0.5],[1,0.5]];portConstraint=eastwest;" parent="w3GR32y07PW2-ju8I6YQ-115" vertex="1">
          <mxGeometry y="26" width="200" height="26" as="geometry" />
        </mxCell>
        <mxCell id="w3GR32y07PW2-ju8I6YQ-117" value="TITULO" style="text;align=left;verticalAlign=top;spacingLeft=4;spacingRight=4;overflow=hidden;rotatable=0;points=[[0,0.5],[1,0.5]];portConstraint=eastwest;rounded=0;shadow=0;html=0;" parent="w3GR32y07PW2-ju8I6YQ-115" vertex="1">
          <mxGeometry y="52" width="200" height="28" as="geometry" />
        </mxCell>
        <mxCell id="w3GR32y07PW2-ju8I6YQ-118" value="CODIGO" style="text;align=left;verticalAlign=top;spacingLeft=4;spacingRight=4;overflow=hidden;rotatable=0;points=[[0,0.5],[1,0.5]];portConstraint=eastwest;rounded=0;shadow=0;html=0;" parent="w3GR32y07PW2-ju8I6YQ-115" vertex="1">
          <mxGeometry y="80" width="200" height="30" as="geometry" />
        </mxCell>
        <mxCell id="w3GR32y07PW2-ju8I6YQ-119" value="TIPO" style="text;align=left;verticalAlign=top;spacingLeft=4;spacingRight=4;overflow=hidden;rotatable=0;points=[[0,0.5],[1,0.5]];portConstraint=eastwest;" parent="w3GR32y07PW2-ju8I6YQ-115" vertex="1">
          <mxGeometry y="110" width="200" height="26" as="geometry" />
        </mxCell>
        <mxCell id="w3GR32y07PW2-ju8I6YQ-120" value="DESCRIPCION" style="text;align=left;verticalAlign=top;spacingLeft=4;spacingRight=4;overflow=hidden;rotatable=0;points=[[0,0.5],[1,0.5]];portConstraint=eastwest;" parent="w3GR32y07PW2-ju8I6YQ-115" vertex="1">
          <mxGeometry y="136" width="200" height="26" as="geometry" />
        </mxCell>
        <mxCell id="w3GR32y07PW2-ju8I6YQ-121" value="DATOS_USADOS" style="text;align=left;verticalAlign=top;spacingLeft=4;spacingRight=4;overflow=hidden;rotatable=0;points=[[0,0.5],[1,0.5]];portConstraint=eastwest;" parent="w3GR32y07PW2-ju8I6YQ-115" vertex="1">
          <mxGeometry y="162" width="200" height="26" as="geometry" />
        </mxCell>
        <mxCell id="w3GR32y07PW2-ju8I6YQ-122" value="TIPO_FRECUENCIA" style="text;align=left;verticalAlign=top;spacingLeft=4;spacingRight=4;overflow=hidden;rotatable=0;points=[[0,0.5],[1,0.5]];portConstraint=eastwest;" parent="w3GR32y07PW2-ju8I6YQ-115" vertex="1">
          <mxGeometry y="188" width="200" height="26" as="geometry" />
        </mxCell>
        <mxCell id="w3GR32y07PW2-ju8I6YQ-123" value="FRECUENCIA" style="text;align=left;verticalAlign=top;spacingLeft=4;spacingRight=4;overflow=hidden;rotatable=0;points=[[0,0.5],[1,0.5]];portConstraint=eastwest;" parent="w3GR32y07PW2-ju8I6YQ-115" vertex="1">
          <mxGeometry y="214" width="200" height="26" as="geometry" />
        </mxCell>
        <mxCell id="w3GR32y07PW2-ju8I6YQ-124" value="FRECUENCIA_MENSUAL" style="text;align=left;verticalAlign=top;spacingLeft=4;spacingRight=4;overflow=hidden;rotatable=0;points=[[0,0.5],[1,0.5]];portConstraint=eastwest;" parent="w3GR32y07PW2-ju8I6YQ-115" vertex="1">
          <mxGeometry y="240" width="200" height="26" as="geometry" />
        </mxCell>
        <mxCell id="w3GR32y07PW2-ju8I6YQ-125" value="MESES_AFECTADOS" style="text;align=left;verticalAlign=top;spacingLeft=4;spacingRight=4;overflow=hidden;rotatable=0;points=[[0,0.5],[1,0.5]];portConstraint=eastwest;" parent="w3GR32y07PW2-ju8I6YQ-115" vertex="1">
          <mxGeometry y="266" width="200" height="26" as="geometry" />
        </mxCell>
        <mxCell id="w3GR32y07PW2-ju8I6YQ-126" value="RESPONSABLE" style="text;align=left;verticalAlign=top;spacingLeft=4;spacingRight=4;overflow=hidden;rotatable=0;points=[[0,0.5],[1,0.5]];portConstraint=eastwest;fillColor=#fff2cc;strokeColor=#d6b656;" parent="w3GR32y07PW2-ju8I6YQ-115" vertex="1">
          <mxGeometry y="292" width="200" height="26" as="geometry" />
        </mxCell>
        <mxCell id="w3GR32y07PW2-ju8I6YQ-127" value="OBJETIVO" style="text;align=left;verticalAlign=top;spacingLeft=4;spacingRight=4;overflow=hidden;rotatable=0;points=[[0,0.5],[1,0.5]];portConstraint=eastwest;" parent="w3GR32y07PW2-ju8I6YQ-115" vertex="1">
          <mxGeometry y="318" width="200" height="26" as="geometry" />
        </mxCell>
        <mxCell id="w3GR32y07PW2-ju8I6YQ-128" value="MISION" style="text;align=left;verticalAlign=top;spacingLeft=4;spacingRight=4;overflow=hidden;rotatable=0;points=[[0,0.5],[1,0.5]];portConstraint=eastwest;fillColor=#fff2cc;strokeColor=#d6b656;" parent="w3GR32y07PW2-ju8I6YQ-115" vertex="1">
          <mxGeometry y="344" width="200" height="26" as="geometry" />
        </mxCell>
        <mxCell id="w3GR32y07PW2-ju8I6YQ-129" value="UNIDAD" style="text;align=left;verticalAlign=top;spacingLeft=4;spacingRight=4;overflow=hidden;rotatable=0;points=[[0,0.5],[1,0.5]];portConstraint=eastwest;" parent="w3GR32y07PW2-ju8I6YQ-115" vertex="1">
          <mxGeometry y="370" width="200" height="26" as="geometry" />
        </mxCell>
        <mxCell id="w3GR32y07PW2-ju8I6YQ-130" value="METODO_CALCULO" style="text;align=left;verticalAlign=top;spacingLeft=4;spacingRight=4;overflow=hidden;rotatable=0;points=[[0,0.5],[1,0.5]];portConstraint=eastwest;" parent="w3GR32y07PW2-ju8I6YQ-115" vertex="1">
          <mxGeometry y="396" width="200" height="26" as="geometry" />
        </mxCell>
        <mxCell id="w3GR32y07PW2-ju8I6YQ-131" value="MODO_CALCULO" style="text;align=left;verticalAlign=top;spacingLeft=4;spacingRight=4;overflow=hidden;rotatable=0;points=[[0,0.5],[1,0.5]];portConstraint=eastwest;" parent="w3GR32y07PW2-ju8I6YQ-115" vertex="1">
          <mxGeometry y="422" width="200" height="26" as="geometry" />
        </mxCell>
        <mxCell id="w3GR32y07PW2-ju8I6YQ-132" value="ACTIVE" style="text;align=left;verticalAlign=top;spacingLeft=4;spacingRight=4;overflow=hidden;rotatable=0;points=[[0,0.5],[1,0.5]];portConstraint=eastwest;" parent="w3GR32y07PW2-ju8I6YQ-115" vertex="1">
          <mxGeometry y="448" width="200" height="26" as="geometry" />
        </mxCell>
        <mxCell id="w3GR32y07PW2-ju8I6YQ-133" value="DATA KPI" style="swimlane;fontStyle=2;align=center;verticalAlign=top;childLayout=stackLayout;horizontal=1;startSize=26;horizontalStack=0;resizeParent=1;resizeLast=0;collapsible=1;marginBottom=0;rounded=0;shadow=0;strokeWidth=1;fillColor=#dae8fc;strokeColor=#6c8ebf;" parent="w3GR32y07PW2-ju8I6YQ-112" vertex="1">
          <mxGeometry x="116" y="156" width="200" height="344" as="geometry">
            <mxRectangle x="230" y="140" width="160" height="26" as="alternateBounds" />
          </mxGeometry>
        </mxCell>
        <mxCell id="w3GR32y07PW2-ju8I6YQ-134" value="ID" style="text;align=left;verticalAlign=top;spacingLeft=4;spacingRight=4;overflow=hidden;rotatable=0;points=[[0,0.5],[1,0.5]];portConstraint=eastwest;" parent="w3GR32y07PW2-ju8I6YQ-133" vertex="1">
          <mxGeometry y="26" width="200" height="26" as="geometry" />
        </mxCell>
        <mxCell id="w3GR32y07PW2-ju8I6YQ-135" value="ID_KPI" style="text;align=left;verticalAlign=top;spacingLeft=4;spacingRight=4;overflow=hidden;rotatable=0;points=[[0,0.5],[1,0.5]];portConstraint=eastwest;rounded=0;shadow=0;html=0;fillColor=#fff2cc;strokeColor=#d6b656;" parent="w3GR32y07PW2-ju8I6YQ-133" vertex="1">
          <mxGeometry y="52" width="200" height="28" as="geometry" />
        </mxCell>
        <mxCell id="w3GR32y07PW2-ju8I6YQ-136" value="WEEK" style="text;align=left;verticalAlign=top;spacingLeft=4;spacingRight=4;overflow=hidden;rotatable=0;points=[[0,0.5],[1,0.5]];portConstraint=eastwest;rounded=0;shadow=0;html=0;" parent="w3GR32y07PW2-ju8I6YQ-133" vertex="1">
          <mxGeometry y="80" width="200" height="30" as="geometry" />
        </mxCell>
        <mxCell id="w3GR32y07PW2-ju8I6YQ-137" value="MES_TRATADO" style="text;align=left;verticalAlign=top;spacingLeft=4;spacingRight=4;overflow=hidden;rotatable=0;points=[[0,0.5],[1,0.5]];portConstraint=eastwest;" parent="w3GR32y07PW2-ju8I6YQ-133" vertex="1">
          <mxGeometry y="110" width="200" height="26" as="geometry" />
        </mxCell>
        <mxCell id="w3GR32y07PW2-ju8I6YQ-138" value="ORDEN_MENSUAL" style="text;align=left;verticalAlign=top;spacingLeft=4;spacingRight=4;overflow=hidden;rotatable=0;points=[[0,0.5],[1,0.5]];portConstraint=eastwest;" parent="w3GR32y07PW2-ju8I6YQ-133" vertex="1">
          <mxGeometry y="136" width="200" height="26" as="geometry" />
        </mxCell>
        <mxCell id="w3GR32y07PW2-ju8I6YQ-139" value="RESULTADO" style="text;align=left;verticalAlign=top;spacingLeft=4;spacingRight=4;overflow=hidden;rotatable=0;points=[[0,0.5],[1,0.5]];portConstraint=eastwest;" parent="w3GR32y07PW2-ju8I6YQ-133" vertex="1">
          <mxGeometry y="162" width="200" height="26" as="geometry" />
        </mxCell>
        <mxCell id="w3GR32y07PW2-ju8I6YQ-140" value="OBJETIVO_DATA" style="text;align=left;verticalAlign=top;spacingLeft=4;spacingRight=4;overflow=hidden;rotatable=0;points=[[0,0.5],[1,0.5]];portConstraint=eastwest;" parent="w3GR32y07PW2-ju8I6YQ-133" vertex="1">
          <mxGeometry y="188" width="200" height="26" as="geometry" />
        </mxCell>
        <mxCell id="w3GR32y07PW2-ju8I6YQ-141" value="OBJETIVO_CUMPLIDO" style="text;align=left;verticalAlign=top;spacingLeft=4;spacingRight=4;overflow=hidden;rotatable=0;points=[[0,0.5],[1,0.5]];portConstraint=eastwest;" parent="w3GR32y07PW2-ju8I6YQ-133" vertex="1">
          <mxGeometry y="214" width="200" height="26" as="geometry" />
        </mxCell>
        <mxCell id="w3GR32y07PW2-ju8I6YQ-144" value="ANO" style="text;align=left;verticalAlign=top;spacingLeft=4;spacingRight=4;overflow=hidden;rotatable=0;points=[[0,0.5],[1,0.5]];portConstraint=eastwest;" parent="w3GR32y07PW2-ju8I6YQ-133" vertex="1">
          <mxGeometry y="240" width="200" height="26" as="geometry" />
        </mxCell>
        <mxCell id="w3GR32y07PW2-ju8I6YQ-146" value="OBSERVACIONES" style="text;align=left;verticalAlign=top;spacingLeft=4;spacingRight=4;overflow=hidden;rotatable=0;points=[[0,0.5],[1,0.5]];portConstraint=eastwest;" parent="w3GR32y07PW2-ju8I6YQ-133" vertex="1">
          <mxGeometry y="266" width="200" height="26" as="geometry" />
        </mxCell>
        <mxCell id="w3GR32y07PW2-ju8I6YQ-145" value="RAZON ATRASO" style="text;align=left;verticalAlign=top;spacingLeft=4;spacingRight=4;overflow=hidden;rotatable=0;points=[[0,0.5],[1,0.5]];portConstraint=eastwest;" parent="w3GR32y07PW2-ju8I6YQ-133" vertex="1">
          <mxGeometry y="292" width="200" height="26" as="geometry" />
        </mxCell>
        <mxCell id="w3GR32y07PW2-ju8I6YQ-142" value="FECHA REGISTRO" style="text;align=left;verticalAlign=top;spacingLeft=4;spacingRight=4;overflow=hidden;rotatable=0;points=[[0,0.5],[1,0.5]];portConstraint=eastwest;" parent="w3GR32y07PW2-ju8I6YQ-133" vertex="1">
          <mxGeometry y="318" width="200" height="26" as="geometry" />
        </mxCell>
        <mxCell id="w3GR32y07PW2-ju8I6YQ-148" value="MISION APP" style="swimlane;fontStyle=2;align=center;verticalAlign=top;childLayout=stackLayout;horizontal=1;startSize=26;horizontalStack=0;resizeParent=1;resizeLast=0;collapsible=1;marginBottom=0;rounded=0;shadow=0;strokeWidth=1;fillColor=#dae8fc;strokeColor=#6c8ebf;" parent="WIyWlLk6GJQsqaUBKTNV-1" vertex="1">
          <mxGeometry x="3390" y="-500" width="200" height="130" as="geometry">
            <mxRectangle x="230" y="140" width="160" height="26" as="alternateBounds" />
          </mxGeometry>
        </mxCell>
        <mxCell id="w3GR32y07PW2-ju8I6YQ-149" value="ID" style="text;align=left;verticalAlign=top;spacingLeft=4;spacingRight=4;overflow=hidden;rotatable=0;points=[[0,0.5],[1,0.5]];portConstraint=eastwest;" parent="w3GR32y07PW2-ju8I6YQ-148" vertex="1">
          <mxGeometry y="26" width="200" height="26" as="geometry" />
        </mxCell>
        <mxCell id="w3GR32y07PW2-ju8I6YQ-150" value="MISION" style="text;align=left;verticalAlign=top;spacingLeft=4;spacingRight=4;overflow=hidden;rotatable=0;points=[[0,0.5],[1,0.5]];portConstraint=eastwest;fillColor=#fff2cc;strokeColor=#d6b656;" parent="w3GR32y07PW2-ju8I6YQ-148" vertex="1">
          <mxGeometry y="52" width="200" height="26" as="geometry" />
        </mxCell>
        <mxCell id="w3GR32y07PW2-ju8I6YQ-151" value="APLICACION" style="text;align=left;verticalAlign=top;spacingLeft=4;spacingRight=4;overflow=hidden;rotatable=0;points=[[0,0.5],[1,0.5]];portConstraint=eastwest;fillColor=#fff2cc;strokeColor=#d6b656;" parent="w3GR32y07PW2-ju8I6YQ-148" vertex="1">
          <mxGeometry y="78" width="200" height="26" as="geometry" />
        </mxCell>
        <mxCell id="w3GR32y07PW2-ju8I6YQ-152" value="TYPE" style="text;align=left;verticalAlign=top;spacingLeft=4;spacingRight=4;overflow=hidden;rotatable=0;points=[[0,0.5],[1,0.5]];portConstraint=eastwest;rounded=0;shadow=0;html=0;fillColor=#fff2cc;strokeColor=#d6b656;" parent="w3GR32y07PW2-ju8I6YQ-148" vertex="1">
          <mxGeometry y="104" width="200" height="26" as="geometry" />
        </mxCell>
        <mxCell id="w3GR32y07PW2-ju8I6YQ-153" style="edgeStyle=orthogonalEdgeStyle;rounded=0;orthogonalLoop=1;jettySize=auto;html=1;entryX=1;entryY=0.5;entryDx=0;entryDy=0;" parent="WIyWlLk6GJQsqaUBKTNV-1" source="w3GR32y07PW2-ju8I6YQ-150" target="aSgMHRb1zKFTXldxdmWt-60" edge="1">
          <mxGeometry relative="1" as="geometry" />
        </mxCell>
        <mxCell id="w3GR32y07PW2-ju8I6YQ-169" style="edgeStyle=orthogonalEdgeStyle;rounded=0;orthogonalLoop=1;jettySize=auto;html=1;entryX=1;entryY=0.5;entryDx=0;entryDy=0;" parent="WIyWlLk6GJQsqaUBKTNV-1" source="w3GR32y07PW2-ju8I6YQ-154" target="w3GR32y07PW2-ju8I6YQ-20" edge="1">
          <mxGeometry relative="1" as="geometry">
            <Array as="points">
              <mxPoint x="3820" y="-1535" />
              <mxPoint x="3820" y="-899" />
            </Array>
          </mxGeometry>
        </mxCell>
        <mxCell id="w3GR32y07PW2-ju8I6YQ-154" value="DEPARTAMENTO APP" style="swimlane;fontStyle=2;align=center;verticalAlign=top;childLayout=stackLayout;horizontal=1;startSize=26;horizontalStack=0;resizeParent=1;resizeLast=0;collapsible=1;marginBottom=0;rounded=0;shadow=0;strokeWidth=1;fillColor=#dae8fc;strokeColor=#6c8ebf;" parent="WIyWlLk6GJQsqaUBKTNV-1" vertex="1">
          <mxGeometry x="3510" y="-1590" width="200" height="110" as="geometry">
            <mxRectangle x="230" y="140" width="160" height="26" as="alternateBounds" />
          </mxGeometry>
        </mxCell>
        <mxCell id="w3GR32y07PW2-ju8I6YQ-155" value="ID" style="text;align=left;verticalAlign=top;spacingLeft=4;spacingRight=4;overflow=hidden;rotatable=0;points=[[0,0.5],[1,0.5]];portConstraint=eastwest;" parent="w3GR32y07PW2-ju8I6YQ-154" vertex="1">
          <mxGeometry y="26" width="200" height="26" as="geometry" />
        </mxCell>
        <mxCell id="w3GR32y07PW2-ju8I6YQ-156" value="MISION" style="text;align=left;verticalAlign=top;spacingLeft=4;spacingRight=4;overflow=hidden;rotatable=0;points=[[0,0.5],[1,0.5]];portConstraint=eastwest;fillColor=#fff2cc;strokeColor=#d6b656;" parent="w3GR32y07PW2-ju8I6YQ-154" vertex="1">
          <mxGeometry y="52" width="200" height="26" as="geometry" />
        </mxCell>
        <mxCell id="w3GR32y07PW2-ju8I6YQ-157" value="APLICACION" style="text;align=left;verticalAlign=top;spacingLeft=4;spacingRight=4;overflow=hidden;rotatable=0;points=[[0,0.5],[1,0.5]];portConstraint=eastwest;fillColor=#fff2cc;strokeColor=#d6b656;" parent="w3GR32y07PW2-ju8I6YQ-154" vertex="1">
          <mxGeometry y="78" width="200" height="26" as="geometry" />
        </mxCell>
        <mxCell id="w3GR32y07PW2-ju8I6YQ-159" value="DIRECCION DEPARTAMENTAL APP" style="swimlane;fontStyle=2;align=center;verticalAlign=top;childLayout=stackLayout;horizontal=1;startSize=26;horizontalStack=0;resizeParent=1;resizeLast=0;collapsible=1;marginBottom=0;rounded=0;shadow=0;strokeWidth=1;fillColor=#dae8fc;strokeColor=#6c8ebf;" parent="WIyWlLk6GJQsqaUBKTNV-1" vertex="1">
          <mxGeometry x="3510" y="-1470" width="200" height="110" as="geometry">
            <mxRectangle x="230" y="140" width="160" height="26" as="alternateBounds" />
          </mxGeometry>
        </mxCell>
        <mxCell id="w3GR32y07PW2-ju8I6YQ-160" value="ID" style="text;align=left;verticalAlign=top;spacingLeft=4;spacingRight=4;overflow=hidden;rotatable=0;points=[[0,0.5],[1,0.5]];portConstraint=eastwest;" parent="w3GR32y07PW2-ju8I6YQ-159" vertex="1">
          <mxGeometry y="26" width="200" height="26" as="geometry" />
        </mxCell>
        <mxCell id="w3GR32y07PW2-ju8I6YQ-161" value="MISION" style="text;align=left;verticalAlign=top;spacingLeft=4;spacingRight=4;overflow=hidden;rotatable=0;points=[[0,0.5],[1,0.5]];portConstraint=eastwest;fillColor=#fff2cc;strokeColor=#d6b656;" parent="w3GR32y07PW2-ju8I6YQ-159" vertex="1">
          <mxGeometry y="52" width="200" height="26" as="geometry" />
        </mxCell>
        <mxCell id="w3GR32y07PW2-ju8I6YQ-162" value="APLICACION" style="text;align=left;verticalAlign=top;spacingLeft=4;spacingRight=4;overflow=hidden;rotatable=0;points=[[0,0.5],[1,0.5]];portConstraint=eastwest;fillColor=#fff2cc;strokeColor=#d6b656;" parent="w3GR32y07PW2-ju8I6YQ-159" vertex="1">
          <mxGeometry y="78" width="200" height="26" as="geometry" />
        </mxCell>
        <mxCell id="w3GR32y07PW2-ju8I6YQ-168" style="edgeStyle=orthogonalEdgeStyle;rounded=0;orthogonalLoop=1;jettySize=auto;html=1;entryX=1;entryY=0.5;entryDx=0;entryDy=0;" parent="WIyWlLk6GJQsqaUBKTNV-1" source="w3GR32y07PW2-ju8I6YQ-164" target="aSgMHRb1zKFTXldxdmWt-54" edge="1">
          <mxGeometry relative="1" as="geometry" />
        </mxCell>
        <mxCell id="w3GR32y07PW2-ju8I6YQ-164" value="WP APP" style="swimlane;fontStyle=2;align=center;verticalAlign=top;childLayout=stackLayout;horizontal=1;startSize=26;horizontalStack=0;resizeParent=1;resizeLast=0;collapsible=1;marginBottom=0;rounded=0;shadow=0;strokeWidth=1;fillColor=#dae8fc;strokeColor=#6c8ebf;" parent="WIyWlLk6GJQsqaUBKTNV-1" vertex="1">
          <mxGeometry x="3280" y="-1470" width="200" height="110" as="geometry">
            <mxRectangle x="230" y="140" width="160" height="26" as="alternateBounds" />
          </mxGeometry>
        </mxCell>
        <mxCell id="w3GR32y07PW2-ju8I6YQ-165" value="ID" style="text;align=left;verticalAlign=top;spacingLeft=4;spacingRight=4;overflow=hidden;rotatable=0;points=[[0,0.5],[1,0.5]];portConstraint=eastwest;" parent="w3GR32y07PW2-ju8I6YQ-164" vertex="1">
          <mxGeometry y="26" width="200" height="26" as="geometry" />
        </mxCell>
        <mxCell id="w3GR32y07PW2-ju8I6YQ-166" value="MISION" style="text;align=left;verticalAlign=top;spacingLeft=4;spacingRight=4;overflow=hidden;rotatable=0;points=[[0,0.5],[1,0.5]];portConstraint=eastwest;fillColor=#fff2cc;strokeColor=#d6b656;" parent="w3GR32y07PW2-ju8I6YQ-164" vertex="1">
          <mxGeometry y="52" width="200" height="26" as="geometry" />
        </mxCell>
        <mxCell id="w3GR32y07PW2-ju8I6YQ-167" value="APLICACION" style="text;align=left;verticalAlign=top;spacingLeft=4;spacingRight=4;overflow=hidden;rotatable=0;points=[[0,0.5],[1,0.5]];portConstraint=eastwest;fillColor=#fff2cc;strokeColor=#d6b656;" parent="w3GR32y07PW2-ju8I6YQ-164" vertex="1">
          <mxGeometry y="78" width="200" height="26" as="geometry" />
        </mxCell>
        <mxCell id="w3GR32y07PW2-ju8I6YQ-170" style="edgeStyle=orthogonalEdgeStyle;rounded=0;orthogonalLoop=1;jettySize=auto;html=1;entryX=1;entryY=0.5;entryDx=0;entryDy=0;" parent="WIyWlLk6GJQsqaUBKTNV-1" source="w3GR32y07PW2-ju8I6YQ-161" target="w3GR32y07PW2-ju8I6YQ-4" edge="1">
          <mxGeometry relative="1" as="geometry">
            <Array as="points">
              <mxPoint x="3760" y="-1405" />
              <mxPoint x="3760" y="-1253" />
            </Array>
          </mxGeometry>
        </mxCell>
        <mxCell id="w3GR32y07PW2-ju8I6YQ-172" style="edgeStyle=orthogonalEdgeStyle;rounded=0;orthogonalLoop=1;jettySize=auto;html=1;entryX=1;entryY=0.75;entryDx=0;entryDy=0;" parent="WIyWlLk6GJQsqaUBKTNV-1" source="w3GR32y07PW2-ju8I6YQ-115" target="aSgMHRb1zKFTXldxdmWt-59" edge="1">
          <mxGeometry relative="1" as="geometry">
            <Array as="points">
              <mxPoint x="3410" y="-215" />
            </Array>
          </mxGeometry>
        </mxCell>
        <mxCell id="l7OACAfcPIi91saDd_61-0" value="CONTRACT" style="swimlane;fontStyle=2;align=center;verticalAlign=top;childLayout=stackLayout;horizontal=1;startSize=26;horizontalStack=0;resizeParent=1;resizeLast=0;collapsible=1;marginBottom=0;rounded=0;shadow=0;strokeWidth=1;fillColor=#dae8fc;strokeColor=#6c8ebf;" parent="WIyWlLk6GJQsqaUBKTNV-1" vertex="1">
          <mxGeometry x="2350" y="-1998" width="200" height="60" as="geometry">
            <mxRectangle x="230" y="140" width="160" height="26" as="alternateBounds" />
          </mxGeometry>
        </mxCell>
        <mxCell id="l7OACAfcPIi91saDd_61-7" value="USER" style="swimlane;fontStyle=2;align=center;verticalAlign=top;childLayout=stackLayout;horizontal=1;startSize=26;horizontalStack=0;resizeParent=1;resizeLast=0;collapsible=1;marginBottom=0;rounded=0;shadow=0;strokeWidth=1;fillColor=#dae8fc;strokeColor=#6c8ebf;" parent="WIyWlLk6GJQsqaUBKTNV-1" vertex="1">
          <mxGeometry x="3320" y="-1998" width="200" height="60" as="geometry">
            <mxRectangle x="230" y="140" width="160" height="26" as="alternateBounds" />
          </mxGeometry>
        </mxCell>
        <mxCell id="l7OACAfcPIi91saDd_61-9" value="REQUIREMENTS" style="swimlane;fontStyle=2;align=center;verticalAlign=top;childLayout=stackLayout;horizontal=1;startSize=26;horizontalStack=0;resizeParent=1;resizeLast=0;collapsible=1;marginBottom=0;rounded=0;shadow=0;strokeWidth=1;fillColor=#dae8fc;strokeColor=#6c8ebf;" parent="WIyWlLk6GJQsqaUBKTNV-1" vertex="1">
          <mxGeometry x="2840" y="-1998" width="200" height="298" as="geometry">
            <mxRectangle x="230" y="140" width="160" height="26" as="alternateBounds" />
          </mxGeometry>
        </mxCell>
        <mxCell id="l7OACAfcPIi91saDd_61-10" value="ID" style="text;align=left;verticalAlign=top;spacingLeft=4;spacingRight=4;overflow=hidden;rotatable=0;points=[[0,0.5],[1,0.5]];portConstraint=eastwest;" parent="l7OACAfcPIi91saDd_61-9" vertex="1">
          <mxGeometry y="26" width="200" height="26" as="geometry" />
        </mxCell>
        <mxCell id="l7OACAfcPIi91saDd_61-42" value="NAME" style="text;align=left;verticalAlign=top;spacingLeft=4;spacingRight=4;overflow=hidden;rotatable=0;points=[[0,0.5],[1,0.5]];portConstraint=eastwest;rounded=0;shadow=0;html=0;" parent="l7OACAfcPIi91saDd_61-9" vertex="1">
          <mxGeometry y="52" width="200" height="28" as="geometry" />
        </mxCell>
        <mxCell id="l7OACAfcPIi91saDd_61-32" value="CODE" style="text;align=left;verticalAlign=top;spacingLeft=4;spacingRight=4;overflow=hidden;rotatable=0;points=[[0,0.5],[1,0.5]];portConstraint=eastwest;" parent="l7OACAfcPIi91saDd_61-9" vertex="1">
          <mxGeometry y="80" width="200" height="26" as="geometry" />
        </mxCell>
        <mxCell id="l7OACAfcPIi91saDd_61-44" value="TYPE" style="text;align=left;verticalAlign=top;spacingLeft=4;spacingRight=4;overflow=hidden;rotatable=0;points=[[0,0.5],[1,0.5]];portConstraint=eastwest;rounded=0;shadow=0;html=0;" parent="l7OACAfcPIi91saDd_61-9" vertex="1">
          <mxGeometry y="106" width="200" height="30" as="geometry" />
        </mxCell>
        <mxCell id="l7OACAfcPIi91saDd_61-45" value="RESPONSABLE" style="text;align=left;verticalAlign=top;spacingLeft=4;spacingRight=4;overflow=hidden;rotatable=0;points=[[0,0.5],[1,0.5]];portConstraint=eastwest;fillColor=#fff2cc;strokeColor=#d6b656;" parent="l7OACAfcPIi91saDd_61-9" vertex="1">
          <mxGeometry y="136" width="200" height="26" as="geometry" />
        </mxCell>
        <mxCell id="l7OACAfcPIi91saDd_61-34" value="TIENE_VALOR" style="text;align=left;verticalAlign=top;spacingLeft=4;spacingRight=4;overflow=hidden;rotatable=0;points=[[0,0.5],[1,0.5]];portConstraint=eastwest;fillColor=#dae8fc;strokeColor=#6c8ebf;" parent="l7OACAfcPIi91saDd_61-9" vertex="1">
          <mxGeometry y="162" width="200" height="26" as="geometry" />
        </mxCell>
        <mxCell id="l7OACAfcPIi91saDd_61-37" value="TIPO_VALOR" style="text;align=left;verticalAlign=top;spacingLeft=4;spacingRight=4;overflow=hidden;rotatable=0;points=[[0,0.5],[1,0.5]];portConstraint=eastwest;fillColor=#dae8fc;strokeColor=#6c8ebf;" parent="l7OACAfcPIi91saDd_61-9" vertex="1">
          <mxGeometry y="188" width="200" height="26" as="geometry" />
        </mxCell>
        <mxCell id="l7OACAfcPIi91saDd_61-38" value="LISTADO_OPCIONES" style="text;align=left;verticalAlign=top;spacingLeft=4;spacingRight=4;overflow=hidden;rotatable=0;points=[[0,0.5],[1,0.5]];portConstraint=eastwest;fillColor=#dae8fc;strokeColor=#6c8ebf;" parent="l7OACAfcPIi91saDd_61-9" vertex="1">
          <mxGeometry y="214" width="200" height="26" as="geometry" />
        </mxCell>
        <mxCell id="l7OACAfcPIi91saDd_61-36" value="VALOR_COMPARACION" style="text;align=left;verticalAlign=top;spacingLeft=4;spacingRight=4;overflow=hidden;rotatable=0;points=[[0,0.5],[1,0.5]];portConstraint=eastwest;fillColor=#dae8fc;strokeColor=#6c8ebf;" parent="l7OACAfcPIi91saDd_61-9" vertex="1">
          <mxGeometry y="240" width="200" height="26" as="geometry" />
        </mxCell>
        <mxCell id="9VIPPm78PYW4zLnxgbkA-6" value="OPERACION_LOGICA" style="text;align=left;verticalAlign=top;spacingLeft=4;spacingRight=4;overflow=hidden;rotatable=0;points=[[0,0.5],[1,0.5]];portConstraint=eastwest;fillColor=#dae8fc;strokeColor=#6c8ebf;" parent="l7OACAfcPIi91saDd_61-9" vertex="1">
          <mxGeometry y="266" width="200" height="26" as="geometry" />
        </mxCell>
        <mxCell id="l7OACAfcPIi91saDd_61-14" style="edgeStyle=orthogonalEdgeStyle;rounded=0;orthogonalLoop=1;jettySize=auto;html=1;entryX=1;entryY=0.5;entryDx=0;entryDy=0;" parent="WIyWlLk6GJQsqaUBKTNV-1" source="l7OACAfcPIi91saDd_61-11" target="l7OACAfcPIi91saDd_61-10" edge="1">
          <mxGeometry relative="1" as="geometry" />
        </mxCell>
        <mxCell id="l7OACAfcPIi91saDd_61-15" style="edgeStyle=orthogonalEdgeStyle;rounded=0;orthogonalLoop=1;jettySize=auto;html=1;entryX=0;entryY=0.5;entryDx=0;entryDy=0;" parent="WIyWlLk6GJQsqaUBKTNV-1" source="l7OACAfcPIi91saDd_61-11" edge="1">
          <mxGeometry relative="1" as="geometry">
            <mxPoint x="3320" y="-1959" as="targetPoint" />
          </mxGeometry>
        </mxCell>
        <mxCell id="l7OACAfcPIi91saDd_61-21" style="edgeStyle=orthogonalEdgeStyle;rounded=0;orthogonalLoop=1;jettySize=auto;html=1;entryX=0.5;entryY=0;entryDx=0;entryDy=0;" parent="WIyWlLk6GJQsqaUBKTNV-1" source="l7OACAfcPIi91saDd_61-11" target="l7OACAfcPIi91saDd_61-19" edge="1">
          <mxGeometry relative="1" as="geometry" />
        </mxCell>
        <mxCell id="l7OACAfcPIi91saDd_61-11" value="N:N" style="rhombus;whiteSpace=wrap;html=1;" parent="WIyWlLk6GJQsqaUBKTNV-1" vertex="1">
          <mxGeometry x="3150" y="-2000" width="80" height="80" as="geometry" />
        </mxCell>
        <mxCell id="l7OACAfcPIi91saDd_61-19" value="CONTRACT_USER" style="swimlane;fontStyle=2;align=center;verticalAlign=top;childLayout=stackLayout;horizontal=1;startSize=26;horizontalStack=0;resizeParent=1;resizeLast=0;collapsible=1;marginBottom=0;rounded=0;shadow=0;strokeWidth=1;fillColor=#dae8fc;strokeColor=#6c8ebf;" parent="WIyWlLk6GJQsqaUBKTNV-1" vertex="1">
          <mxGeometry x="3090" y="-1880" width="200" height="156" as="geometry">
            <mxRectangle x="230" y="140" width="160" height="26" as="alternateBounds" />
          </mxGeometry>
        </mxCell>
        <mxCell id="l7OACAfcPIi91saDd_61-20" value="ID" style="text;align=left;verticalAlign=top;spacingLeft=4;spacingRight=4;overflow=hidden;rotatable=0;points=[[0,0.5],[1,0.5]];portConstraint=eastwest;" parent="l7OACAfcPIi91saDd_61-19" vertex="1">
          <mxGeometry y="26" width="200" height="26" as="geometry" />
        </mxCell>
        <mxCell id="9VIPPm78PYW4zLnxgbkA-10" value="REQUERIMENT" style="text;align=left;verticalAlign=top;spacingLeft=4;spacingRight=4;overflow=hidden;rotatable=0;points=[[0,0.5],[1,0.5]];portConstraint=eastwest;fillColor=#fff2cc;strokeColor=#d6b656;" parent="l7OACAfcPIi91saDd_61-19" vertex="1">
          <mxGeometry y="52" width="200" height="26" as="geometry" />
        </mxCell>
        <mxCell id="9VIPPm78PYW4zLnxgbkA-9" value="USER" style="text;align=left;verticalAlign=top;spacingLeft=4;spacingRight=4;overflow=hidden;rotatable=0;points=[[0,0.5],[1,0.5]];portConstraint=eastwest;fillColor=#fff2cc;strokeColor=#d6b656;" parent="l7OACAfcPIi91saDd_61-19" vertex="1">
          <mxGeometry y="78" width="200" height="26" as="geometry" />
        </mxCell>
        <mxCell id="9VIPPm78PYW4zLnxgbkA-12" value="VALOR_ASIGNADO" style="text;align=left;verticalAlign=top;spacingLeft=4;spacingRight=4;overflow=hidden;rotatable=0;points=[[0,0.5],[1,0.5]];portConstraint=eastwest;" parent="l7OACAfcPIi91saDd_61-19" vertex="1">
          <mxGeometry y="104" width="200" height="26" as="geometry" />
        </mxCell>
        <mxCell id="9VIPPm78PYW4zLnxgbkA-11" value="FECHA_ASIGNADA" style="text;align=left;verticalAlign=top;spacingLeft=4;spacingRight=4;overflow=hidden;rotatable=0;points=[[0,0.5],[1,0.5]];portConstraint=eastwest;" parent="l7OACAfcPIi91saDd_61-19" vertex="1">
          <mxGeometry y="130" width="200" height="26" as="geometry" />
        </mxCell>
        <mxCell id="l7OACAfcPIi91saDd_61-24" style="edgeStyle=orthogonalEdgeStyle;rounded=0;orthogonalLoop=1;jettySize=auto;html=1;entryX=0.5;entryY=0;entryDx=0;entryDy=0;" parent="WIyWlLk6GJQsqaUBKTNV-1" source="l7OACAfcPIi91saDd_61-25" target="l7OACAfcPIi91saDd_61-26" edge="1">
          <mxGeometry relative="1" as="geometry" />
        </mxCell>
        <mxCell id="l7OACAfcPIi91saDd_61-28" style="edgeStyle=orthogonalEdgeStyle;rounded=0;orthogonalLoop=1;jettySize=auto;html=1;entryX=1;entryY=0.5;entryDx=0;entryDy=0;" parent="WIyWlLk6GJQsqaUBKTNV-1" source="l7OACAfcPIi91saDd_61-25" edge="1">
          <mxGeometry relative="1" as="geometry">
            <mxPoint x="2550" y="-1959" as="targetPoint" />
            <Array as="points">
              <mxPoint x="2600" y="-1960" />
              <mxPoint x="2600" y="-1959" />
            </Array>
          </mxGeometry>
        </mxCell>
        <mxCell id="l7OACAfcPIi91saDd_61-29" style="edgeStyle=orthogonalEdgeStyle;rounded=0;orthogonalLoop=1;jettySize=auto;html=1;entryX=0;entryY=0.5;entryDx=0;entryDy=0;" parent="WIyWlLk6GJQsqaUBKTNV-1" source="l7OACAfcPIi91saDd_61-25" target="l7OACAfcPIi91saDd_61-10" edge="1">
          <mxGeometry relative="1" as="geometry" />
        </mxCell>
        <mxCell id="l7OACAfcPIi91saDd_61-25" value="N:N" style="rhombus;whiteSpace=wrap;html=1;" parent="WIyWlLk6GJQsqaUBKTNV-1" vertex="1">
          <mxGeometry x="2650" y="-2000" width="80" height="80" as="geometry" />
        </mxCell>
        <mxCell id="l7OACAfcPIi91saDd_61-26" value="CONTRACT_APP" style="swimlane;fontStyle=2;align=center;verticalAlign=top;childLayout=stackLayout;horizontal=1;startSize=26;horizontalStack=0;resizeParent=1;resizeLast=0;collapsible=1;marginBottom=0;rounded=0;shadow=0;strokeWidth=1;fillColor=#dae8fc;strokeColor=#6c8ebf;" parent="WIyWlLk6GJQsqaUBKTNV-1" vertex="1">
          <mxGeometry x="2590" y="-1880" width="200" height="140" as="geometry">
            <mxRectangle x="230" y="140" width="160" height="26" as="alternateBounds" />
          </mxGeometry>
        </mxCell>
        <mxCell id="l7OACAfcPIi91saDd_61-27" value="ID" style="text;align=left;verticalAlign=top;spacingLeft=4;spacingRight=4;overflow=hidden;rotatable=0;points=[[0,0.5],[1,0.5]];portConstraint=eastwest;" parent="l7OACAfcPIi91saDd_61-26" vertex="1">
          <mxGeometry y="26" width="200" height="26" as="geometry" />
        </mxCell>
        <mxCell id="9VIPPm78PYW4zLnxgbkA-14" value="CONTRACT" style="text;align=left;verticalAlign=top;spacingLeft=4;spacingRight=4;overflow=hidden;rotatable=0;points=[[0,0.5],[1,0.5]];portConstraint=eastwest;fillColor=#fff2cc;strokeColor=#d6b656;" parent="l7OACAfcPIi91saDd_61-26" vertex="1">
          <mxGeometry y="52" width="200" height="26" as="geometry" />
        </mxCell>
        <mxCell id="9VIPPm78PYW4zLnxgbkA-13" value="REQUERIMENT" style="text;align=left;verticalAlign=top;spacingLeft=4;spacingRight=4;overflow=hidden;rotatable=0;points=[[0,0.5],[1,0.5]];portConstraint=eastwest;fillColor=#fff2cc;strokeColor=#d6b656;" parent="l7OACAfcPIi91saDd_61-26" vertex="1">
          <mxGeometry y="78" width="200" height="26" as="geometry" />
        </mxCell>
        <mxCell id="9VIPPm78PYW4zLnxgbkA-15" value="VALOR_ASIGNADO" style="text;align=left;verticalAlign=top;spacingLeft=4;spacingRight=4;overflow=hidden;rotatable=0;points=[[0,0.5],[1,0.5]];portConstraint=eastwest;" parent="l7OACAfcPIi91saDd_61-26" vertex="1">
          <mxGeometry y="104" width="200" height="26" as="geometry" />
        </mxCell>
        <mxCell id="9VIPPm78PYW4zLnxgbkA-1" value="" style="verticalLabelPosition=bottom;verticalAlign=top;html=1;shape=card;whiteSpace=wrap;size=20;arcSize=12;" parent="WIyWlLk6GJQsqaUBKTNV-1" vertex="1">
          <mxGeometry x="3068" y="-1670" width="240" height="100" as="geometry" />
        </mxCell>
        <mxCell id="9VIPPm78PYW4zLnxgbkA-2" value="TIPO_VALOR:&amp;nbsp;&lt;br&gt;- Lista&lt;br&gt;- Fecha&lt;br&gt;&lt;div style=&quot;&quot;&gt;&lt;span style=&quot;background-color: initial;&quot;&gt;-Entero (numero mínimo de x)&lt;/span&gt;&lt;/div&gt;" style="text;html=1;strokeColor=none;fillColor=none;align=left;verticalAlign=middle;whiteSpace=wrap;rounded=0;" parent="WIyWlLk6GJQsqaUBKTNV-1" vertex="1">
          <mxGeometry x="3088" y="-1650" width="200" height="60" as="geometry" />
        </mxCell>
        <mxCell id="9VIPPm78PYW4zLnxgbkA-4" value="" style="verticalLabelPosition=bottom;verticalAlign=top;html=1;shape=card;whiteSpace=wrap;size=20;arcSize=12;" parent="WIyWlLk6GJQsqaUBKTNV-1" vertex="1">
          <mxGeometry x="2570" y="-1670" width="240" height="100" as="geometry" />
        </mxCell>
        <mxCell id="9VIPPm78PYW4zLnxgbkA-5" value="LISTADO_OPCIONES:&lt;br&gt;En caso de TIPO_VALOR = &quot;list&quot;. Sera un string en el que la lista se almacenara separado por comas, de este modo:&lt;br&gt;- Opcion 1, Opcion 2, Opcion 3" style="text;html=1;strokeColor=none;fillColor=none;align=center;verticalAlign=middle;whiteSpace=wrap;rounded=0;" parent="WIyWlLk6GJQsqaUBKTNV-1" vertex="1">
          <mxGeometry x="2600" y="-1650" width="190" height="60" as="geometry" />
        </mxCell>
        <mxCell id="9VIPPm78PYW4zLnxgbkA-7" value="" style="verticalLabelPosition=bottom;verticalAlign=top;html=1;shape=card;whiteSpace=wrap;size=20;arcSize=12;" parent="WIyWlLk6GJQsqaUBKTNV-1" vertex="1">
          <mxGeometry x="2820" y="-1670" width="240" height="100" as="geometry" />
        </mxCell>
        <mxCell id="9VIPPm78PYW4zLnxgbkA-8" value="VALOR_COMPARACION: Valor con el se comparara&lt;br&gt;OPERACION_LOGICA: Operación que se realizara entre la asignación del usuario y el valor de comparación (&amp;lt;, = , &amp;gt; .....)" style="text;html=1;strokeColor=none;fillColor=none;align=left;verticalAlign=middle;whiteSpace=wrap;rounded=0;" parent="WIyWlLk6GJQsqaUBKTNV-1" vertex="1">
          <mxGeometry x="2840" y="-1650" width="200" height="60" as="geometry" />
        </mxCell>
        <mxCell id="h0GC7bV9k8jez8_o-PCf-0" value="SUB-DIVISION" style="swimlane;fontStyle=2;align=center;verticalAlign=top;childLayout=stackLayout;horizontal=1;startSize=26;horizontalStack=0;resizeParent=1;resizeLast=0;collapsible=1;marginBottom=0;rounded=0;shadow=0;strokeWidth=1;fillColor=#dae8fc;strokeColor=#6c8ebf;" vertex="1" parent="WIyWlLk6GJQsqaUBKTNV-1">
          <mxGeometry x="319" y="760" width="190" height="160" as="geometry">
            <mxRectangle x="230" y="140" width="160" height="26" as="alternateBounds" />
          </mxGeometry>
        </mxCell>
        <mxCell id="h0GC7bV9k8jez8_o-PCf-107" value="&lt;font style=&quot;font-size: 17px;&quot;&gt;General Manager&lt;/font&gt;" style="text;html=1;strokeColor=none;fillColor=none;align=center;verticalAlign=middle;whiteSpace=wrap;rounded=0;" vertex="1" parent="h0GC7bV9k8jez8_o-PCf-0">
          <mxGeometry y="26" width="190" height="134" as="geometry" />
        </mxCell>
        <mxCell id="h0GC7bV9k8jez8_o-PCf-7" value="CONTRATOS / SERVICIO" style="swimlane;fontStyle=2;align=center;verticalAlign=top;childLayout=stackLayout;horizontal=1;startSize=26;horizontalStack=0;resizeParent=1;resizeLast=0;collapsible=1;marginBottom=0;rounded=0;shadow=0;strokeWidth=1;fillColor=#dae8fc;strokeColor=#6c8ebf;" vertex="1" parent="WIyWlLk6GJQsqaUBKTNV-1">
          <mxGeometry x="970" y="1020" width="188" height="160" as="geometry">
            <mxRectangle x="230" y="140" width="160" height="26" as="alternateBounds" />
          </mxGeometry>
        </mxCell>
        <mxCell id="h0GC7bV9k8jez8_o-PCf-91" style="edgeStyle=orthogonalEdgeStyle;rounded=0;orthogonalLoop=1;jettySize=auto;html=1;entryX=0.5;entryY=1;entryDx=0;entryDy=0;endArrow=none;endFill=0;" edge="1" parent="WIyWlLk6GJQsqaUBKTNV-1" source="h0GC7bV9k8jez8_o-PCf-17" target="h0GC7bV9k8jez8_o-PCf-7">
          <mxGeometry relative="1" as="geometry" />
        </mxCell>
        <mxCell id="h0GC7bV9k8jez8_o-PCf-17" value="WORK PACKAGE / AREA" style="swimlane;fontStyle=2;align=center;verticalAlign=top;childLayout=stackLayout;horizontal=1;startSize=26;horizontalStack=0;resizeParent=1;resizeLast=0;collapsible=1;marginBottom=0;rounded=0;shadow=0;strokeWidth=1;fillColor=#dae8fc;strokeColor=#6c8ebf;" vertex="1" parent="WIyWlLk6GJQsqaUBKTNV-1">
          <mxGeometry x="970" y="1280" width="190" height="160" as="geometry">
            <mxRectangle x="230" y="140" width="160" height="26" as="alternateBounds" />
          </mxGeometry>
        </mxCell>
        <mxCell id="h0GC7bV9k8jez8_o-PCf-112" value="&lt;font style=&quot;font-size: 17px;&quot;&gt;Site Manager&lt;/font&gt;" style="text;html=1;strokeColor=none;fillColor=none;align=center;verticalAlign=middle;whiteSpace=wrap;rounded=0;" vertex="1" parent="h0GC7bV9k8jez8_o-PCf-17">
          <mxGeometry y="26" width="190" height="134" as="geometry" />
        </mxCell>
        <mxCell id="h0GC7bV9k8jez8_o-PCf-92" style="edgeStyle=orthogonalEdgeStyle;rounded=0;orthogonalLoop=1;jettySize=auto;html=1;entryX=1;entryY=0.5;entryDx=0;entryDy=0;endArrow=none;endFill=0;" edge="1" parent="WIyWlLk6GJQsqaUBKTNV-1" source="h0GC7bV9k8jez8_o-PCf-26" target="h0GC7bV9k8jez8_o-PCf-17">
          <mxGeometry relative="1" as="geometry">
            <mxPoint x="1210" y="1497" as="targetPoint" />
          </mxGeometry>
        </mxCell>
        <mxCell id="h0GC7bV9k8jez8_o-PCf-26" value="MISION / TEAM" style="swimlane;fontStyle=2;align=center;verticalAlign=top;childLayout=stackLayout;horizontal=1;startSize=26;horizontalStack=0;resizeParent=1;resizeLast=0;collapsible=1;marginBottom=0;rounded=0;shadow=0;strokeWidth=1;fillColor=#dae8fc;strokeColor=#6c8ebf;" vertex="1" parent="WIyWlLk6GJQsqaUBKTNV-1">
          <mxGeometry x="1310" y="1280" width="190" height="160" as="geometry">
            <mxRectangle x="230" y="140" width="160" height="26" as="alternateBounds" />
          </mxGeometry>
        </mxCell>
        <mxCell id="h0GC7bV9k8jez8_o-PCf-113" value="&lt;font style=&quot;font-size: 17px;&quot;&gt;Site Coordinator&lt;/font&gt;" style="text;html=1;strokeColor=none;fillColor=none;align=center;verticalAlign=middle;whiteSpace=wrap;rounded=0;" vertex="1" parent="h0GC7bV9k8jez8_o-PCf-26">
          <mxGeometry y="26" width="190" height="64" as="geometry" />
        </mxCell>
        <mxCell id="h0GC7bV9k8jez8_o-PCf-115" value="&lt;font style=&quot;font-size: 17px;&quot;&gt;Team Coordinator&lt;/font&gt;" style="text;html=1;strokeColor=none;fillColor=none;align=center;verticalAlign=middle;whiteSpace=wrap;rounded=0;" vertex="1" parent="h0GC7bV9k8jez8_o-PCf-26">
          <mxGeometry y="90" width="190" height="70" as="geometry" />
        </mxCell>
        <mxCell id="h0GC7bV9k8jez8_o-PCf-93" style="edgeStyle=orthogonalEdgeStyle;rounded=0;orthogonalLoop=1;jettySize=auto;html=1;entryX=1;entryY=0.5;entryDx=0;entryDy=0;endArrow=none;endFill=0;" edge="1" parent="WIyWlLk6GJQsqaUBKTNV-1" source="h0GC7bV9k8jez8_o-PCf-36" target="h0GC7bV9k8jez8_o-PCf-26">
          <mxGeometry relative="1" as="geometry">
            <mxPoint x="1560" y="1458" as="targetPoint" />
            <Array as="points">
              <mxPoint x="1590" y="1360" />
              <mxPoint x="1590" y="1360" />
            </Array>
          </mxGeometry>
        </mxCell>
        <mxCell id="h0GC7bV9k8jez8_o-PCf-94" style="edgeStyle=orthogonalEdgeStyle;rounded=0;orthogonalLoop=1;jettySize=auto;html=1;entryX=0.5;entryY=1;entryDx=0;entryDy=0;endArrow=none;endFill=0;" edge="1" parent="WIyWlLk6GJQsqaUBKTNV-1" source="h0GC7bV9k8jez8_o-PCf-36" target="h0GC7bV9k8jez8_o-PCf-43">
          <mxGeometry relative="1" as="geometry" />
        </mxCell>
        <mxCell id="h0GC7bV9k8jez8_o-PCf-36" value="SUB MISION / TECHNICIAN" style="swimlane;fontStyle=2;align=center;verticalAlign=top;childLayout=stackLayout;horizontal=1;startSize=26;horizontalStack=0;resizeParent=1;resizeLast=0;collapsible=1;marginBottom=0;rounded=0;shadow=0;strokeWidth=1;fillColor=#dae8fc;strokeColor=#6c8ebf;" vertex="1" parent="WIyWlLk6GJQsqaUBKTNV-1">
          <mxGeometry x="1630" y="1280" width="190" height="166" as="geometry">
            <mxRectangle x="230" y="140" width="160" height="26" as="alternateBounds" />
          </mxGeometry>
        </mxCell>
        <mxCell id="h0GC7bV9k8jez8_o-PCf-116" value="&lt;font style=&quot;font-size: 17px;&quot;&gt;Team Leader&lt;/font&gt;" style="text;html=1;strokeColor=none;fillColor=none;align=center;verticalAlign=middle;whiteSpace=wrap;rounded=0;" vertex="1" parent="h0GC7bV9k8jez8_o-PCf-36">
          <mxGeometry y="26" width="190" height="70" as="geometry" />
        </mxCell>
        <mxCell id="h0GC7bV9k8jez8_o-PCf-117" value="&lt;font style=&quot;font-size: 17px;&quot;&gt;Technician&lt;/font&gt;" style="text;html=1;strokeColor=none;fillColor=none;align=center;verticalAlign=middle;whiteSpace=wrap;rounded=0;" vertex="1" parent="h0GC7bV9k8jez8_o-PCf-36">
          <mxGeometry y="96" width="190" height="70" as="geometry" />
        </mxCell>
        <mxCell id="h0GC7bV9k8jez8_o-PCf-43" value="CONTRACTUSER" style="swimlane;fontStyle=2;align=center;verticalAlign=top;childLayout=stackLayout;horizontal=1;startSize=26;horizontalStack=0;resizeParent=1;resizeLast=0;collapsible=1;marginBottom=0;rounded=0;shadow=0;strokeWidth=1;fillColor=#dae8fc;strokeColor=#6c8ebf;" vertex="1" parent="WIyWlLk6GJQsqaUBKTNV-1">
          <mxGeometry x="1630" y="1020" width="190" height="160" as="geometry">
            <mxRectangle x="230" y="140" width="160" height="26" as="alternateBounds" />
          </mxGeometry>
        </mxCell>
        <mxCell id="h0GC7bV9k8jez8_o-PCf-103" style="edgeStyle=orthogonalEdgeStyle;rounded=0;orthogonalLoop=1;jettySize=auto;html=1;exitX=0;exitY=0.5;exitDx=0;exitDy=0;entryX=1;entryY=0.5;entryDx=0;entryDy=0;endArrow=none;endFill=0;" edge="1" parent="WIyWlLk6GJQsqaUBKTNV-1" source="h0GC7bV9k8jez8_o-PCf-48" target="h0GC7bV9k8jez8_o-PCf-0">
          <mxGeometry relative="1" as="geometry" />
        </mxCell>
        <mxCell id="h0GC7bV9k8jez8_o-PCf-48" value="DIRECCION DEPARTAMENTAL" style="swimlane;fontStyle=2;align=center;verticalAlign=top;childLayout=stackLayout;horizontal=1;startSize=26;horizontalStack=0;resizeParent=1;resizeLast=0;collapsible=1;marginBottom=0;rounded=0;shadow=0;strokeWidth=1;fillColor=#dae8fc;strokeColor=#6c8ebf;" vertex="1" parent="WIyWlLk6GJQsqaUBKTNV-1">
          <mxGeometry x="650" y="760" width="190" height="160" as="geometry">
            <mxRectangle x="230" y="140" width="160" height="26" as="alternateBounds" />
          </mxGeometry>
        </mxCell>
        <mxCell id="h0GC7bV9k8jez8_o-PCf-108" value="&lt;font style=&quot;font-size: 17px;&quot;&gt;Department Manager&lt;/font&gt;" style="text;html=1;strokeColor=none;fillColor=none;align=center;verticalAlign=middle;whiteSpace=wrap;rounded=0;" vertex="1" parent="h0GC7bV9k8jez8_o-PCf-48">
          <mxGeometry y="26" width="190" height="134" as="geometry" />
        </mxCell>
        <mxCell id="h0GC7bV9k8jez8_o-PCf-104" style="edgeStyle=orthogonalEdgeStyle;rounded=0;orthogonalLoop=1;jettySize=auto;html=1;exitX=0;exitY=0.5;exitDx=0;exitDy=0;entryX=1;entryY=0.5;entryDx=0;entryDy=0;endArrow=none;endFill=0;" edge="1" parent="WIyWlLk6GJQsqaUBKTNV-1" source="h0GC7bV9k8jez8_o-PCf-57" target="h0GC7bV9k8jez8_o-PCf-48">
          <mxGeometry relative="1" as="geometry" />
        </mxCell>
        <mxCell id="h0GC7bV9k8jez8_o-PCf-105" style="edgeStyle=orthogonalEdgeStyle;rounded=0;orthogonalLoop=1;jettySize=auto;html=1;entryX=0.426;entryY=0.002;entryDx=0;entryDy=0;entryPerimeter=0;endArrow=none;endFill=0;" edge="1" parent="WIyWlLk6GJQsqaUBKTNV-1" source="h0GC7bV9k8jez8_o-PCf-57" target="h0GC7bV9k8jez8_o-PCf-7">
          <mxGeometry relative="1" as="geometry">
            <Array as="points">
              <mxPoint x="1055" y="1020" />
            </Array>
          </mxGeometry>
        </mxCell>
        <mxCell id="h0GC7bV9k8jez8_o-PCf-57" value="DEPARTAMENTO" style="swimlane;fontStyle=2;align=center;verticalAlign=top;childLayout=stackLayout;horizontal=1;startSize=26;horizontalStack=0;resizeParent=1;resizeLast=0;collapsible=1;marginBottom=0;rounded=0;shadow=0;strokeWidth=1;fillColor=#dae8fc;strokeColor=#6c8ebf;" vertex="1" parent="WIyWlLk6GJQsqaUBKTNV-1">
          <mxGeometry x="960" y="760" width="190" height="160" as="geometry">
            <mxRectangle x="230" y="140" width="160" height="26" as="alternateBounds" />
          </mxGeometry>
        </mxCell>
        <mxCell id="h0GC7bV9k8jez8_o-PCf-109" value="&lt;font style=&quot;font-size: 17px;&quot;&gt;Department Leader&lt;/font&gt;" style="text;html=1;strokeColor=none;fillColor=none;align=center;verticalAlign=middle;whiteSpace=wrap;rounded=0;" vertex="1" parent="h0GC7bV9k8jez8_o-PCf-57">
          <mxGeometry y="26" width="190" height="134" as="geometry" />
        </mxCell>
        <mxCell id="h0GC7bV9k8jez8_o-PCf-118" value="" style="edgeStyle=orthogonalEdgeStyle;rounded=0;orthogonalLoop=1;jettySize=auto;html=1;endArrow=none;endFill=0;" edge="1" parent="WIyWlLk6GJQsqaUBKTNV-1" source="h0GC7bV9k8jez8_o-PCf-119" target="h0GC7bV9k8jez8_o-PCf-125">
          <mxGeometry relative="1" as="geometry" />
        </mxCell>
        <mxCell id="h0GC7bV9k8jez8_o-PCf-119" value="PROGRAMA" style="swimlane;fontStyle=2;align=center;verticalAlign=top;childLayout=stackLayout;horizontal=1;startSize=26;horizontalStack=0;resizeParent=1;resizeLast=0;collapsible=1;marginBottom=0;rounded=0;shadow=0;strokeWidth=1;fillColor=#dae8fc;strokeColor=#6c8ebf;" vertex="1" parent="WIyWlLk6GJQsqaUBKTNV-1">
          <mxGeometry x="570" y="-720" width="190" height="160" as="geometry">
            <mxRectangle x="230" y="140" width="160" height="26" as="alternateBounds" />
          </mxGeometry>
        </mxCell>
        <mxCell id="h0GC7bV9k8jez8_o-PCf-120" value="ID" style="text;align=left;verticalAlign=top;spacingLeft=4;spacingRight=4;overflow=hidden;rotatable=0;points=[[0,0.5],[1,0.5]];portConstraint=eastwest;" vertex="1" parent="h0GC7bV9k8jez8_o-PCf-119">
          <mxGeometry y="26" width="190" height="26" as="geometry" />
        </mxCell>
        <mxCell id="h0GC7bV9k8jez8_o-PCf-121" value="ID_SUBDIVISION" style="text;align=left;verticalAlign=top;spacingLeft=4;spacingRight=4;overflow=hidden;rotatable=0;points=[[0,0.5],[1,0.5]];portConstraint=eastwest;fillColor=#fff2cc;strokeColor=#d6b656;" vertex="1" parent="h0GC7bV9k8jez8_o-PCf-119">
          <mxGeometry y="52" width="190" height="26" as="geometry" />
        </mxCell>
        <mxCell id="h0GC7bV9k8jez8_o-PCf-122" value="NOMBRE" style="text;align=left;verticalAlign=top;spacingLeft=4;spacingRight=4;overflow=hidden;rotatable=0;points=[[0,0.5],[1,0.5]];portConstraint=eastwest;rounded=0;shadow=0;html=0;" vertex="1" parent="h0GC7bV9k8jez8_o-PCf-119">
          <mxGeometry y="78" width="190" height="26" as="geometry" />
        </mxCell>
        <mxCell id="h0GC7bV9k8jez8_o-PCf-123" value="DESCRIPCION" style="text;align=left;verticalAlign=top;spacingLeft=4;spacingRight=4;overflow=hidden;rotatable=0;points=[[0,0.5],[1,0.5]];portConstraint=eastwest;rounded=0;shadow=0;html=0;" vertex="1" parent="h0GC7bV9k8jez8_o-PCf-119">
          <mxGeometry y="104" width="190" height="26" as="geometry" />
        </mxCell>
        <mxCell id="h0GC7bV9k8jez8_o-PCf-124" value="ACTIVO" style="text;align=left;verticalAlign=top;spacingLeft=4;spacingRight=4;overflow=hidden;rotatable=0;points=[[0,0.5],[1,0.5]];portConstraint=eastwest;rounded=0;shadow=0;html=0;" vertex="1" parent="h0GC7bV9k8jez8_o-PCf-119">
          <mxGeometry y="130" width="190" height="26" as="geometry" />
        </mxCell>
        <mxCell id="h0GC7bV9k8jez8_o-PCf-125" value="CONJUNTO" style="swimlane;fontStyle=2;align=center;verticalAlign=top;childLayout=stackLayout;horizontal=1;startSize=26;horizontalStack=0;resizeParent=1;resizeLast=0;collapsible=1;marginBottom=0;rounded=0;shadow=0;strokeWidth=1;fillColor=#dae8fc;strokeColor=#6c8ebf;" vertex="1" parent="WIyWlLk6GJQsqaUBKTNV-1">
          <mxGeometry x="880" y="-705" width="190" height="130" as="geometry">
            <mxRectangle x="230" y="140" width="160" height="26" as="alternateBounds" />
          </mxGeometry>
        </mxCell>
        <mxCell id="h0GC7bV9k8jez8_o-PCf-126" value="ID" style="text;align=left;verticalAlign=top;spacingLeft=4;spacingRight=4;overflow=hidden;rotatable=0;points=[[0,0.5],[1,0.5]];portConstraint=eastwest;" vertex="1" parent="h0GC7bV9k8jez8_o-PCf-125">
          <mxGeometry y="26" width="190" height="26" as="geometry" />
        </mxCell>
        <mxCell id="h0GC7bV9k8jez8_o-PCf-127" value="ID_PROGRAMA" style="text;align=left;verticalAlign=top;spacingLeft=4;spacingRight=4;overflow=hidden;rotatable=0;points=[[0,0.5],[1,0.5]];portConstraint=eastwest;fillColor=#fff2cc;strokeColor=#d6b656;" vertex="1" parent="h0GC7bV9k8jez8_o-PCf-125">
          <mxGeometry y="52" width="190" height="26" as="geometry" />
        </mxCell>
        <mxCell id="h0GC7bV9k8jez8_o-PCf-128" value="NOMBRE" style="text;align=left;verticalAlign=top;spacingLeft=4;spacingRight=4;overflow=hidden;rotatable=0;points=[[0,0.5],[1,0.5]];portConstraint=eastwest;rounded=0;shadow=0;html=0;" vertex="1" parent="h0GC7bV9k8jez8_o-PCf-125">
          <mxGeometry y="78" width="190" height="26" as="geometry" />
        </mxCell>
        <mxCell id="h0GC7bV9k8jez8_o-PCf-129" value="DESCRIPCION" style="text;align=left;verticalAlign=top;spacingLeft=4;spacingRight=4;overflow=hidden;rotatable=0;points=[[0,0.5],[1,0.5]];portConstraint=eastwest;rounded=0;shadow=0;html=0;" vertex="1" parent="h0GC7bV9k8jez8_o-PCf-125">
          <mxGeometry y="104" width="190" height="26" as="geometry" />
        </mxCell>
        <mxCell id="h0GC7bV9k8jez8_o-PCf-131" value="SUB-CONJUNTO" style="swimlane;fontStyle=2;align=center;verticalAlign=top;childLayout=stackLayout;horizontal=1;startSize=26;horizontalStack=0;resizeParent=1;resizeLast=0;collapsible=1;marginBottom=0;rounded=0;shadow=0;strokeWidth=1;fillColor=#dae8fc;strokeColor=#6c8ebf;" vertex="1" parent="WIyWlLk6GJQsqaUBKTNV-1">
          <mxGeometry x="1200" y="-705" width="190" height="130" as="geometry">
            <mxRectangle x="230" y="140" width="160" height="26" as="alternateBounds" />
          </mxGeometry>
        </mxCell>
        <mxCell id="h0GC7bV9k8jez8_o-PCf-132" value="ID" style="text;align=left;verticalAlign=top;spacingLeft=4;spacingRight=4;overflow=hidden;rotatable=0;points=[[0,0.5],[1,0.5]];portConstraint=eastwest;" vertex="1" parent="h0GC7bV9k8jez8_o-PCf-131">
          <mxGeometry y="26" width="190" height="26" as="geometry" />
        </mxCell>
        <mxCell id="h0GC7bV9k8jez8_o-PCf-133" value="ID_PROGRAMA" style="text;align=left;verticalAlign=top;spacingLeft=4;spacingRight=4;overflow=hidden;rotatable=0;points=[[0,0.5],[1,0.5]];portConstraint=eastwest;fillColor=#fff2cc;strokeColor=#d6b656;" vertex="1" parent="h0GC7bV9k8jez8_o-PCf-131">
          <mxGeometry y="52" width="190" height="26" as="geometry" />
        </mxCell>
        <mxCell id="h0GC7bV9k8jez8_o-PCf-134" value="NOMBRE" style="text;align=left;verticalAlign=top;spacingLeft=4;spacingRight=4;overflow=hidden;rotatable=0;points=[[0,0.5],[1,0.5]];portConstraint=eastwest;rounded=0;shadow=0;html=0;" vertex="1" parent="h0GC7bV9k8jez8_o-PCf-131">
          <mxGeometry y="78" width="190" height="26" as="geometry" />
        </mxCell>
        <mxCell id="h0GC7bV9k8jez8_o-PCf-135" value="DESCRIPCION" style="text;align=left;verticalAlign=top;spacingLeft=4;spacingRight=4;overflow=hidden;rotatable=0;points=[[0,0.5],[1,0.5]];portConstraint=eastwest;rounded=0;shadow=0;html=0;" vertex="1" parent="h0GC7bV9k8jez8_o-PCf-131">
          <mxGeometry y="104" width="190" height="26" as="geometry" />
        </mxCell>
        <mxCell id="h0GC7bV9k8jez8_o-PCf-136" style="edgeStyle=orthogonalEdgeStyle;rounded=0;orthogonalLoop=1;jettySize=auto;html=1;entryX=0;entryY=0.5;entryDx=0;entryDy=0;endArrow=none;endFill=0;" edge="1" parent="WIyWlLk6GJQsqaUBKTNV-1" source="h0GC7bV9k8jez8_o-PCf-127" target="h0GC7bV9k8jez8_o-PCf-131">
          <mxGeometry relative="1" as="geometry" />
        </mxCell>
        <mxCell id="h0GC7bV9k8jez8_o-PCf-137" value="&lt;font style=&quot;font-size: 16px;&quot;&gt;1:N&lt;/font&gt;" style="text;html=1;align=center;verticalAlign=middle;resizable=0;points=[];autosize=1;strokeColor=none;fillColor=none;" vertex="1" parent="WIyWlLk6GJQsqaUBKTNV-1">
          <mxGeometry x="795" y="-672" width="50" height="30" as="geometry" />
        </mxCell>
        <mxCell id="h0GC7bV9k8jez8_o-PCf-138" value="&lt;font style=&quot;font-size: 16px;&quot;&gt;1:N&lt;/font&gt;" style="text;html=1;align=center;verticalAlign=middle;resizable=0;points=[];autosize=1;strokeColor=none;fillColor=none;" vertex="1" parent="WIyWlLk6GJQsqaUBKTNV-1">
          <mxGeometry x="1108" y="-672" width="50" height="30" as="geometry" />
        </mxCell>
      </root>
    </mxGraphModel>
  </diagram>
</mxfile>
